<ttFont>
<head>
    <!-- Most of this table will be recalculated by the compiler -->
    <tableVersion value="1.0"/>
    <fontRevision value="2.004"/>
    <checkSumAdjustment value="0xdd9efd07"/>
    <magicNumber value="0x5f0f3cf5"/>
    <flags value="00000000 00000011"/>
    <unitsPerEm value="1000"/>
    <created value="Thu Oct  8 09:57:38 2009"/>
    <modified value="Thu Oct  8 09:57:38 2009"/>
    <xMin value="-519"/>
    <yMin value="-307"/>
    <xMax value="1704"/>
    <yMax value="1136"/>
    <macStyle value="00000000 00000001"/>
    <lowestRecPPEM value="3"/>
    <fontDirectionHint value="2"/>
    <indexToLocFormat value="0"/>
    <glyphDataFormat value="0"/>
  </head>
          <CharString index="0">
            hintmask 10010000
            876 hmoveto
            52 -98 vlineto
            -270 623 rlineto
            26 -11 -15 0 -21 hhcurveto
            -22 -15 0 -26 -11 hvcurveto
            -261 -601 rlineto
            hintmask 01000000
            -7 -15 -1 -1 -24 -3 rrcurveto
            hintmask 10000000
            -3 -26 -2 0 -23 hhcurveto
            -24 -52 hlineto
            hintmask 01000000
            3 51 29 0 46 hhcurveto
            hintmask 10100000
            136 -3 rlineto
            52 vlineto
            -27 -32 0 9 -29 hvcurveto
            5 14 51 116 rlineto
            287 hlineto
            61 -139 rlineto
            -93 -52 hlineto
            hintmask 01000000
            3 37 99 0 42 hhcurveto
            hintmask 10100000
            38 67 0 -3 63 hvcurveto
            -336 243 rmoveto
            -242 hlineto
            121 279 rlineto
            return
          </CharString>
          <CharString index="1">
            -1 callgsubr
            hintmask 01010011
            589 26 rmoveto
            26 -16 0 -14 -62 0 10 23 vhcurveto
            211 vlineto
            90 -72 69 -163 -49 -143 0 -99 -44 34 -24 33 40 28 29 38 32 -21 19 0 vhcurveto
            2 8 29 5 39 hhcurveto
            80 35 -44 -72 hvcurveto
            -29 vlineto
            -150 -1 -195 -33 -122 vvcurveto
            hintmask 10000000
            -85 96 -34 109 103 43 55 20 13 vhcurveto
            hintmask 01000000
            -30 11 -38 97 vhcurveto
            53 hlineto
            19 15 0 26 hvcurveto
            -214 111 rmoveto
            hintmask 10100011
            -102 -120 0 -4 -52 -47 31 48 70 93 43 130 3 vhcurveto
            return
          </CharString>
          <CharString index="2">
            rmoveto
            39 10 -29 39 -41 hhcurveto
            -14 -14 -6 -10 -13 hvcurveto
            -145 -107 24 -50 174 48 10 4 32 8 6 35 rlinecurve
            endchar
          </CharString>
          <CharString index="3">
            41 -34 31 -38 -41 -32 -32 -40 -40 34 -32 38 40 33 33 39 vhcurveto
            return
          </CharString>
          <CharString index="4">
            110 -85 83 -100 20 vhcurveto
            -152 31 rlineto
            -72 15 -34 44 44 vvcurveto
            44 31 60 107 23 67 -2 -40 53 vhcurveto
            56 -43 11 -62 4 -24 rrcurveto
            -19 3 1 -5 25 hhcurveto
            27 1 7 24 hvcurveto
            180 vlineto
            19 0 12 -22 -12 -1 -1 -23 -23 vhcurveto
            -31 -30 rlineto
            33 -46 -56 21 -80 hhcurveto
            -169 -70 -105 -97 -43 14 -42 34 -39 hvcurveto
            52 -59 63 -12 44 -9 123 -25 rcurveline
            86 -18 27 -54 -44 vvcurveto
            -31 -14 -84 -128 -48 -73 7 35 -56 vhcurveto
            -63 39 -4 61 -1 32 rrcurveto
            16 -1 -16 0 -11 hhcurveto
            -28 0 -8 -23 hvcurveto
            -180 88 callsubr
            12 1 1 23 23 vhcurveto
            30 29 rlineto
            -46 70 92 -7 52 hhcurveto
            180 62 118 98 hvcurveto
            return
          </CharString>
          <CharString index="5">
            911 98 rmoveto
            22 -16 3 -12 -21 -6 -9 -14 -1 vhcurveto
            -62 -5 -41 -10 -17 hhcurveto
            -63 -8 64 85 -11 hvcurveto
            -8 67 -8 59 -98 37 rrcurveto
            105 29 60 60 70 vvcurveto
            106 -123 81 -193 vhcurveto
            -398 -52 108 -582 -108 -52 hlineto
            3 39 97 0 44 hhcurveto
            44 96 0 -3 39 hvcurveto
            52 -108 270 128 vlineto
            38 35 -10 -28 27 hvcurveto
            30 -29 0 -21 -68 vvcurveto
            -67 0 -45 64 -37 vhcurveto
            -25 44 71 -6 47 hhcurveto
            112 17 89 23 hvcurveto
            -310 401 rmoveto
            -59 -5 -76 -168 vhcurveto
            -130 270 133 hlineto
            163 7 -73 -62 hvcurveto
            return
          </CharString>
          <CharString index="6">
            901 224 rmoveto
            52 vlineto
            -177 -3 rlineto
            -46 -126 0 3 -38 hvcurveto
            -52 153 -98 vlineto
            -20 0 -30 -47 -20 vhcurveto
            -17 -38 -41 -1 -18 hhcurveto
            -109 -74 38 37 -38 hvcurveto
            -43 43 -31 60 128 vvcurveto
            46 3 108 60 66 vhcurveto
            77 71 105 7 46 hhcurveto
            102 110 -63 -142 25 hvcurveto
            -20 3 7 0 23 hhcurveto
            29 4 1 30 hvcurveto
            215 vlineto
            19 0 12 -22 -9 -3 0 -10 -11 vhcurveto
            -66 -58 rlineto
            31 -44 -64 37 -104 hhcurveto
            -273 -152 -159 -198 -186 137 -171 292 105 71 22 37 33 hvcurveto
            -21 28 57 -24 8 hhcurveto
            17 0 17 14 hvcurveto
            193 vlineto
            return
          </CharString>
          <CharString index="7">
            55 -30 40 -41 -38 -22 -29 -31 -31 21 -29 39 14 14 3 9 10 vhcurveto
            -3 -37 -15 -50 -51 -40 rrcurveto
            -5 -4 -4 -3 -7 vvcurveto
            -7 9 -9 7 14 81 64 106 vhcurveto
            endchar
          </CharString>
          <CharString index="8">
            -34 callgsubr
            hintmask 1100001101000000
            768 275 123 callgsubr
            -24 -36 -80 -182 hhcurveto
            -166 275 60 hlineto
            94 17 -35 -80 hvcurveto
            56 282 -56 hlineto
            hintmask 1011001010000000
            -80 -17 -35 -94 vhcurveto
            -60 249 163 hlineto
            144 49 -49 -142 18 hvcurveto
            56 hlineto
            -33 243 rlineto
            -654 -29 callgsubr
            672 hlineto
            hintmask 0100000001000000
            return
          </CharString>
          <CharString index="9">
            rmoveto
            -175 141 -175 -141 14 -24 160 58 160 -58 rlineto
            return
          </CharString>
          <CharString index="10">
            rmoveto
            -47 121 rlineto
            11 -4 -14 35 -38 hhcurveto
            -32 -38 -30 -36 -25 17 -14 9 -8 hvcurveto
            101 -87 rlineto
            -158 33 rmoveto
            -47 121 rlineto
            11 -4 -14 35 -38 hhcurveto
            -32 -38 -30 -36 -25 17 -14 9 -8 hvcurveto
            101 -87 rlineto
            endchar
          </CharString>
          <CharString index="11">
            12 -32 -21 4 -17 hhcurveto
            -37 -25 -18 -18 -19 hvcurveto
            -21 -21 12 9 -46 -44 rrcurveto
            return
          </CharString>
          <CharString index="12">
            616 392 73 callgsubr
            -38 -2 0 -43 hhcurveto
            -7 -53 0 3 -30 hvcurveto
            -52 vlineto
            0 41 0 -10 vvcurveto
            -3 -3 -6 -2 -4 vhcurveto
            -122 -241 -134 264 rlineto
            47 52 hlineto
            -3 -58 -21 0 -44 hhcurveto
            -23 -54 0 3 -40 hvcurveto
            -52 63 vlineto
            198 -392 -41 -85 -8 -10 -7 -10 rlinecurve
            -49 -38 -43 -5 -16 hhcurveto
            -9 -4 1 2 -5 hvcurveto
            20 12 9 20 22 vvcurveto
            40 -30 22 -32 -33 -30 -22 -41 -53 49 -45 64 97 60 84 27 14 vhcurveto
            235 461 rlineto
            17 9 2 4 62 hhcurveto
            return
          </CharString>
          <CharString index="13">
            rmoveto
            31 -28 36 -36 -18 -15 -9 -14 -13 vhcurveto
            -124 -131 32 -45 163 78 rlineto
            9 5 30 14 35 vvcurveto
            endchar
          </CharString>
          <CharString index="14">
            856 392 rmoveto
            131 callgsubr
            -45 hhcurveto
            -32 -30 0 3 -32 hvcurveto
            -52 vlineto
            16 16 0 -8 21 hvcurveto
            -2 -6 -1 -4 -2 -4 -109 -252 rcurveline
            -118 274 rlineto
            51 52 hlineto
            -3 -45 -46 0 -21 hhcurveto
            -17 -55 0 3 -30 hvcurveto
            -52 57 vlineto
            3 -7 8 -19 5 -10 -2 -7 -1 -3 -2 -5 -86 -200 rcurveline
            -108 251 rlineto
            50 52 hlineto
            -3 -58 -16 0 -47 hhcurveto
            -22 -56 0 3 -35 hvcurveto
            -52 58 vlineto
            158 -369 rlineto
            -28 12 17 0 14 hhcurveto
            30 4 9 21 9 hvcurveto
            112 258 112 -258 rlineto
            -21 9 4 -9 30 hhcurveto
            15 16 0 28 12 hvcurveto
            150 348 rlineto
            17 7 2 4 57 hhcurveto
            return
          </CharString>
          <CharString index="15">
            hintmask 00100000
            897 59 callgsubr
            -3 -45 -43 0 -36 hhcurveto
            hintmask 00100000
            -136 94 callgsubr
            30 15 0 -9 27 hvcurveto
            -201 -272 -208 281 rlineto
            80 52 hlineto
            hintmask 01000000
            -3 -36 -106 0 -42 hhcurveto
            hintmask 10100100
            -53 -68 0 3 -51 hvcurveto
            -52 99 vlineto
            266 -360 rlineto
            -222 -108 -52 vlineto
            3 39 97 0 44 hhcurveto
            44 95 0 -3 39 hvcurveto
            52 -107 223 vlineto
            252 340 rlineto
            hintmask 01000000
            9 13 3 1 24 2 rrcurveto
            hintmask 00100000
            2 18 17 1 18 hhcurveto
            return
          </CharString>
          <CharString index="16">
            -8 callsubr
            54 35 0 38 hhcurveto
            39 34 0 -3 54 hvcurveto
            return
          </CharString>
          <CharString index="17">
            816 227 rmoveto
            24 -11 0 -17 -25 -2 -4 -25 -1 vhcurveto
            -104 -7 -105 -80 -132 hhcurveto
            -110 -74 40 43 -39 hvcurveto
            -45 49 -20 69 104 vvcurveto
            44 2 110 61 67 vhcurveto
            77 71 105 7 46 hhcurveto
            102 110 -63 -142 25 hvcurveto
            -20 3 7 0 23 hhcurveto
            29 4 1 30 hvcurveto
            215 vlineto
            19 0 12 -22 -9 -3 0 -10 -11 vhcurveto
            -66 -58 rlineto
            31 -44 -64 37 -104 hhcurveto
            -273 -152 -159 -198 return
          </CharString>
          <CharString index="18">
            26 4 0 -3 23 hvcurveto
            26 -3 1 -1 -20 vvcurveto
            -375 vlineto
            -140 -104 -54 -122 -185 -2 132 55 vhcurveto
            return
          </CharString>
          <CharString index="19">
            -12 -10 -32 -28 -42 hhcurveto
            -26 -29 11 13 -33 hvcurveto
            return
          </CharString>
          <CharString index="20">
            rmoveto
            -35 -24 -2 -43 -39 -28 0 37 35 24 2 43 39 28 0 -37 vhcurveto
            64 -1 rmoveto
            43 -38 42 -92 -104 -28 -50 -33 -43 38 -42 92 104 28 50 33 vhcurveto
            return
          </CharString>
          <CharString index="21">
            -179 -64 callsubr
            56 7 0 -38 hvcurveto
            -301 -8 callsubr
            58 11 0 53 hhcurveto
            41 29 0 -3 49 hvcurveto
            return
          </CharString>
          <CharString index="22">
            115 callsubr
            73 122 11 122 -122 133 -2 133 hintmask 1001010100001101
            -69 callsubr
            hintmask 0100000000010000
            -42 -22 2 15 -16 hvcurveto
            hintmask 0001100000100000
            7 callgsubr
            hintmask 0000000001000000
            111 callsubr
            hintmask 0010000000100000
            58 callgsubr
            -40 19 -37 34 -19 vhcurveto
            hintmask 1000000000001000
            12 callgsubr
            hintmask 0100000000000010
            21 callsubr
            hintmask 0010100000000101
            7 callsubr
            return
          </CharString>
          <CharString index="23">
            rmoveto
            -104 callsubr
            314 hmoveto
            -104 callsubr
            endchar
          </CharString>
          <CharString index="24">
            hstemhm
            155 -81 callsubr
            return
          </CharString>
          <CharString index="25">
            rmoveto
            36 -38 30 -32 -38 -14 -35 -11 -4 vhcurveto
            -47 -121 46 -33 101 87 rlineto
            9 8 17 14 25 vvcurveto
            204 hmoveto
            36 -38 30 -32 -38 -14 -35 -11 -4 vhcurveto
            -47 -121 46 -33 101 87 rlineto
            9 8 17 14 25 vvcurveto
            endchar
          </CharString>
          <CharString index="26">
            149 hintmask 11001000
            -96 callgsubr
            return
          </CharString>
          <CharString index="27">
            rmoveto
            -145 107 rlineto
            10 -14 -13 6 -14 hhcurveto
            -41 -30 -39 -39 11 hvcurveto
            6 -35 32 -8 10 -4 174 -48 rcurveline
            endchar
          </CharString>
          <CharString index="28">
            vlineto
            -188 -93 callgsubr
            return
          </CharString>
          <CharString index="29">
            -175 -8 rlineto
            -52 vlineto
            59 7 0 -39 hvcurveto
            -300 -77 callgsubr
            return
          </CharString>
          <CharString index="30">
            hstemhm
            125 -72 callgsubr
            return
          </CharString>
          <CharString index="31">
            -91 callsubr
            52 -66 return
          </CharString>
          <CharString index="32">
            47 callgsubr
            hintmask 00100001
            -37 callsubr
            hintmask 10010010
            13 -13 -1 1 -21 hhcurveto
            -234 -62 callgsubr
            hintmask 01000011
            -31 callgsubr
            return
          </CharString>
          <CharString index="33">
            -169 -8 rlineto
            -52 vlineto
            59 7 0 -39 hvcurveto
            -300 56 callsubr
            162 vlineto
            79 31 113 96 3 vhcurveto
            return
          </CharString>
          <CharString index="34">
            72 65 35 95 96 vvcurveto
            -160 19 rmoveto
            -83 -7 -86 -49 -68 vhcurveto
            -56 -40 -66 -29 -69 hhcurveto
            -69 -67 29 56 -40 hvcurveto
            -48 68 -7 86 83 vvcurveto
            77 8 80 47 60 vhcurveto
            54 42 66 26 68 hhcurveto
            67 67 -26 -54 41 hvcurveto
            47 -60 9 -80 -77 vvcurveto
            return
          </CharString>
          <CharString index="35">
            41 -28 39 -52 -24 -19 -9 -10 -11 vhcurveto
            5 72 33 57 56 43 rrcurveto
            9 6 5 4 9 vvcurveto
            10 -12 12 -10 -18 -111 -85 -142 -72 41 -55 56 51 29 39 41 vhcurveto
            return
          </CharString>
          <CharString index="36">
            rmoveto
            -124 131 rlineto
            14 -13 -15 9 -18 hhcurveto
            -36 -28 -36 -31 -35 30 -14 9 -5 hvcurveto
            163 -78 rlineto
            endchar
          </CharString>
          <CharString index="37">
            rmoveto
            -177 185 -177 -185 18 -22 158 99 158 -99 rlineto
            return
          </CharString>
          <CharString index="38">
            724 493 rmoveto
            44 -26 41 -41 -44 -22 -34 -33 -31 19 -32 40 -3 vhcurveto
            -16 -17 -25 -11 -27 -6 rrcurveto
            40 51 callgsubr
            19 25 0 -5 11 hvcurveto
            9 -3 2 -10 -10 vvcurveto
            -209 vlineto
            -66 -1 -56 -53 -69 hhcurveto
            return
          </CharString>
          <CharString index="39">
            492 206 rmoveto
            -56 hlineto
            -102 -9 -22 -57 -128 hhcurveto
            -88 hlineto
            290 349 rlineto
            10 12 0 4 7 vvcurveto
            25 -16 0 -18 vhcurveto
            -391 hlineto
            -13 -178 rlineto
            56 hlineto
            102 7 33 34 105 hhcurveto
            83 hlineto
            -290 -349 rlineto
            -11 -13 0 -5 -9 vvcurveto
            -26 15 0 19 vhcurveto
            404 hlineto
            return
          </CharString>
          <CharString index="40">
            rmoveto
            -104 callsubr
            266 hmoveto
            -104 callsubr
            endchar
          </CharString>
          <CharString index="41">
            -20 hstemhm
            133 callgsubr
            -109 22 callsubr
            -84 122 hintmask 1110001001000000
            650 hmoveto
            -104 callgsubr
            hintmask 0001110110000000
            -2 callgsubr
            return
          </CharString>
          <CharString index="42">
            rmoveto
            -14 24 -160 -58 -160 58 -16 -24 175 -141 rlineto
            endchar
          </CharString>
          <CharString index="43">
            -8 -38 callsubr
            return
          </CharString>
          <CharString index="44">
            -140 4 -38 callsubr
            27 27 0 -3 27 hvcurveto
            11 -1 15 -1 -6 vvcurveto
            -394 vlineto
            -56 -20 -51 -38 -32 vhcurveto
            -36 -42 -59 -16 -67 hhcurveto
            -60 -51 16 35 -34 hvcurveto
            -30 31 -10 46 63 vvcurveto
            405 107 52 vlineto
            return
          </CharString>
          <CharString index="45">
            578 218 rmoveto
            73 -32 83 -84 45 vhcurveto
            72 111 -34 24 -77 -117 rlineto
            18 -54 -50 0 -13 hhcurveto
            -184 -88 -112 -125 -68 30 -79 87 -45 hvcurveto
            -73 -111 34 -24 78 119 rlineto
            -12 37 39 -5 40 hhcurveto
            186 86 107 118 hvcurveto
            -185 175 rmoveto
            -207 -313 rlineto
            -30 37 0 54 48 vvcurveto
            76 0 118 150 51 33 -18 -2 3 vhcurveto
            63 -174 rmoveto
            -76 0 -108 -150 -11 -42 0 19 -33 vhcurveto
            205 310 rlineto
            30 -37 1 -50 -58 vvcurveto
            return
          </CharString>
          <CharString index="46">
            -98 callsubr
            -34 250 -68 callgsubr
          </CharString>
          <CharString index="47">
            44 -36 36 -44 -44 -36 -36 -44 -44 36 -36 44 44 94 callsubr
            return
          </CharString>
          <CharString index="48">
            -38 rmoveto
            489 vlineto
            -189 114 callgsubr
            22 0 -3 13 hvcurveto
            20 -4 0 -11 -21 vvcurveto
            -391 vlineto
            -55 -20 -65 -59 -5 -30 2 4 vhcurveto
            2 4 rlineto
            return
          </CharString>
          <CharString index="49">
            377 -75 callgsubr
            return
          </CharString>
          <CharString index="50">
            -90 callgsubr
            endchar
          </CharString>
          <CharString index="51">
            -71 callgsubr
            52 -108 return
          </CharString>
          <CharString index="52">
            -182 4 rlineto
            -52 107 -405 vlineto
            -71 36 -66 59 -42 vhcurveto
            -46 66 82 -18 92 hhcurveto
            80 74 19 46 57 hvcurveto
            52 43 29 66 69 vvcurveto
            366 vlineto
            77 12 64 53 75 vvcurveto
            return
          </CharString>
          <CharString index="53">
            rmoveto
            116 -2 -94 71 -95 hhcurveto
            -95 -94 -71 -116 -2 hvcurveto
            42 hlineto
            83 2 83 35 64 hhcurveto
            64 83 -35 -83 2 hvcurveto
            endchar
          </CharString>
          <CharString index="54">
            -12 11 5 0 15 hhcurveto
            30 1 10 24 hvcurveto
            573 -75 callgsubr
            return
          </CharString>
          <CharString index="55">
            -27 callsubr
            -70 callgsubr
            return
          </CharString>
          <CharString index="56">
            -20 -11 callsubr
            hintmask 10100101
            -41 callgsubr
            hintmask 00011000
            return
          </CharString>
          <CharString index="57">
            -64 callgsubr
            hintmask 0000000100000000
            25 -33 0 -56 -47 vvcurveto
            return
          </CharString>
          <CharString index="58">
            885 0 109 549 42 hstemhm
            68 160 -118 160 172 160 12 160 -118 160 hintmask 10000100
            830 204 rmoveto
            -56 hlineto
            -5 -25 -5 -29 -8 -19 rrcurveto
            -12 -5 -3 -10 -61 hhcurveto
            -73 hlineto
            17 32 20 28 34 40 rrcurveto
            hintmask 01101010
            74 87 57 67 94 vvcurveto
            104 -89 139 -285 -285 -89 -139 -104 -93 58 -70 58 -67 vhcurveto
            hintmask 10010000
            47 -55 20 -26 19 -37 rrcurveto
            -73 hlineto
            -60 -4 9 11 -5 hvcurveto
            -7 18 -6 32 -5 25 rrcurveto
            -56 hlineto
            39 -204 rlineto
            207 hlineto
            21 13 0 29 71 -31 84 -22 60 hvcurveto
            hintmask 11101010
            -28 74 -25 68 71 vvcurveto
            50 11 64 51 41 vhcurveto
            34 43 54 12 55 hhcurveto
            66 52 -16 -36 42 hvcurveto
            22 -20 32 -45 -84 vvcurveto
            -68 -23 -66 -29 -78 vhcurveto
            -21 -54 -33 -89 -73 vvcurveto
            -29 14 0 21 vhcurveto
            206 hlineto
            endchar
          </CharString>
          <CharString index="59">
            1244 -14 42 -28 52 278 52 252 52 -28 42 hstemhm
            87 154 390 130 223 56 79 56 -22 56 hintmask 0111001101000000
            1209 275 rmoveto
            -56 hlineto
            -136 -23 -30 -87 -181 hhcurveto
            -158 278 96 hlineto
            86 41 -18 -97 hvcurveto
            56 282 -56 hlineto
            -97 -41 -18 -86 vhcurveto
            -96 252 156 hlineto
            hintmask 0001000010000000
            153 32 -65 -126 17 hvcurveto
            56 hlineto
            -33 243 rlineto
            -451 hlineto
            -14 -32 2 4 -40 hvcurveto
            hintmask 1000110000000000
            8 -72 -25 0 -14 hhcurveto
            -267 -140 -162 -199 -196 142 -157 265 31 36 3 3 25 hvcurveto
            hintmask 0100000001000000
            7 67 28 1 10 hhcurveto
            469 hlineto
            -529 198 rmoveto
            hintmask 1000111000000000
            -150 -39 -20 -92 -159 -100 128 199 190 103 113 156 92 39 -19 -151 vhcurveto
            endchar
          </CharString>
          <CharString index="60">
            638 -7 42 -35 115 callgsubr
            -42 42 215 93 callgsubr
            35 108 -54 126 0 126 -92 126 hintmask 0001110010000000
            603 180 rmoveto
            117 -61 80 -96 43 vhcurveto
            103 36 20 68 37 vvcurveto
            66 -62 74 -168 -132 -95 -47 -100 vhcurveto
            -110 -66 vlineto
            hintmask 0110110010000000
            -52 66 -340 -8 callsubr
            53 19 0 34 hhcurveto
            40 14 0 -3 22 hvcurveto
            556 vlineto
            28 0 75 109 97 9 -59 -39 -74 -41 -39 -79 -4 vhcurveto
            -15 -1 -12 0 -20 vvcurveto
            hintmask 1001001001000000
            -17 11 -3 5 -1 vhcurveto
            127 -7 38 -93 -123 vvcurveto
            -31 0 -113 -101 -16 -3 1 4 -8 vhcurveto
            5 3 17 14 28 vvcurveto
            hintmask 0000000100000000
            35 -25 19 -29 vhcurveto
            hintmask 1000001001000000
            -31 -23 -22 -33 -42 37 -49 78 130 95 71 116 hvcurveto
            endchar
          </CharString>
          <CharString index="61">
            922 0 -26 callsubr
            return
          </CharString>
          <CharString index="62">
            rmoveto
            -90 callgsubr
            return
          </CharString>
          <CharString index="63">
            rmoveto
            82 -63 68 -108 24 vhcurveto
            27 11 110 43 109 vvcurveto
            80 -82 62 -149 -130 -81 -69 -82 -56 44 -20 30 40 34 28 46 22 -8 38 -48 12 vhcurveto
            38 44 60 0 9 hhcurveto
            93 0 -66 -30 -72 -34 -37 -3 -4 hvcurveto
            return
          </CharString>
          <CharString index="64">
            -20 hstemhm
            -59 116 -116 135 95 116 hintmask 11001010
            287 -59 callsubr
            hintmask 10000110
            -30 callsubr
            hintmask 00110000
            return
          </CharString>
          <CharString index="65">
            1159 0 52 -49 52 579 52 hstemhm
            158 62 650 130 hintmask 10111000
            1108 108 callgsubr
            -228 vlineto
            -23 -12 -1 -28 -14 hvcurveto
            -252 -527 -251 526 rlineto
            30 -14 -14 0 -22 hhcurveto
            -228 -62 callgsubr
            hintmask 01010000
            -26 -4 0 3 -23 hvcurveto
            -26 3 -1 1 20 vvcurveto
            540 1 vlineto
            281 -589 rlineto
            hintmask 10001000
            -18 9 10 -12 21 hhcurveto
            25 8 17 12 6 hvcurveto
            288 603 rlineto
            1 -580 -108 -52 hlineto
            hintmask 01000000
            3 41 87 0 45 hhcurveto
            hintmask 10000000
            45 87 0 -3 41 hvcurveto
            endchar
          </CharString>
          <CharString index="66">
            -41 6 -64 63 -54 vhcurveto
            -35 43 42 -22 89 hhcurveto
            68 40 49 26 16 hvcurveto
            -76 -5 -60 -21 -46 vhcurveto
            -41 -20 -47 -43 -72 hhcurveto
            -10 -41 0 20 -31 hvcurveto
            hintmask 0100001000000000
            11 4 35 17 44 vvcurveto
            38 -28 29 -39 -39 -29 -27 -42 vhcurveto
            return
          </CharString>
          <CharString index="67">
            hstemhm
            -34 callsubr
            return
          </CharString>
          <CharString index="68">
            -46 callsubr
            -20 return
          </CharString>
          <CharString index="69">
            rlineto
            -52 vlineto
            return
          </CharString>
          <CharString index="70">
            26 4 0 -3 23 hvcurveto
            26 -3 1 -1 -20 vvcurveto
            -400 vlineto
            -421 465 rlineto
            return
          </CharString>
          <CharString index="71">
            471 364 rmoveto
            55 -56 32 -58 -85 -41 -70 -38 -15 vhcurveto
            -1 1 rlineto
            107 vlineto
            return
          </CharString>
          <CharString index="72">
            45 -38 35 -42 return
          </CharString>
          <CharString index="73">
            155 149 return
          </CharString>
          <CharString index="74">
            1 0 1 2 vvcurveto
            -16 74 -27 71 -36 67 36 66 27 72 16 74 rrcurveto
            3 vlineto
            10 -8 7 -9 vhcurveto
            -8 hlineto
            -7 -6 -4 -6 -3 hvcurveto
            -34 -82 -54 -72 -69 -55 rrcurveto
            -4 -3 -2 -5 -5 vvcurveto
            -6 2 -4 4 -4 vhcurveto
            69 -55 54 -72 34 -82 rrcurveto
            -6 3 6 -4 7 hhcurveto
            8 hlineto
            9 8 8 9 hvcurveto
            return
          </CharString>
          <CharString index="75">
            955 1 callgsubr
            -49 52 576 52 -49 52 hstemhm
            155 62 520 62 hintmask 00000100
            907 -27 callgsubr
            hintmask 00001000
            -139 -3 rlineto
            hintmask 00000100
            -139 3 rlineto
            -52 28 vlineto
            hintmask 00001001
            -37 callsubr
            hintmask 00100110
            14 callgsubr
            hintmask 00010000
            139 3 rlineto
            hintmask 00100000
            139 -3 rlineto
            52 -28 vlineto
            hintmask 00010011
            -36 callgsubr
            return
          </CharString>
          <CharString index="76">
            -7 -8 0 -1 -7 hvcurveto
            -74 -7 -128 -10 -12 -84 rrcurveto
            -1 -3 0 -2 -3 vvcurveto
            -12 8 -7 16 vhcurveto
            9 hlineto
            13 7 3 19 4 hvcurveto
            8 23 40 8 24 6 rrcurveto
            10 38 41 1 39 hhcurveto
            60 109 -1 -47 23 hvcurveto
            -19 4 7 -3 14 hhcurveto
            18 hlineto
            11 3 3 8 9 vvcurveto
            endchar
          </CharString>
          <CharString index="77">
            10 12 7 14 20 vvcurveto
            39 -29 28 -38 -40 -28 -28 -40 -63 66 -34 87 88 105 50 113 vhcurveto
            return
          </CharString>
          <CharString index="78">
            rmoveto
            58 -442 -58 vlineto
            endchar
          </CharString>
          <CharString index="79">
            205 rmoveto
            57 -12 52 -58 50 vhcurveto
            47 -55 -55 10 -63 hhcurveto
            -61 -41 -39 -35 -22 hvcurveto
            57 3 75 28 51 vhcurveto
            61 33 63 24 52 hhcurveto
            28 24 -5 -18 21 hvcurveto
            -24 -6 -27 -22 -38 vvcurveto
            return
          </CharString>
          <CharString index="80">
            -54 47 -52 72 51 39 29 37 26 vhcurveto
            return
          </CharString>
          <CharString index="81">
            52 -49 52 136 52 458 return
          </CharString>
          <CharString index="82">
            134 rmoveto
            70 -7 88 -44 70 vhcurveto
            68 -43 -69 34 -90 hhcurveto
            -152 -105 -82 -136 hvcurveto
            hintmask 1011000101000000
            -41 callsubr
            hintmask 1011000101000000
            -70 53 -60 120 152 154 98 244 vhcurveto
            -145 109 rmoveto
            -102 -45 -68 -75 vhcurveto
            hintmask 0000110010000000
            -102 0 78 94 91 0 85 115 107 0 -120 -58 hvcurveto
            endchar
          </CharString>
          <CharString index="83">
            179 -44 callsubr
            -29 -31 -18 -1 -54 -3 rrcurveto
            -31 -2 -10 -1 -20 vvcurveto
            -21 13 0 18 vhcurveto
            49 hlineto
            116 1 -97 -50 -45 0 -102 -113 -21 -57 3 32 -50 hvcurveto
            17 7 36 21 49 vvcurveto
            48 -34 33 -47 vhcurveto
            hintmask 0101000100000000
            -44 -37 -30 -52 -97 104 -61 138 196 72 106 87 hvcurveto
            endchar
          </CharString>
          <CharString index="84">
            -340 -66 callgsubr
            return
          </CharString>
          <CharString index="85">
            52 223 52 0 72 callsubr
            return
          </CharString>
          <CharString index="86">
            -5 32 34 0 6 hhcurveto
            26 68 0 48 75 hvcurveto
            26 17 60 50 26 vvcurveto
            15 -8 6 -10 vhcurveto
            0 -4 0 -11 -5 vhcurveto
            -17 -49 -59 -10 -55 hhcurveto
            -45 -57 6 22 -65 hvcurveto
            return
          </CharString>
          <CharString index="87">
            12 -17 -26 17 -46 hhcurveto
            -98 -84 -71 -130 -136 88 -66 94 83 75 64 138 40 -7 34 -7 19 hvcurveto
            -28 63 68 -13 52 hhcurveto
            31 46 6 13 38 hvcurveto
            -508 -613 rlineto
            -9 -10 -5 -7 -12 vvcurveto
            -18 16 -16 18 6 12 2 14 12 vhcurveto
            return
          </CharString>
          <CharString index="88">
            187 rmoveto
            111 -97 52 -39 20 vhcurveto
            42 23 60 37 78 vvcurveto
            139 -159 11 -60 -149 -74 -80 -98 -67 42 -53 54 -30 vhcurveto
            -104 -46 -26 -63 -60 vvcurveto
            -125 113 -50 140 172 85 89 112 vhcurveto
            -117 321 rmoveto
            -38 -16 -39 -56 -33 vhcurveto
            -157 82 rlineto
            -19 10 -28 17 32 vvcurveto
            63 75 13 60 91 50 -41 -66 vhcurveto
            22 -376 rmoveto
            -85 -97 -14 -61 -97 -65 44 84 99 92 38 0 vhcurveto
            52 -26 114 -60 rlineto
            16 -9 46 -24 -47 vvcurveto
            endchar
          </CharString>
          <CharString index="89">
            613 -202 43 142 104 22 43 0 43 3 104 0 43 63 43 return
          </CharString>
          <CharString index="90">
            -28 callsubr
            -38 28 -29 39 39 29 27 42 61 -41 69 -117 -156 -165 -96 -245 -128 31 -203 228 149 102 84 135 vhcurveto
            -143 1 rmoveto
            -95 0 -78 -109 -49 -32 28 32 -15 vhcurveto
            -17 34 0 81 4 vvcurveto
            90 40 76 80 102 0 -77 -95 vhcurveto
            endchar
          </CharString>
          <CharString index="91">
            -20 hstemhm
            77 39 callsubr
            hintmask 10011000
            -3 callsubr
            hintmask 01100000
            return
          </CharString>
          <CharString index="92">
            939 -14 52 593 52 -49 52 return
          </CharString>
          <CharString index="93" raw="1">
            2e1dfbc0 830a0b  
          </CharString>
          <CharString index="94">
            225 rmoveto
            67 -13 69 -49 45 vhcurveto
            48 -52 -73 10 -71 hhcurveto
            -71 -73 -10 -48 -52 hvcurveto
            -49 -45 -13 -69 -67 vvcurveto
            -67 13 -69 49 -45 vhcurveto
            -48 52 73 -10 71 hhcurveto
            71 73 10 48 52 hvcurveto
            49 45 13 69 67 vvcurveto
            -135 hmoveto
            -52 -2 -53 -28 -44 vhcurveto
            -32 -19 -37 -16 -37 hhcurveto
            -37 -37 16 32 -19 hvcurveto
            -28 44 -2 53 52 vvcurveto
            52 2 53 28 44 vhcurveto
            32 19 37 16 37 hhcurveto
            37 37 -16 -32 19 hvcurveto
            28 -44 2 -53 -52 vvcurveto
            endchar
          </CharString>
          <CharString index="95">
            228 rmoveto
            -56 hlineto
            -8 -66 -13 -20 -6 -3 rrcurveto
            -6 -11 -77 0 -17 hhcurveto
            -138 hlineto
            134 105 54 30 43 33 rrcurveto
            70 55 25 50 57 vvcurveto
            118 -109 77 -152 vhcurveto
            hintmask 00010000
            -128 -101 -57 -94 hvcurveto
            hintmask 01001000
            -59 48 -19 28 vhcurveto
            hintmask 10110100
            35 42 25 52 47 -34 19 -13 5 hvcurveto
            21 28 40 8 31 hhcurveto
            90 50 -67 -77 -81 -53 -67 -59 -55 hvcurveto
            -221 -206 rlineto
            -11 -11 -1 -1 -20 vvcurveto
            -21 457 vlineto
            endchar
          </CharString>
          <CharString index="96">
            hstemhm
            112 64 callsubr
            hintmask 01000000
            -36 callsubr
            return
          </CharString>
          <CharString index="97">
            177 vstem
            267 25 callgsubr
            return
          </CharString>
          <CharString index="98">
            30 122 223 122 return
          </CharString>
          <CharString index="99">
            -66 -52 vlineto
            3 return
          </CharString>
          <CharString index="100">
            -182 -93 callgsubr
            -187 vlineto
            37 -54 -52 6 -37 hhcurveto
            -169 -99 -100 -129 -131 97 -98 159 hvcurveto
            return
          </CharString>
          <CharString index="101">
            764 -38 rmoveto
            25 24 -25 24 -8 8 -232 232 rcurveline
            232 232 9 9 24 23 -25 24 rlinecurve
            -24 25 -24 -25 -8 -8 -232 -232 rcurveline
            -232 232 -9 9 -23 24 -24 -25 rlinecurve
            -25 -24 25 -24 8 -8 232 -232 rcurveline
            -232 -232 -9 -9 -24 -23 25 -24 rlinecurve
            24 -25 24 25 8 8 232 232 rcurveline
            232 -232 9 -9 23 -24 24 25 rlinecurve
            return
          </CharString>
          <CharString index="102">
            319 rmoveto
            116 -9 223 -249 -250 -8 -225 -114 -112 7 -221 251 252 6 222 111 vhcurveto
            -135 12 rmoveto
            -229 -14 -14 -31 -30 vhcurveto
            -9 -8 -28 -21 -42 hhcurveto
            -27 -28 10 17 -21 hvcurveto
            -32 28 -15 14 234 vvcurveto
            72 0 73 10 50 vhcurveto
            71 13 62 19 38 hhcurveto
            24 76 -6 -95 15 hvcurveto
            8 -49 0 -77 -58 vvcurveto
            endchar
          </CharString>
          <CharString index="103">
            -66 -47 -59 -10 -34 hhcurveto
            -130 0 124 60 63 0 127 143 46 47 -19 -43 34 hvcurveto
            return
          </CharString>
          <CharString index="104">
            222 561 rmoveto
            -104 callsubr
            314 hmoveto
            -104 callsubr
            return
          </CharString>
          <CharString index="105">
            300 hmoveto
            52 -59 399 vlineto
            return
          </CharString>
          <CharString index="106">
            169 rmoveto
            -104 callsubr
            314 hmoveto
            -104 callsubr
            return
          </CharString>
          <CharString index="107">
            0 3 -38 hvcurveto
            -52 108 -582 -108 -52 return
          </CharString>
          <CharString index="108">
            47 15 callgsubr
            return
          </CharString>
          <CharString index="109">
            122 10 callgsubr
            return
          </CharString>
          <CharString index="110">
            5 callsubr
            hvcurveto
            return
          </CharString>
          <CharString index="111">
            340 0 36 callsubr
            return
          </CharString>
          <CharString index="112">
            38 -18 callgsubr
            return
          </CharString>
          <CharString index="113">
            10 -32 -32 7 -34 hhcurveto
            -91 -99 -19 -78 -63 67 -35 69 110 123 2 70 33 hvcurveto
            -44 82 81 -47 94 hhcurveto
            84 51 88 93 hvcurveto
            -504 -40 rmoveto
            -52 -12 -74 -14 -68 hhcurveto
            -39 -41 9 33 41 73 0 61 hvcurveto
            hintmask 0010000000000000
            34 34 -7 -10 32 hvcurveto
            endchar
          </CharString>
          <CharString index="114">
            -9 3 -2 10 10 vvcurveto
            277 vlineto
            78 16 64 47 73 vvcurveto
            return
          </CharString>
          <CharString index="115">
            117 callsubr
            274 135 return
          </CharString>
          <CharString index="116">
            -39 -17 0 3 -55 hvcurveto
            -52 vlineto
            15 3 -3 -6 4 hvcurveto
            -195 -143 rlineto
            454 vlineto
            return
          </CharString>
          <CharString index="117">
            rmoveto
            31 -75 61 75 32 -75 251 vlineto
            19 -4 1 -21 -15 -5 0 -9 -9 vhcurveto
            -263 -262 rlineto
            -32 221 -61 -85 -31 vlineto
            2 26 73 0 31 hhcurveto
            35 59 0 -2 32 hvcurveto
            -124 666 rmoveto
            19 -16 15 -18 -11 -10 -5 -8 -6 vhcurveto
            return
          </CharString>
          <CharString index="118">
            -1 -9 -33 -2 -8 hhcurveto
            -4 -2 0 4 -14 hvcurveto
            8 -31 -32 0 -17 hhcurveto
            -137 -147 -40 -121 hvcurveto
            -96 -79 -52 79 -30 callgsubr
            224 -340 -66 -52 vlineto
            return
          </CharString>
          <CharString index="119">
            hmoveto
            52 -149 381 vlineto
            13 0 18 -24 vhcurveto
            -8 hlineto
            -17 -9 -7 -5 -13 hvcurveto
            hintmask 00100000
            -31 -68 -75 -1 -73 hhcurveto
            -52 68 vlineto
            hintmask 01010100
            48 44 13 0 hvcurveto
            -329 -148 vlineto
            hintmask 10000000
            -52 vlineto
            hintmask 01000000
            212 4 rlineto
            hintmask 10000000
            endchar
          </CharString>
          <CharString index="120">
            544 -200 56 46 56 hstemhm
            216 112 -28 136 hintmask 01100000
            436 -121 rmoveto
            50 -53 29 -55 vhcurveto
            47 -112 -103 vlineto
            hintmask 10010000
            3 callsubr
            endchar
          </CharString>
          <CharString index="121">
            24 callsubr
            -74 571 rmoveto
            19 -15 15 -19 vhcurveto
            return
          </CharString>
          <CharString index="122">
            -497 -76 callsubr
            179 vlineto
            -38 52 49 -6 35 hhcurveto
            164 105 95 135 hvcurveto
            -135 hmoveto
            -134 -71 -54 -73 -45 -48 22 49 -33 vhcurveto
            236 vlineto
            return
          </CharString>
          <CharString index="123">
            613 -7 104 callgsubr
            return
          </CharString>
          <CharString index="124">
            hmoveto
            52 -148 572 vlineto
            34 -6 0 -40 vhcurveto
            -48 -61 -80 -16 -78 hhcurveto
            -22 -52 22 hlineto
            26 54 3 17 58 hvcurveto
            -510 -150 -52 vlineto
            3 36 132 0 45 hhcurveto
            45 130 61 callgsubr
            endchar
          </CharString>
          <CharString index="125">
            hvcurveto
            -96 -79 -52 79 -30 callgsubr
            224 -30 callgsubr
            return
          </CharString>
          <CharString index="126">
            -60 callsubr
            endchar
          </CharString>
          <CharString index="127">
            40 callgsubr
            7 24 17 19 22 11 rrcurveto
            35 28 0 -3 44 hvcurveto
            return
          </CharString>
          <CharString index="128">
            181 7 rlineto
            52 vlineto
            -18 -25 0 5 -11 hvcurveto
            return
          </CharString>
          <CharString index="129">
            145 121 145 return
          </CharString>
          <CharString index="130">
            31 callsubr
            -516 404 rmoveto
            return
          </CharString>
          <CharString index="131">
            -19 callgsubr
            -390 hmoveto
            -19 callgsubr
            return
          </CharString>
          <CharString index="132">
            55 -30 40 -41 -38 -22 -29 -31 vhcurveto
            hintmask 01100000
            -31 21 -29 39 14 14 3 9 10 vhcurveto
            -3 -37 -15 -50 -51 -40 rrcurveto
            -5 -4 -4 -3 -7 vvcurveto
            -7 9 -9 7 14 81 64 106 vhcurveto
            endchar
          </CharString>
          <CharString index="133">
            912 vlineto
            14 0 30 -30 -31 0 -29 -15 vhcurveto
            -912 37 callsubr
            return
          </CharString>
          <CharString index="134">
            -576 -108 -52 return
          </CharString>
          <CharString index="135">
            12 -12 22 -6 16 vhcurveto
            -6 19 -9 18 -6 19 rrcurveto
            31 -12 -12 29 -43 hhcurveto
            -32 -4 -33 -27 -34 vvcurveto
            -40 50 -30 27 -23 vhcurveto
            -13 15 26 -27 10 hhcurveto
            14 4 28 24 1 4 rrcurveto
            return
          </CharString>
          <CharString index="136">
            307 hmoveto
            52 -66 642 vlineto
            return
          </CharString>
          <CharString index="137">
            351 420 -35 callgsubr
            158 -493 rmoveto
            52 -41 17 -26 -33 -35 -23 -45 -24 11 -24 27 -13 vhcurveto
            -25 return
          </CharString>
          <CharString index="138">
            -12 callgsubr
            -390 38 callgsubr
            return
          </CharString>
          <CharString index="139">
            5 18 10 15 14 11 rrcurveto
            173 8 80 103 114 vvcurveto
            -135 12 rmoveto
            -87 0 -103 -137 -137 0 103 87 82 0 101 137 137 0 -102 -81 vhcurveto
            return
          </CharString>
          <CharString index="140">
            6 callgsubr
            hstemhm
            155 143 return
          </CharString>
          <CharString index="141">
            47 352 52 191 -20 122 callsubr
            return
          </CharString>
          <CharString index="142">
            52 357 42 183 52 -52 60 return
          </CharString>
          <CharString index="143">
            52 339 52 -52 60 return
          </CharString>
          <CharString index="144">
            vlineto
            -14 0 -30 30 31 0 29 15 vhcurveto
            return
          </CharString>
          <CharString index="145">
            rmoveto
            58 -238 -58 vlineto
            147 -56 0 147 hhcurveto
            endchar
          </CharString>
          <CharString index="146">
            145 169 145 return
          </CharString>
          <CharString index="147">
            990 hmoveto
            52 -66 251 vlineto
            120 -73 28 -92 -105 -55 -61 -31 -21 vhcurveto
            78 -24 -67 14 -68 hhcurveto
            46 callgsubr
            hvcurveto
            -1 102 hlineto
            return
          </CharString>
          <CharString index="148">
            rmoveto
            33 5 -30 28 -36 hhcurveto
            -36 -30 -28 -33 5 hvcurveto
            33 -219 rlineto
            56 hlineto
            return
          </CharString>
          <CharString index="149">
            938 -14 71 callgsubr
            return
          </CharString>
          <CharString index="150">
            35 -35 31 -35 -40 -12 -36 -27 -11 vhcurveto
            -13 -34 -16 -35 -10 -36 45 -32 rcurveline
            11 8 10 10 11 9 53 45 rcurveline
            19 17 23 16 29 vvcurveto
            return
          </CharString>
          <CharString index="151">
            -41 -53 callgsubr
            -50 -43 return
          </CharString>
          <CharString index="152">
            647 -201 42 551 52 return
          </CharString>
          <CharString index="153">
            56 -56 -90 0 -23 hhcurveto
            -178 -85 -111 -118 -124 91 -99 163 -9 hvcurveto
            -37 -30 -14 -29 -41 vvcurveto
            -54 47 -52 72 vhcurveto
            return
          </CharString>
          <CharString index="154">
            -53 callgsubr
            -35 return
          </CharString>
          <CharString index="155">
            -182 -93 callgsubr
            -543 -8 callsubr
            return
          </CharString>
          <CharString index="156">
            42 -35 42 -42 99 callsubr
            41 135 return
          </CharString>
          <CharString index="157">
            506 0 86 callgsubr
            return
          </CharString>
          <CharString index="158">
            rmoveto
            -14 17 rlineto
            -41 -49 -53 -30 -51 hhcurveto
            -40 -29 17 20 -35 hvcurveto
            17 -29 -31 17 -40 hhcurveto
            hintmask 00100000
            -25 -26 -8 -10 -22 hvcurveto
            return
          </CharString>
          <CharString index="159">
            -20 hstemhm
            68 160 435 123 callsubr
            return
          </CharString>
          <CharString index="160">
            132 -116 116 return
          </CharString>
          <CharString index="161">
            -108 -52 454 hlineto
            213 155 128 209 hvcurveto
            -154 2 rmoveto
            -97 0 -190 -256 vhcurveto
            -161 return
          </CharString>
          <CharString index="162">
            rmoveto
            105 -325 -105 vlineto
            endchar
          </CharString>
          <CharString index="163">
            -8 callsubr
            58 10 0 60 hhcurveto
            136 -3 rlineto
            52 -82 return
          </CharString>
          <CharString index="164">
            hstemhm
            2 callsubr
            return
          </CharString>
          <CharString index="165">
            612 -7 46 328 46 0 42 return
          </CharString>
          <CharString index="166">
            52 186 52 372 52 return
          </CharString>
          <CharString index="167">
            52 408 52 155 47 return
          </CharString>
          <CharString index="168">
            66 hintmask 00010000
            2 callgsubr
            hintmask 00100000
            -141 -3 rlineto
            hintmask 00010000
            -141 3 rlineto
            -52 28 vlineto
            return
          </CharString>
          <CharString index="169">
            hlineto
            -78 -236 rlineto
            -5 -14 0 -2 -3 113 callsubr
            22 9 17 13 4 vhcurveto
            85 259 rlineto
            return
          </CharString>
          <CharString index="170">
            -54 callgsubr
            57 69 return
          </CharString>
          <CharString index="171">
            116 111 53 callsubr
            return
          </CharString>
          <CharString index="172">
            52 hstem
            -34 callsubr
            return
          </CharString>
          <CharString index="173">
            -120 rmoveto
            -35 callsubr
            vhcurveto
            hintmask 10000100
            -45 -36 -36 -44 -45 38 -35 42 45 36 36 44 hvcurveto
            return
          </CharString>
          <CharString index="174">
            162 -128 148 -148 160 -10 148 0 144 -126 160 hintmask 0001010010000000
            return
          </CharString>
          <CharString index="175">
            -135 -52 vlineto
            3 37 121 0 45 hhcurveto
            45 121 141 callgsubr
            -135 105 vlineto
            return
          </CharString>
          <CharString index="176">
            hmoveto
            52 vlineto
            -59 -7 0 39 hvcurveto
            return
          </CharString>
          <CharString index="177">
            72 callgsubr
            215 42 return
          </CharString>
          <CharString index="178">
            153 callgsubr
            279 52 return
          </CharString>
          <CharString index="179">
            52 249 52 return
          </CharString>
          <CharString index="180">
            rmoveto
            -19 callgsubr
            return
          </CharString>
          <CharString index="181">
            755 -56 callgsubr
          </CharString>
          <CharString index="182">
            98 295 -98 callsubr
            return
          </CharString>
          <CharString index="183">
            -54 -48 -67 -35 -94 hhcurveto
            -63 -85 17 61 -89 hvcurveto
            return
          </CharString>
          <CharString index="184">
            130 37 42 84 130 32 -20 return
          </CharString>
          <CharString index="185">
            143 -112 135 -97 135 return
          </CharString>
          <CharString index="186">
            177 85 177 vstem
            return
          </CharString>
          <CharString index="187">
            575 -250 36 446 36 446 36 hstem
            232 111 cntrmask 11100000
            496 return
          </CharString>
          <CharString index="188">
            -70 callgsubr
            -35 return
          </CharString>
          <CharString index="189">
            -21 -19 -13 0 -39 -2 rrcurveto
            -22 -1 -7 -1 -12 vvcurveto
            -12 9 0 13 vhcurveto
            35 hlineto
            return
          </CharString>
          <CharString index="190">
            -35 callsubr
            -45 -36 -36 -44 -45 38 -35 42 45 94 callsubr
            endchar
          </CharString>
          <CharString index="191">
            52 593 52 -49 52 -40 callsubr
            return
          </CharString>
          <CharString index="192">
            522 -21 207 -20 hstem
            return
          </CharString>
          <CharString index="193">
            852 0 152 callsubr
            return
          </CharString>
          <CharString index="194">
            885 16 -21 397 52 return
          </CharString>
          <CharString index="195">
            vlineto
            -19 0 -12 22 return
          </CharString>
          <CharString index="196">
            -14 47 -47 158 -76 158 -47 47 101 45 59 145 39 43 hstemhm
            return
          </CharString>
          <CharString index="197">
            1263 11 -21 644 52 return
          </CharString>
          <CharString index="198">
            -14 47 284 47 14 43 38 return
          </CharString>
          <CharString index="199">
            135 -111 133 return
          </CharString>
          <CharString index="200">
            52 hstem
            155 143 return
          </CharString>
          <CharString index="201">
            36 36 44 vhcurveto
            return
          </CharString>
          <CharString index="202">
            -14 hvcurveto
            -15 2 -1 1 12 vvcurveto
            324 1 vlineto
            168 -354 rlineto
            return
          </CharString>
          <CharString index="203">
            639 223 rmoveto
            125 -89 103 -161 -57 -56 -15 -32 -48 vhcurveto
            return
          </CharString>
          <CharString index="204">
            -15 -41 2 19 -36 hvcurveto
            12 4 26 13 29 vvcurveto
            29 -24 20 -34 -32 return
          </CharString>
          <CharString index="205">
            65 callsubr
            346 149 vstem
            907 hmoveto
            52 -108 return
          </CharString>
          <CharString index="206">
            35 callsubr
            hstemhm
            return
          </CharString>
          <CharString index="207">
            631 -14 42 19 148 439 52 return
          </CharString>
          <CharString index="208">
            1225 21 -21 22 -21 216 68 216 -20 21 -20 hstemhm
            return
          </CharString>
          <CharString index="209">
            hlineto
            -7 -7 -5 -7 -2 hvcurveto
            -6 -18 rlineto
            -11 -4 8 -11 12 hhcurveto
            return
          </CharString>
          <CharString index="210">
            112 116 return
          </CharString>
          <CharString index="211">
            125 116 return
          </CharString>
          <CharString index="212">
            hhcurveto
            -41 -16 -30 -25 -29 20 -27 37 21 24 9 10 20 hvcurveto
            return
          </CharString>
          <CharString index="213">
            -35 -86 rlineto
            -98 hlineto
            -35 86 rlineto
            112 -138 rmoveto
            -28 -68 return
          </CharString>
          <CharString index="214">
            -21 173 -20 -40 callsubr
            return
          </CharString>
          <CharString index="215">
            52 -21 165 -20 hstemhm
            68 160 return
          </CharString>
          <CharString index="216">
            62 -21 173 -20 hstemhm
            68 160 return
          </CharString>
          <CharString index="217">
            544 0 47 355 42 return
          </CharString>
          <CharString index="218">
            18 25 0 -5 11 hvcurveto
            return
          </CharString>
          <CharString index="219">
            162 145 143 return
          </CharString>
          <CharString index="220">
            vvcurveto
            125 callsubr
            return
          </CharString>
          <CharString index="221">
            -21 199 -20 return
          </CharString>
          <CharString index="222">
            -20 hstemhm
            110 133 -122 122 -122 133 return
          </CharString>
          <CharString index="223">
            56 hstemhm
            64 56 150 122 -40 122 328 56 return
          </CharString>
          <CharString index="224">
            hstemhm
            34 135 return
          </CharString>
          <CharString index="225">
            -109 -83 -56 -36 -23 vhcurveto
            -52 -33 -4 -48 -18 vvcurveto
            return
          </CharString>
          <CharString index="226">
            vvcurveto
            -27 callsubr
            endchar
          </CharString>
          <CharString index="227">
            361 -21 194 160 hstem
            return
          </CharString>
          <CharString index="228">
            hstemhm
            154 150 return
          </CharString>
          <CharString index="229">
            hstemhm
            109 122 return
          </CharString>
          <CharString index="230">
            134 -107 160 return
          </CharString>
          <CharString index="231">
            160 hstem
            90 return
          </CharString>
          <CharString index="232">
            -19 15 -15 19 return
          </CharString>
          <CharString index="233">
            -208 47 146 47 101 44 244 43 hstemhm
            return
          </CharString>
          <CharString index="234">
            -194 52 -49 49 142 52 439 -20 hstemhm
            return
          </CharString>
          <CharString index="235">
            hstemhm
            68 160 152 161 150 160 return
          </CharString>
          <CharString index="236">
            14 63 0 -3 32 hvcurveto
            return
          </CharString>
          <CharString index="237">
            58 -40 callsubr
            return
          </CharString>
          <CharString index="238" raw="1">
            d276f763 77120b  
          </CharString>
          <CharString index="239">
            -194 52 135 42 return
          </CharString>
          <CharString index="240">
            153 -77 153 116 145 hintmask 10101100
            return
          </CharString>
          <CharString index="241">
            681 -7 42 -35 42 -42 52 357 42 return
          </CharString>
          <CharString index="242">
            82 -42 82 -1 callgsubr
            return
          </CharString>
          <CharString index="243">
            -11 -10 -5 -8 -6 vhcurveto
            141 callsubr
            return
          </CharString>
          <CharString index="244">
            604 730 rlineto
            8 10 4 4 12 vvcurveto
            return
          </CharString>
          <CharString index="245">
            -7 -8 113 callsubr
            return
          </CharString>
          <CharString index="246">
            68 160 463 160 return
          </CharString>
          <CharString index="247">
            24 callgsubr
            26 return
          </CharString>
          <CharString index="248">
            -490 -646 rlineto
            return
          </CharString>
          <CharString index="249">
            hstemhm
            104 callsubr
            return
          </CharString>
          <CharString index="250">
            95 -61 83 276 83 -61 95 hintmask 01011000
            return
          </CharString>
          <CharString index="251">
            160 hstem
            -378 161 vstem
            -217 return
          </CharString>
          <CharString index="252">
            hlineto
            -14 -12 -12 -14 -15 12 -11 14 hvcurveto
            return
          </CharString>
          <CharString index="253">
            0 133 296 147 30 52 hstemhm
            return
          </CharString>
          <CharString index="254">
            0 124 178 162 -52 52 hstemhm
            return
          </CharString>
          <CharString index="255">
            922 -14 56 16 56 -6 56 -39 56 return
          </CharString>
          <CharString index="256">
            77 callsubr
            hstemhm
            return
          </CharString>
          <CharString index="257">
            hlineto
            -12 -32 0 -34 -34 36 0 14 hvcurveto
            return
          </CharString>
          <CharString index="258">
            29 -20 27 -37 -21 -24 -9 -10 -20 vhcurveto
            return
          </CharString>
          <CharString index="259">
            52 569 52 return
          </CharString>
          <CharString index="260">
            -21 118 69 return
          </CharString>
        <CharString name=".notdef">
          280 endchar
        </CharString>
        <CharString name="A">
          -39 callsubr
          hstemhm
          -107 callsubr
          endchar
        </CharString>
        <CharString name="AE">
          -44 callgsubr
        </CharString>
        <CharString name="AE.dup">
          -44 callgsubr
        </CharString>
        <CharString name="AEacute">
          1108 0 52 -49 72 callsubr
          278 52 76 -21 173 -20 hstemhm
          512 140 179 56 96 56 -22 56 hintmask 1011001101000000
          1073 275 rmoveto
          -56 hlineto
          -136 -23 -28 -87 -177 hhcurveto
          -137 252 67 hlineto
          94 18 -34 -81 hvcurveto
          56 282 -56 hlineto
          -81 -18 -34 -94 vhcurveto
          -67 278 134 hlineto
          hintmask 0101000010000000
          158 24 -73 -118 15 hvcurveto
          56 hlineto
          -33 243 rlineto
          -670 -52 69 hlineto
          -252 -560 -7 -15 -1 -1 -24 -3 rlinecurve
          hintmask 1000000000000000
          -2 -17 -18 -1 -17 hhcurveto
          -23 -52 hlineto
          hintmask 0100000000000000
          3 49 31 0 46 hhcurveto
          hintmask 1011001001000000
          136 -3 rlineto
          52 vlineto
          -29 -29 0 9 -29 hvcurveto
          5 15 103 228 rlineto
          183 -252 -81 -52 593 hlineto
          -512 356 rmoveto
          -159 hlineto
          125 278 rlineto
          34 hlineto
          hintmask 0000110000000000
          206 202 -105 callsubr
        </CharString>
        <CharString name="Aacute">
          -39 callsubr
          81 -21 173 -20 hstemhm
          -107 callsubr
          hintmask 00001100
          206 314 -105 callsubr
        </CharString>
        <CharString name="Abreve">
          -39 callsubr
          60 124 callgsubr
          hstemhm
          -107 callsubr
          hintmask 00001100
          233 406 -102 callgsubr
          endchar
        </CharString>
        <CharString name="Abreveacute">
          -39 callsubr
          60 69 326 -20 hstemhm
          -107 callsubr
          hintmask 00001100
          233 406 -102 callgsubr
          -69 130 -105 callsubr
        </CharString>
        <CharString name="Abrevedotbelow">
          101 callgsubr
          60 69 118 -55 callgsubr
          hintmask 01010110
          38 67 0 -3 63 hvcurveto
          -336 243 rmoveto
          -242 hlineto
          121 279 rlineto
          233 406 -102 callgsubr
          hintmask 10000001
          -110 -1048 -103 callgsubr
        </CharString>
        <CharString name="Abrevegrave">
          -39 callsubr
          60 124 callgsubr
          hstemhm
          -107 callsubr
          hintmask 00001100
          233 406 -102 callgsubr
          -66 85 -68 callgsubr
        </CharString>
        <CharString name="Abrevehookabove">
          -39 callsubr
          60 69 326 -20 hstemhm
          -107 callsubr
          hintmask 00001100
          233 406 -102 callgsubr
          -72 144 -107 callgsubr
        </CharString>
        <CharString name="Abrevetilde">
          -39 callsubr
          60 69 173 125 callgsubr
          -107 callsubr
          hintmask 00001010
          233 406 -102 callgsubr
          13 147 rmoveto
          -30 30 rlineto
          hintmask 00000100
          -88 callsubr
          hintmask 00000010
          -96 callsubr
          hintmask 00000100
          30 -30 rlineto
          hintmask 00000010
          -87 callgsubr
          hintmask 00000100
          -97 callgsubr
        </CharString>
        <CharString name="Acaron">
          -39 callsubr
          71 -21 165 -20 hstemhm
          -107 callsubr
          hintmask 00001100
          217 350 -65 callsubr
        </CharString>
        <CharString name="Acircumflex">
          -39 callsubr
          71 -21 165 -20 hstemhm
          -107 callsubr
          hintmask 00001100
          217 233 -56 callgsubr
        </CharString>
        <CharString name="Acircumflexacute">
          -39 callsubr
          71 -21 373 -20 hstemhm
          -107 callsubr
          hintmask 00001100
          217 233 -63 callgsubr
        </CharString>
        <CharString name="Acircumflexdotbelow">
          101 callgsubr
          71 -21 165 -55 callgsubr
          hintmask 01010110
          38 67 0 -3 63 hvcurveto
          -336 243 rmoveto
          -242 hlineto
          121 279 rlineto
          217 233 -98 callsubr
          hintmask 10000001
          -78 -851 -103 callgsubr
        </CharString>
        <CharString name="Acircumflexgrave">
          -39 callsubr
          71 -21 165 -20 hstemhm
          -107 callsubr
          hintmask 00001100
          217 233 -61 callsubr
        </CharString>
        <CharString name="Acircumflexhookabove">
          -39 callsubr
          71 -21 373 -20 hstemhm
          -107 callsubr
          hintmask 00001100
          217 233 -98 callsubr
          79 309 -107 callgsubr
        </CharString>
        <CharString name="Acircumflextilde">
          -39 callsubr
          71 -21 220 125 callgsubr
          -107 callsubr
          hintmask 00001010
          217 233 -98 callsubr
          45 312 rmoveto
          -30 30 rlineto
          hintmask 00000100
          -88 callsubr
          hintmask 00000010
          -96 callsubr
          hintmask 00000100
          30 -30 rlineto
          hintmask 00000010
          -87 callgsubr
          hintmask 00000100
          -97 callgsubr
        </CharString>
        <CharString name="Adblgrave">
          -39 callsubr
          81 -21 200 -20 hstemhm
          -107 callsubr
          hintmask 00001100
          168 252 -97 callsubr
        </CharString>
        <CharString name="Adieresis">
          -39 callsubr
          50 144 hstemhm
          232 39 callsubr
          -107 callsubr
          hintmask 00001110
          -42 281 -84 callsubr
        </CharString>
        <CharString name="Adotbelow">
          922 -200 160 40 52 -49 52 136 52 458 -55 callgsubr
          hintmask 01010000
          38 67 0 -3 63 hvcurveto
          -336 243 rmoveto
          -242 hlineto
          121 279 rlineto
          hintmask 10000100
          123 -642 -103 callgsubr
        </CharString>
        <CharString name="Agrave">
          -39 callsubr
          81 -21 173 -20 hstemhm
          -107 callsubr
          hintmask 00001100
          125 269 -80 callsubr
        </CharString>
        <CharString name="Ahookabove">
          -39 callsubr
          85 -21 193 -20 hstemhm
          -107 callsubr
          hintmask 00001100
          161 352 -107 callgsubr
        </CharString>
        <CharString name="Alpha">
          -39 callsubr
          hstemhm
          -107 callsubr
          endchar
        </CharString>
        <CharString name="Amacron">
          -39 callsubr
          70 58 hstemhm
          -107 callsubr
          hintmask 00001000
          263 229 -29 callsubr
        </CharString>
        <CharString name="Aogonek">
          922 -212 85 127 -26 callsubr
          -20 hstemhm
          45 262 hintmask 01001000
          876 hmoveto
          52 -98 vlineto
          -270 623 rlineto
          26 -11 -15 0 -21 hhcurveto
          -22 -15 0 -26 -11 hvcurveto
          -261 -601 rlineto
          hintmask 00100000
          -7 -15 -1 -1 -24 -3 rrcurveto
          hintmask 01000100
          -3 -26 -2 0 -23 hhcurveto
          -24 -52 hlineto
          hintmask 00100000
          3 51 29 0 46 hhcurveto
          hintmask 01010100
          136 -3 rlineto
          52 vlineto
          -27 -32 0 9 -29 hvcurveto
          5 14 51 116 rlineto
          287 hlineto
          61 -139 rlineto
          -93 -52 hlineto
          hintmask 10100000
          2 29 65 1 48 hhcurveto
          -37 -30 -18 -38 44 callsubr
          77 53 79 hvcurveto
          hintmask 01010000
          -214 240 rmoveto
          -242 hlineto
          121 279 rlineto
          endchar
        </CharString>
        <CharString name="Aogonekacute">
          922 -212 85 127 -26 callsubr
          -20 81 -21 173 -20 hstemhm
          45 262 hintmask 01001000
          876 hmoveto
          52 -98 vlineto
          -270 623 rlineto
          26 -11 -15 0 -21 hhcurveto
          -22 -15 0 -26 -11 hvcurveto
          -261 -601 rlineto
          hintmask 00100000
          -7 -15 -1 -1 -24 -3 rrcurveto
          hintmask 01000001
          -3 -26 -2 0 -23 hhcurveto
          -24 -52 hlineto
          hintmask 00100000
          3 51 29 0 46 hhcurveto
          hintmask 01010001
          136 -3 rlineto
          52 vlineto
          -27 -32 0 9 -29 hvcurveto
          5 14 51 116 rlineto
          287 hlineto
          61 -139 rlineto
          -93 -52 hlineto
          hintmask 10100000
          2 29 65 1 48 hhcurveto
          -37 -30 -18 -38 44 callsubr
          77 53 79 hvcurveto
          hintmask 01010000
          -214 240 rmoveto
          -242 hlineto
          121 279 rlineto
          hintmask 00000110
          206 314 -105 callsubr
        </CharString>
        <CharString name="Aring">
          -46 callsubr
          47 74 47 hstemhm
          330 64 134 64 -107 callsubr
          hintmask 00011110
          109 263 -59 callgsubr
        </CharString>
        <CharString name="Aringacute">
          -46 callsubr
          47 74 47 83 47 78 -20 hstemhm
          330 64 134 64 hintmask 1001000000000000
          876 hmoveto
          52 -98 vlineto
          -270 623 rlineto
          26 -11 -15 0 -21 hhcurveto
          -22 -15 0 -26 -11 hvcurveto
          -261 -601 rlineto
          hintmask 0100000000000000
          -7 -15 -1 -1 -24 -3 rrcurveto
          hintmask 1000000000000000
          -3 -26 -2 0 -23 hhcurveto
          -24 -52 hlineto
          hintmask 0100000000000000
          3 51 29 0 46 hhcurveto
          hintmask 1010000000000000
          136 -3 rlineto
          52 vlineto
          -27 -32 0 9 -29 hvcurveto
          5 14 51 116 rlineto
          287 hlineto
          61 -139 rlineto
          -93 -52 hlineto
          hintmask 0100000000000000
          3 37 99 0 42 hhcurveto
          hintmask 1010000000000000
          38 67 0 -3 63 hvcurveto
          -336 243 rmoveto
          -242 hlineto
          121 279 rlineto
          hintmask 0001111110000000
          109 263 -87 callsubr
          -9 215 -105 callsubr
        </CharString>
        <CharString name="Atilde">
          -39 callsubr
          50 125 callgsubr
          -107 callsubr
          hintmask 00000100
          246 301 rmoveto
          -30 30 rlineto
          hintmask 00001000
          -88 callsubr
          hintmask 00000100
          -96 callsubr
          hintmask 00001000
          30 -30 rlineto
          hintmask 00000100
          -87 callgsubr
          hintmask 00001000
          -97 callgsubr
        </CharString>
        <CharString name="B">
          -23 callgsubr
        </CharString>
        <CharString name="Beta">
          -23 callgsubr
        </CharString>
        <CharString name="C">
          60 callgsubr
          hstem
          68 160 530 58 vstem
          -90 callsubr
          -196 149 -161 277 197 125 119 122 hvcurveto
          endchar
        </CharString>
        <CharString name="Cacute">
          60 callgsubr
          109 callsubr
          530 58 hintmask 11001100
          -90 callsubr
          -196 149 -161 277 197 125 119 122 hvcurveto
          hintmask 00110000
          -165 609 -105 callsubr
        </CharString>
        <CharString name="Ccaron">
          60 callgsubr
          108 callsubr
          530 58 hintmask 11001100
          -90 callsubr
          -196 149 -161 277 197 125 119 122 hvcurveto
          hintmask 00110000
          -154 645 -65 callsubr
        </CharString>
        <CharString name="Ccedilla">
          60 callgsubr
          hstem
          68 160 530 58 vstem
          -90 callsubr
          -180 126 -151 237 -23 hvcurveto
          -87 vlineto
          37 -18 callgsubr
          50 -52 29 -55 hvcurveto
          31 vlineto
          168 17 105 109 112 vvcurveto
          endchar
        </CharString>
        <CharString name="Ccircumflex">
          60 callgsubr
          108 callsubr
          530 58 hintmask 11001100
          -90 callsubr
          -196 149 -161 277 197 125 119 122 hvcurveto
          hintmask 00110000
          -154 528 -56 callgsubr
        </CharString>
        <CharString name="Cdotaccent">
          60 callgsubr
          45 160 hstemhm
          68 160 179 161 190 58 hintmask 11010100
          -90 callsubr
          -196 149 -161 277 197 125 119 122 hvcurveto
          hintmask 00101000
          -248 598 -103 callgsubr
        </CharString>
        <CharString name="Chi">
          -50 callgsubr
        </CharString>
        <CharString name="D">
          938 0 52 582 93 callsubr
          417 154 vstem
          -21 callgsubr
          endchar
        </CharString>
        <CharString name="Dcaron">
          938 122 callgsubr
          66 callgsubr
          155 143 417 154 hintmask 11001100
          -21 callgsubr
          hintmask 00110000
          -162 533 -65 callsubr
        </CharString>
        <CharString name="Dcroat">
          -10 callgsubr
        </CharString>
        <CharString name="Ddotbelow">
          938 13 callgsubr
          582 52 hstemhm
          155 143 0 161 256 154 hintmask 01110100
          869 337 rmoveto
          217 -157 132 -212 vhcurveto
          -453 -52 108 -582 -108 -52 454 hlineto
          213 155 128 209 hvcurveto
          -154 2 rmoveto
          hintmask 01101100
          -97 0 -190 -256 vhcurveto
          -161 582 160 hlineto
          257 0 -199 -96 hvcurveto
          hintmask 10010000
          -256 -459 rmoveto
          -35 callsubr
          -45 -36 -36 -44 -45 38 -35 42 vhcurveto
          hintmask 00001000
          45 36 36 44 hvcurveto
          endchar
        </CharString>
        <CharString name="Delta">
          1021 0 128 573 -20 hstem
          958 19 rmoveto
          -392 654 rlineto
          28 -17 -16 0 -20 hhcurveto
          -6 hlineto
          -27 -10 -3 -25 -15 hvcurveto
          -393 -654 rlineto
          -19 7 0 21 vhcurveto
          840 hlineto
          21 7 0 19 hvcurveto
          -239 109 rmoveto
          -514 hlineto
          257 428 rlineto
          endchar
        </CharString>
        <CharString name="Dlinebelow">
          938 -149 58 91 52 582 52 hstemhm
          155 143 417 154 hintmask 01111000
          -21 callgsubr
          hintmask 10000000
          -116 -488 -29 callsubr
        </CharString>
        <CharString name="E">
          -11 callgsubr
        </CharString>
        <CharString name="Eacute">
          -28 callgsubr
          82 -21 173 -20 -99 callsubr
          hintmask 0000110000000000
          -154 836 -105 callsubr
        </CharString>
        <CharString name="Ebreve">
          -28 callgsubr
          61 124 callgsubr
          -99 callsubr
          hintmask 0000110000000000
          -127 928 -102 callgsubr
          endchar
        </CharString>
        <CharString name="Ecaron">
          -28 callgsubr
          72 -21 165 -20 -99 callsubr
          hintmask 0000110000000000
          -143 872 -65 callsubr
        </CharString>
        <CharString name="Ecircumflex">
          -28 callgsubr
          72 -21 165 -20 -99 callsubr
          hintmask 0000110000000000
          -143 74 callsubr
        </CharString>
        <CharString name="Ecircumflexacute">
          -28 callgsubr
          72 -21 373 -20 -99 callsubr
          hintmask 0000110100000000
          -143 755 -63 callgsubr
        </CharString>
        <CharString name="Ecircumflexdotbelow">
          803 -200 160 40 -22 callsubr
          72 78 callgsubr
          17 161 -7 56 147 56 -22 56 hintmask 0110000101010000
          768 275 123 callgsubr
          -24 -36 -80 -182 hhcurveto
          -166 275 60 hlineto
          94 17 -35 -80 hvcurveto
          56 282 -56 hlineto
          hintmask 0101100100100000
          -80 -17 -35 -94 vhcurveto
          -60 249 163 hlineto
          144 49 -49 -142 18 hvcurveto
          56 hlineto
          -33 243 rlineto
          -654 -29 callgsubr
          672 hlineto
          hintmask 0010011000010000
          -143 755 -98 callsubr
          hintmask 1000000010000000
          -78 -851 -103 callgsubr
        </CharString>
        <CharString name="Ecircumflexgrave">
          -28 callgsubr
          72 -21 165 -20 -99 callsubr
          hintmask 0000110000000000
          -143 755 -61 callsubr
        </CharString>
        <CharString name="Ecircumflexhookabove">
          -28 callgsubr
          72 -21 373 -20 -99 callsubr
          hintmask 0000110000000000
          -143 755 -98 callsubr
          79 309 -107 callgsubr
        </CharString>
        <CharString name="Ecircumflextilde">
          -28 callgsubr
          72 -21 220 82 -42 82 -34 callgsubr
          hintmask 1100000110100000
          768 275 123 callgsubr
          -24 -36 -80 -182 hhcurveto
          -166 275 60 hlineto
          94 17 -35 -80 hvcurveto
          56 282 -56 hlineto
          hintmask 1011000101000000
          -80 -17 -35 -94 vhcurveto
          -60 249 163 hlineto
          144 49 -49 -142 18 hvcurveto
          56 hlineto
          -33 243 rlineto
          -654 -29 callgsubr
          672 hlineto
          hintmask 0100000000100000
          hintmask 0000101000000000
          -143 755 -98 callsubr
          45 312 rmoveto
          -30 30 rlineto
          hintmask 0000010000000000
          -88 callsubr
          hintmask 0000001000000000
          -96 callsubr
          hintmask 0000010000000000
          30 -30 rlineto
          hintmask 0000001000000000
          -87 callgsubr
          hintmask 0000010000000000
          -97 callgsubr
        </CharString>
        <CharString name="Edblgrave">
          -28 callgsubr
          82 -21 200 -20 -99 callsubr
          hintmask 0000110000000000
          -158 774 -97 callsubr
        </CharString>
        <CharString name="Edieresis">
          -28 callgsubr
          51 144 -40 callsubr
          -132 145 158 56 -45 145 47 56 -22 56 hintmask 1100010100100000
          768 275 123 callgsubr
          -24 -36 -80 -182 hhcurveto
          -166 275 60 hlineto
          94 17 -35 -80 hvcurveto
          56 282 -56 hlineto
          hintmask 1011010001000000
          -80 -17 -35 -94 vhcurveto
          -60 249 163 hlineto
          144 49 -49 -142 18 hvcurveto
          56 hlineto
          -33 243 rlineto
          -654 -29 callgsubr
          672 hlineto
          hintmask 0100000000100000
          hintmask 0000101010000000
          -402 803 -84 callsubr
        </CharString>
        <CharString name="Edotaccent">
          -28 callgsubr
          65 160 -40 callsubr
          17 161 -7 56 147 56 -22 56 hintmask 1100010101000000
          768 275 123 callgsubr
          -24 -36 -80 -182 hhcurveto
          -166 275 60 hlineto
          94 17 -35 -80 hvcurveto
          56 282 -56 hlineto
          hintmask 1011010010000000
          -80 -17 -35 -94 vhcurveto
          -60 249 163 hlineto
          144 49 -49 -142 18 hvcurveto
          56 hlineto
          -33 243 rlineto
          -654 -29 callgsubr
          672 hlineto
          hintmask 0100000001000000
          hintmask 0000101000000000
          -237 825 -103 callgsubr
        </CharString>
        <CharString name="Edotbelow">
          803 -200 160 40 -22 callsubr
          -40 callsubr
          17 161 -7 56 147 56 -22 56 hintmask 0110010101000000
          768 275 123 callgsubr
          -24 -36 -80 -182 hhcurveto
          -166 275 60 hlineto
          94 17 -35 -80 hvcurveto
          56 282 -56 hlineto
          hintmask 0101110010000000
          -80 -17 -35 -94 vhcurveto
          -60 249 163 hlineto
          144 49 -49 -142 18 hvcurveto
          56 hlineto
          -33 243 rlineto
          -654 -29 callgsubr
          672 hlineto
          hintmask 0010000001000000
          hintmask 1000001000000000
          -237 -120 -103 callgsubr
        </CharString>
        <CharString name="Egrave">
          -28 callgsubr
          82 -21 173 -20 -99 callsubr
          hintmask 0000110000000000
          -235 791 -80 callsubr
        </CharString>
        <CharString name="Ehookabove">
          -28 callgsubr
          86 -21 193 -20 -99 callsubr
          hintmask 0000110000000000
          -199 874 -107 callgsubr
        </CharString>
        <CharString name="Emacron">
          -28 callgsubr
          71 58 -34 callgsubr
          hintmask 1100011010000000
          768 275 123 callgsubr
          -24 -36 -80 -182 hhcurveto
          -166 275 60 hlineto
          94 17 -35 -80 hvcurveto
          56 282 -56 hlineto
          hintmask 1011010100000000
          -80 -17 -35 -94 vhcurveto
          -60 249 163 hlineto
          144 49 -49 -142 18 hvcurveto
          56 hlineto
          -33 243 rlineto
          -654 -29 callgsubr
          672 hlineto
          hintmask 0100000010000000
          hintmask 0000100000000000
          -97 751 -29 callsubr
        </CharString>
        <CharString name="Eng">
          955 -14 136 522 56 hstem
          -34 callsubr
          421 160 vstem
          885 343 rmoveto
          198 -162 159 -198 -82 -79 -22 -42 -60 vhcurveto
          50 vlineto
          -2 -25 -24 -1 -25 hhcurveto
          -43 -108 0 3 -37 hvcurveto
          -52 113 -582 -113 -52 vlineto
          3 37 107 0 43 hhcurveto
          43 108 141 callgsubr
          -113 516 vlineto
          50 51 84 26 86 hhcurveto
          134 66 -150 -151 -92 0 -107 -28 -58 hvcurveto
          21 -12 -22 15 -26 hhcurveto
          -38 -30 -30 -38 -38 30 -30 38 161 87 177 180 hvcurveto
          endchar
        </CharString>
        <CharString name="Eogonek">
          803 -212 85 127 -22 callsubr
          -34 callgsubr
          hintmask 0110011010000000
          768 275 123 callgsubr
          -24 -36 -80 -182 hhcurveto
          -166 275 60 hlineto
          94 17 -35 -80 hvcurveto
          56 282 -56 hlineto
          hintmask 1101110100000000
          -80 -17 -35 -94 vhcurveto
          -60 249 163 hlineto
          144 49 -49 -142 18 hvcurveto
          56 hlineto
          -33 243 rlineto
          -654 -29 callgsubr
          475 hlineto
          -36 -27 -19 -38 -41 -53 callgsubr
          -50 -37 71 56 74 hvcurveto
          114 hlineto
          hintmask 0010000010000000
          endchar
        </CharString>
        <CharString name="Eogonekacute">
          803 -212 85 127 -22 callsubr
          82 -21 173 -20 -34 callgsubr
          hintmask 0110000110100000
          768 275 123 callgsubr
          -24 -36 -80 -182 hhcurveto
          -166 275 60 hlineto
          94 17 -35 -80 hvcurveto
          56 282 -56 hlineto
          hintmask 1101100101000000
          -80 -17 -35 -94 vhcurveto
          -60 249 163 hlineto
          144 49 -49 -142 18 hvcurveto
          56 hlineto
          -33 243 rlineto
          -654 -29 callgsubr
          475 hlineto
          -36 -27 -19 -38 -41 -53 callgsubr
          -50 -37 71 56 74 hvcurveto
          114 hlineto
          hintmask 0010000000100000
          hintmask 0000011000000000
          -154 836 -105 callsubr
        </CharString>
        <CharString name="Epsilon">
          -11 callgsubr
        </CharString>
        <CharString name="Ereversed">
          -28 callgsubr
          hstemhm
          47 56 -22 56 147 56 171 149 hintmask 10110111
          768 hmoveto
          52 -108 576 108 52 -654 vlineto
          -33 -243 rlineto
          56 hlineto
          142 18 49 49 144 hhcurveto
          163 -249 -60 hlineto
          -94 -17 35 80 hvcurveto
          -56 -282 56 hlineto
          80 17 35 94 vhcurveto
          60 -275 -166 hlineto
          hintmask 11001000
          -182 -36 80 143 -24 hvcurveto
          -56 hlineto
          49 -275 rlineto
          endchar
        </CharString>
        <CharString name="Eta">
          955 0 52 279 52 251 52 hstem
          155 149 346 149 vstem
          -92 callgsubr
          endchar
        </CharString>
        <CharString name="Eth">
          -10 callgsubr
        </CharString>
        <CharString name="Etilde">
          -28 callgsubr
          51 82 -42 82 -99 callsubr
          hintmask 0000010000000000
          -114 823 rmoveto
          -30 30 rlineto
          hintmask 0000100000000000
          -88 callsubr
          hintmask 0000010000000000
          -96 callsubr
          hintmask 0000100000000000
          30 -30 rlineto
          hintmask 0000010000000000
          -87 callgsubr
          hintmask 0000100000000000
          -97 callgsubr
        </CharString>
        <CharString name="Euro">
          767 -14 52 215 52 76 52 215 52 hstem
          136 160 vstem
          699 3 rmoveto
          134 vlineto
          9 -8 8 -9 vhcurveto
          -32 hlineto
          -9 -7 -6 -8 -1 hvcurveto
          -60 -8 -55 -42 -61 hhcurveto
          -65 -63 26 53 -38 hvcurveto
          -28 40 -12 47 -4 49 rrcurveto
          257 hlineto
          146 callgsubr
          3 -9 8 -11 hhcurveto
          -266 38 hlineto
          38 303 vlineto
          146 callgsubr
          2 -9 8 -10 hhcurveto
          -306 hlineto
          4 49 12 47 28 40 rrcurveto
          53 38 63 26 65 hhcurveto
          61 55 -42 -59 8 hvcurveto
          -9 1 7 -6 9 hhcurveto
          32 hlineto
          9 8 8 9 hvcurveto
          134 vlineto
          9 -8 8 -9 vhcurveto
          -10 hlineto
          -3 -3 -1 -1 -3 hvcurveto
          -48 -30 rlineto
          21 -37 -45 11 -46 hhcurveto
          -95 -94 -30 -68 -66 hvcurveto
          -46 -46 -28 -60 -13 -63 rrcurveto
          -57 102 callsubr
          56 hlineto
          -1 -13 -1 -12 -13 vvcurveto
          -13 1 -12 1 -13 vhcurveto
          -50 102 callsubr
          63 hlineto
          13 -63 28 -60 46 -46 rrcurveto
          -68 66 94 -30 95 hhcurveto
          46 45 11 21 37 hvcurveto
          48 -29 rlineto
          -2 3 3 -1 3 hhcurveto
          10 hlineto
          9 8 8 9 hvcurveto
          endchar
        </CharString>
        <CharString name="F">
          769 0 52 262 52 262 52 -40 callsubr
          0 56 108 56 137 56 cntrmask 11100000
          hintmask 11110000
          717 437 rmoveto
          -33 243 rlineto
          -637 63 callgsubr
          262 vlineto
          hintmask 11101110
          56 hlineto
          96 12 -40 -75 hvcurveto
          56 282 -56 hlineto
          -75 -12 -40 -96 vhcurveto
          -56 262 153 hlineto
          150 37 -61 -130 17 hvcurveto
          endchar
        </CharString>
        <CharString name="G">
          50 callgsubr
          hstem
          68 160 439 149 vstem
          -101 callsubr
          endchar
        </CharString>
        <CharString name="Gacute">
          50 callgsubr
          109 callsubr
          439 149 hintmask 11100110
          -101 callsubr
          hintmask 00011000
          -171 612 -105 callsubr
        </CharString>
        <CharString name="Gamma">
          735 0 52 576 65 callsubr
          vstem
          683 437 rmoveto
          -33 243 rlineto
          -603 63 callgsubr
          576 127 vlineto
          157 24 -74 -117 15 hvcurveto
          endchar
        </CharString>
        <CharString name="Gbreve">
          50 callgsubr
          41 124 callgsubr
          hstemhm
          68 160 439 149 hintmask 11100110
          -101 callsubr
          hintmask 00011000
          -144 704 -102 callgsubr
          endchar
        </CharString>
        <CharString name="Gcaron">
          50 callgsubr
          108 callsubr
          439 149 hintmask 11100110
          -101 callsubr
          hintmask 00011000
          -160 648 -65 callsubr
        </CharString>
        <CharString name="Gcedilla">
          962 -14 callgsubr
          28 59 callsubr
          hstem
          68 160 439 149 vstem
          -101 callsubr
          -269 -361 rmoveto
          -100 callsubr
        </CharString>
        <CharString name="Gcircumflex">
          50 callgsubr
          108 callsubr
          439 149 hintmask 11100110
          -101 callsubr
          hintmask 00011000
          -160 531 -56 callgsubr
        </CharString>
        <CharString name="Gcommaaccent">
          962 -14 callgsubr
          28 59 callsubr
          hstemhm
          68 160 439 149 hintmask 00111110
          -101 callsubr
          hintmask 11000000
          -269 -361 rmoveto
          -100 callsubr
        </CharString>
        <CharString name="Gdotaccent">
          50 callgsubr
          45 160 hstemhm
          68 160 173 161 105 149 hintmask 11101010
          -101 callsubr
          hintmask 00010100
          -254 601 -103 callgsubr
        </CharString>
        <CharString name="H">
          955 0 52 279 52 251 52 hstem
          155 149 346 149 vstem
          -92 callgsubr
          endchar
        </CharString>
        <CharString name="H_uni0303">
          100 callgsubr
          45 120 callgsubr
          346 149 hintmask 11100110
          -92 callgsubr
          hintmask 00001000
          -226 823 -98 callgsubr
        </CharString>
        <CharString name="Hbar">
          71 callsubr
          106 52 93 98 callsubr
          437 108 52 -108 93 108 52 vlineto
          -3 -38 -101 0 -43 hhcurveto
          -44 -101 0 3 -38 hvcurveto
          -52 108 -93 -346 93 108 52 vlineto
          -3 -38 -101 0 -43 hhcurveto
          -44 -101 0 3 -38 hvcurveto
          -52 108 -93 -108 -52 108 -437 -56 callsubr
          279 346 -279 -71 callgsubr
          -257 383 rmoveto
          -346 106 346 hlineto
          endchar
        </CharString>
        <CharString name="Hbrevebelow">
          955 -213 124 callgsubr
          46 52 279 52 251 52 -40 callsubr
          346 149 hintmask 00111110
          -92 callgsubr
          hintmask 11000000
          -239 -26 -102 callgsubr
          endchar
        </CharString>
        <CharString name="Hcircumflex">
          100 callgsubr
          66 78 callgsubr
          346 149 hintmask 11100110
          -92 callgsubr
          hintmask 00011000
          -255 74 callsubr
        </CharString>
        <CharString name="Hdieresis">
          100 callgsubr
          45 144 -40 callsubr
          -56 39 callsubr
          -57 149 hintmask 11101001
          -92 callgsubr
          hintmask 00010110
          -514 803 -84 callsubr
        </CharString>
        <CharString name="Hdotbelow">
          955 13 callgsubr
          279 52 251 52 -40 callsubr
          93 161 92 149 hintmask 01111010
          -92 callgsubr
          hintmask 10000100
          -349 -120 -103 callgsubr
        </CharString>
        <CharString name="I">
          43 callgsubr
          hstem
          155 149 vstem
          -96 callgsubr
          endchar
        </CharString>
        <CharString name="I_J">
          1044 -14 42 -28 52 -5 148 439 52 -40 callsubr
          134 112 callsubr
          hintmask 01011010
          -96 callgsubr
          552 -27 callgsubr
          -168 -3 rlineto
          -44 -115 0 3 -37 hvcurveto
          -52 140 -485 vlineto
          hintmask 10110110
          -87 -46 -34 -58 -8 -36 0 16 -36 vhcurveto
          25 15 14 26 29 vvcurveto
          48 -34 33 -47 -47 -34 -33 -48 -79 79 -49 129 145 97 60 104 vhcurveto
          484 vlineto
          endchar
        </CharString>
        <CharString name="Iacute">
          43 callgsubr
          76 -21 173 -20 -83 callsubr
          hintmask 00110000
          -24 836 -105 callsubr
        </CharString>
        <CharString name="Ibreve">
          43 callgsubr
          55 124 callgsubr
          -83 callsubr
          hintmask 00110000
          3 928 -102 callgsubr
          endchar
        </CharString>
        <CharString name="Icaron">
          43 callgsubr
          66 -21 165 -20 -83 callsubr
          hintmask 00110000
          -13 872 -65 callsubr
        </CharString>
        <CharString name="Icircumflex">
          43 callgsubr
          66 -21 165 -20 -83 callsubr
          hintmask 00110000
          -13 74 callsubr
        </CharString>
        <CharString name="Idblgrave">
          43 callgsubr
          76 -21 200 -20 -83 callsubr
          hintmask 00110000
          -28 774 -97 callsubr
        </CharString>
        <CharString name="Idieresis">
          43 callgsubr
          45 144 hstemhm
          0 145 10 149 10 145 hintmask 11001000
          -96 callgsubr
          hintmask 00110100
          -272 803 -84 callsubr
        </CharString>
        <CharString name="Idieresisacute">
          43 callgsubr
          45 144 87 -21 173 -20 hstemhm
          0 145 10 149 10 145 hintmask 11000010
          -96 callgsubr
          hintmask 00111101
          -272 803 rmoveto
          -104 callsubr
          314 hmoveto
          -104 callsubr
          -66 233 -105 callsubr
        </CharString>
        <CharString name="Idotaccent">
          43 callgsubr
          59 160 hstemhm
          149 161 -155 -81 callsubr
          hintmask 00110000
          -107 825 -103 callgsubr
        </CharString>
        <CharString name="Idotbelow">
          459 13 callgsubr
          582 52 hstemhm
          149 161 -155 149 hintmask 01101000
          -96 callgsubr
          hintmask 10010000
          -107 -120 -103 callgsubr
        </CharString>
        <CharString name="Igrave">
          43 callgsubr
          76 -21 173 -20 -83 callsubr
          hintmask 00110000
          -105 791 -80 callsubr
        </CharString>
        <CharString name="Ihookabove">
          43 callgsubr
          80 -21 193 -20 -83 callsubr
          hintmask 00110000
          -69 874 -107 callgsubr
        </CharString>
        <CharString name="Imacron">
          43 callgsubr
          65 130 callsubr
          hintmask 11010000
          -96 callgsubr
          hintmask 00100000
          33 751 -29 callsubr
        </CharString>
        <CharString name="Imacron.alt">
          43 callgsubr
          65 130 callsubr
          hintmask 11010000
          -96 callgsubr
          hintmask 00100000
          -69 751 38 callsubr
        </CharString>
        <CharString name="Iogonek">
          137 callgsubr
          hstem
          155 149 vstem
          417 hmoveto
          52 -113 582 113 52 vlineto
          -3 -37 -107 0 -43 hhcurveto
          -43 -108 0 3 -37 hvcurveto
          -52 113 -582 -113 -52 vlineto
          3 37 107 0 43 hhcurveto
          11 hlineto
          -32 -30 -28 -43 -36 vvcurveto
          -51 callgsubr
          12 hvcurveto
          6 24 17 19 21 11 39 -1 39 0 19 -2 rrcurveto
          endchar
        </CharString>
        <CharString name="Iogonekacute">
          137 callgsubr
          76 107 callsubr
          hintmask 11100100
          417 hmoveto
          52 -113 582 113 52 vlineto
          -3 -37 -107 0 -43 hhcurveto
          -43 -108 0 3 -37 hvcurveto
          -52 113 -582 -113 -52 vlineto
          3 37 107 0 43 hhcurveto
          11 hlineto
          -32 -30 -28 -43 -36 vvcurveto
          -51 callgsubr
          12 hvcurveto
          6 24 17 19 21 11 39 -1 39 0 19 -2 rrcurveto
          hintmask 00011000
          -24 836 -105 callsubr
        </CharString>
        <CharString name="Iota">
          43 callgsubr
          hstem
          155 149 vstem
          -96 callgsubr
          endchar
        </CharString>
        <CharString name="Itilde">
          43 callgsubr
          45 82 -42 82 -83 callsubr
          hintmask 00010000
          16 823 rmoveto
          -30 30 rlineto
          hintmask 00100000
          -88 callsubr
          hintmask 00010000
          -96 callsubr
          hintmask 00100000
          30 -30 rlineto
          hintmask 00010000
          -87 callgsubr
          hintmask 00100000
          -97 callgsubr
        </CharString>
        <CharString name="J">
          100 callsubr
          hstem
          25 112 callsubr
          vstem
          -49 callgsubr
          endchar
        </CharString>
        <CharString name="J_uni030C.cap">
          631.25 -14 42 19 148 247 -21 145 120 -52 52 hstemhm
          25 112 callsubr
          hintmask 11001110
          -49 callgsubr
          257 -43 150 callgsubr
          hintmask 00110000
          -31 21 -29 39 14 14 3 9 10 vhcurveto
          -3 -37 -15 -50 -51 -40 rrcurveto
          -5 -4 -4 -3 -7 vvcurveto
          -7 9 -9 7 14 81 64 106 vhcurveto
          endchar
        </CharString>
        <CharString name="Jacute">
          100 callsubr
          76 -21 173 -20 hstemhm
          25 112 callsubr
          hintmask 11100110
          -49 callgsubr
          hintmask 00011000
          63 202 -105 callsubr
        </CharString>
        <CharString name="Jcircumflex">
          100 callsubr
          66 callgsubr
          25 112 callsubr
          hintmask 11100110
          -49 callgsubr
          hintmask 00011000
          74 121 -56 callgsubr
        </CharString>
        <CharString name="K">
          956 0 52 582 65 callsubr
          vstem
          -85 callgsubr
          endchar
        </CharString>
        <CharString name="Kappa">
          956 0 52 582 65 callsubr
          vstem
          -85 callgsubr
          endchar
        </CharString>
        <CharString name="Kcedilla">
          956 53 callgsubr
          hstem
          155 149 vstem
          -85 callgsubr
          -205 -140 rmoveto
          -100 callsubr
        </CharString>
        <CharString name="Kcommaaccent">
          956 53 callgsubr
          -40 callsubr
          hintmask 00111000
          -85 callgsubr
          hintmask 11000000
          -205 -140 rmoveto
          -100 callsubr
        </CharString>
        <CharString name="L">
          735 0 52 582 65 callsubr
          vstem
          -83 callgsubr
          endchar
        </CharString>
        <CharString name="L_uni0303">
          735 122 callgsubr
          45 120 callgsubr
          hintmask 11001000
          -83 callgsubr
          hintmask 00010000
          -209 823 rmoveto
          -30 30 rlineto
          hintmask 00100000
          -88 callsubr
          hintmask 00010000
          -96 callsubr
          hintmask 00100000
          30 -30 rlineto
          hintmask 00010000
          -87 callgsubr
          hintmask 00100000
          -97 callgsubr
        </CharString>
        <CharString name="Lacute">
          735 122 callgsubr
          76 107 callsubr
          hintmask 11001000
          -83 callgsubr
          hintmask 00111000
          -249 836 -105 callsubr
        </CharString>
        <CharString name="Lambda">
          854 0 52 -49 52 646 -20 hstemhm
          hintmask 10100000
          809 hmoveto
          52 -86 vlineto
          -249 621 rlineto
          28 -11 -15 0 -21 hhcurveto
          -30 -7 -4 -24 -10 hvcurveto
          -242 -600 rlineto
          hintmask 01000000
          -6 -15 -1 -1 -23 -2 rrcurveto
          hintmask 10000000
          -2 -15 -15 -1 -15 hhcurveto
          -19 -52 hlineto
          hintmask 01000000
          3 39 53 0 26 hhcurveto
          hintmask 10000000
          133 -3 rlineto
          52 vlineto
          -19 -40 0 8 -30 hvcurveto
          2 8 0 2 3 6 171 425 rcurveline
          180 -449 rlineto
          -93 -52 hlineto
          hintmask 01000000
          3 37 98 0 42 hhcurveto
          hintmask 10000000
          endchar
        </CharString>
        <CharString name="Lcaron">
          735 0 52 390 -21 145 120 -52 52 -40 callsubr
          hintmask 10011000
          -83 callgsubr
          -12 591 rmoveto
          25 callsubr
        </CharString>
        <CharString name="Lcedilla">
          735 53 callgsubr
          hstem
          155 149 vstem
          -83 callgsubr
          -217 -137 rmoveto
          -100 callsubr
        </CharString>
        <CharString name="Lcommaaccent">
          735 53 callgsubr
          -40 callsubr
          hintmask 00111000
          -83 callgsubr
          hintmask 11000000
          -217 -137 rmoveto
          -100 callsubr
        </CharString>
        <CharString name="Ldot">
          735 0 52 299 160 123 65 callsubr
          212 161 vstem
          -83 callgsubr
          27 431 -103 callgsubr
        </CharString>
        <CharString name="Ldotbelow">
          735 13 callgsubr
          582 52 -40 callsubr
          -17 161 hintmask 01110000
          -83 callgsubr
          hintmask 10001000
          -202 -120 -103 callgsubr
        </CharString>
        <CharString name="Ldotbelowmacron">
          735 13 callgsubr
          582 52 65 130 callsubr
          -17 161 hintmask 11101000
          -83 callgsubr
          -202 66 callsubr
          hintmask 00010000
          16 871 -29 callsubr
        </CharString>
        <CharString name="Lslash">
          735 0 52 582 49 -49 52 -40 callsubr
          hintmask 11010000
          683 275 rmoveto
          -56 hlineto
          -69 -8 -19 -154 -186 hhcurveto
          -110 327 hlineto
          196 135 -28 41 -168 -116 rlineto
          195 135 vlineto
          hintmask 00100000
          52 vlineto
          hintmask 01000000
          80 callgsubr
          -44 hhcurveto
          hintmask 10110000
          -44 -108 0 3 -38 hvcurveto
          -52 108 -298 vlineto
          -98 -68 28 -40 70 48 rlineto
          -224 -108 -52 603 vlineto
          endchar
        </CharString>
        <CharString name="M">
          -42 callsubr
        </CharString>
        <CharString name="Mdotbelow">
          1159 13 callgsubr
          -49 52 579 52 hstemhm
          158 62 279 161 210 130 hintmask 01011010
          1108 108 callgsubr
          -228 vlineto
          -23 -12 -1 -28 -14 hvcurveto
          -252 -527 -251 526 rlineto
          30 -14 -14 0 -22 hhcurveto
          -228 -52 108 -555 hlineto
          -21 -1 -1 -28 -3 vhcurveto
          -1 -13 -29 -1 -9 hhcurveto
          -28 -52 hlineto
          hintmask 00100000
          139 3 rlineto
          hintmask 01000000
          139 -3 rlineto
          52 -28 vlineto
          hintmask 00101000
          -26 -4 0 3 -23 hvcurveto
          -26 3 -1 1 20 vvcurveto
          540 1 vlineto
          281 -589 rlineto
          hintmask 01000010
          -18 9 10 -12 21 hhcurveto
          25 8 17 12 6 hvcurveto
          288 603 rlineto
          1 -580 -108 -52 hlineto
          hintmask 00100000
          3 41 87 0 45 hhcurveto
          hintmask 01000000
          45 87 0 -3 41 hvcurveto
          hintmask 10000100
          -448 -120 -103 callgsubr
        </CharString>
        <CharString name="Mu">
          -42 callsubr
        </CharString>
        <CharString name="N">
          -43 callgsubr
        </CharString>
        <CharString name="Nacute">
          955 27 callgsubr
          76 -21 173 -20 -75 callsubr
          hintmask 00001100
          -238 202 -105 callsubr
        </CharString>
        <CharString name="Ncaron">
          955 27 callgsubr
          66 -21 165 -20 -75 callsubr
          hintmask 00001100
          -227 238 -65 callsubr
        </CharString>
        <CharString name="Ncedilla">
          -32 callsubr
          hintmask 11100101
          -53 callsubr
          -336 -771 rmoveto
          -100 callsubr
        </CharString>
        <CharString name="Ncommaaccent">
          -32 callsubr
          hintmask 00100101
          -53 callsubr
          hintmask 11000000
          -336 -771 rmoveto
          -100 callsubr
        </CharString>
        <CharString name="Ndotaccent">
          955 27 callgsubr
          45 160 hstemhm
          155 62 180 161 179 62 hintmask 00010000
          907 -27 callgsubr
          hintmask 00100000
          -139 -3 rlineto
          hintmask 00010000
          -139 3 rlineto
          -52 28 vlineto
          hintmask 00100001
          -37 callsubr
          hintmask 10010100
          13 -13 -1 1 -21 hhcurveto
          -234 -62 callgsubr
          hintmask 01000101
          -31 callgsubr
          hintmask 00001010
          -321 177 -103 callgsubr
        </CharString>
        <CharString name="Ndotbelow">
          955 13 callgsubr
          -49 52 576 52 -49 52 hstemhm
          155 62 180 161 179 62 hintmask 00001000
          907 -27 callgsubr
          hintmask 00010000
          -139 -3 rlineto
          hintmask 00001000
          -139 3 rlineto
          -52 28 vlineto
          hintmask 00010001
          -37 callsubr
          hintmask 01001100
          14 callgsubr
          hintmask 00100000
          139 3 rlineto
          hintmask 01000000
          139 -3 rlineto
          52 -28 vlineto
          hintmask 00100101
          -36 callgsubr
          hintmask 01001001
          -53 callsubr
          hintmask 10000010
          -321 -754 -103 callgsubr
        </CharString>
        <CharString name="Ntilde">
          955 27 callgsubr
          45 82 -42 82 -75 callsubr
          hintmask 00000100
          -198 189 rmoveto
          -30 30 rlineto
          hintmask 00001000
          -88 callsubr
          hintmask 00000100
          -96 callsubr
          hintmask 00001000
          30 -30 rlineto
          hintmask 00000100
          -87 callgsubr
          hintmask 00001000
          -97 callgsubr
        </CharString>
        <CharString name="Nu">
          -43 callgsubr
        </CharString>
        <CharString name="O">
          11 callgsubr
          hstem
          139 callsubr
          vstem
          -106 callgsubr
          endchar
        </CharString>
        <CharString name="OE">
          -48 callsubr
        </CharString>
        <CharString name="OE.dup">
          -48 callsubr
        </CharString>
        <CharString name="Oacute">
          11 callgsubr
          109 callsubr
          463 160 hintmask 11001100
          -106 callgsubr
          hintmask 00110000
          -67 482 -105 callsubr
        </CharString>
        <CharString name="Obreve">
          11 callgsubr
          41 124 callgsubr
          hstemhm
          139 callsubr
          hintmask 11001100
          -106 callgsubr
          hintmask 00110000
          -40 574 -102 callgsubr
          endchar
        </CharString>
        <CharString name="Ocaron">
          11 callgsubr
          108 callsubr
          463 160 hintmask 11001100
          -106 callgsubr
          hintmask 00110000
          -56 518 -65 callsubr
        </CharString>
        <CharString name="Ocircumflex">
          11 callgsubr
          108 callsubr
          463 160 hintmask 11001100
          -106 callgsubr
          hintmask 00110000
          -56 401 -56 callgsubr
        </CharString>
        <CharString name="Ocircumflexacute">
          11 callgsubr
          52 -21 373 -20 hstemhm
          139 callsubr
          hintmask 11001100
          -106 callgsubr
          hintmask 00110000
          -56 401 -63 callgsubr
        </CharString>
        <CharString name="Ocircumflexdotbelow">
          920 140 callsubr
          49 618 47 52 -21 165 -20 128 callsubr
          hintmask 01111101
          -106 callgsubr
          -56 401 -98 callsubr
          hintmask 10000010
          -78 -851 -103 callgsubr
        </CharString>
        <CharString name="Ocircumflexgrave">
          11 callgsubr
          108 callsubr
          463 160 hintmask 11001100
          -106 callgsubr
          hintmask 00110000
          -56 401 -61 callsubr
        </CharString>
        <CharString name="Ocircumflexhookabove">
          11 callgsubr
          52 -21 373 -20 hstemhm
          139 callsubr
          hintmask 11001100
          -106 callgsubr
          hintmask 00110000
          -56 401 -98 callsubr
          79 309 -107 callgsubr
        </CharString>
        <CharString name="Ocircumflextilde">
          11 callgsubr
          52 -21 220 125 callgsubr
          139 callsubr
          hintmask 11000110
          -106 callgsubr
          hintmask 00101000
          -56 401 -98 callsubr
          45 312 -98 callgsubr
        </CharString>
        <CharString name="Odblgrave">
          11 callgsubr
          62 -21 200 -20 hstemhm
          139 callsubr
          hintmask 11001100
          -106 callgsubr
          hintmask 00110000
          -71 420 -97 callsubr
        </CharString>
        <CharString name="Odieresis">
          11 callgsubr
          31 144 hstemhm
          68 160 3 39 callsubr
          1 160 hintmask 11010010
          -106 callgsubr
          hintmask 00101100
          -315 449 -84 callsubr
        </CharString>
        <CharString name="Odotbelow">
          920 140 callsubr
          49 618 47 128 callsubr
          hintmask 01110100
          -106 callgsubr
          hintmask 10001000
          -150 -474 -103 callgsubr
        </CharString>
        <CharString name="Ograve">
          11 callgsubr
          109 callsubr
          463 160 hintmask 11001100
          -106 callgsubr
          hintmask 00110000
          -148 437 -80 callsubr
        </CharString>
        <CharString name="Ohookabove">
          11 callgsubr
          66 -21 193 -20 hstemhm
          139 callsubr
          hintmask 11001100
          -106 callgsubr
          hintmask 00110000
          -112 520 -107 callgsubr
        </CharString>
        <CharString name="Ohorn">
          920 -14 49 619 46 119 52 callsubr
          hintmask 11111000
          -86 callgsubr
          hintmask 11010100
          -73 callsubr
          endchar
        </CharString>
        <CharString name="Ohornacute">
          920 -14 49 619 46 62 -21 78 -20 115 52 callsubr
          hintmask 11010110
          -86 callgsubr
          hintmask 11000101
          -73 callsubr
          hintmask 00101000
          -100 479 -105 callsubr
        </CharString>
        <CharString name="Ohorndotbelow">
          920 140 callsubr
          49 619 46 119 -20 hstemhm
          68 160 152 161 122 123 callsubr
          hintmask 01111010
          -86 callgsubr
          hintmask 01101001
          -73 callsubr
          hintmask 10000100
          -149 -477 -103 callgsubr
        </CharString>
        <CharString name="Ohorngrave">
          920 -14 49 619 46 62 -21 78 -20 115 52 callsubr
          hintmask 11010110
          -86 callgsubr
          hintmask 11000101
          -73 callsubr
          hintmask 00101000
          -147 434 -80 callsubr
        </CharString>
        <CharString name="Ohornhookabove">
          920 -14 49 619 46 66 -21 74 -20 139 52 callsubr
          hintmask 11010110
          -86 callgsubr
          hintmask 11000101
          -73 callsubr
          hintmask 00101000
          -111 517 -107 callgsubr
        </CharString>
        <CharString name="Ohorntilde">
          920 -14 49 619 46 31 125 callgsubr
          68 160 435 123 callsubr
          hintmask 11001100
          -86 callgsubr
          hintmask 11001010
          -73 callsubr
          hintmask 00010000
          -26 466 rmoveto
          -30 30 rlineto
          hintmask 00100000
          -88 callsubr
          hintmask 00010000
          -96 callsubr
          hintmask 00100000
          30 -30 rlineto
          hintmask 00010000
          -87 callgsubr
          hintmask 00100000
          -97 callgsubr
        </CharString>
        <CharString name="Ohungarumlaut">
          11 callgsubr
          62 -21 200 -20 hstemhm
          139 callsubr
          hintmask 11001100
          -106 callgsubr
          hintmask 00110000
          -217 521 -82 callsubr
        </CharString>
        <CharString name="Omacron">
          11 callgsubr
          51 58 hstemhm
          139 callsubr
          hintmask 11011000
          -106 callgsubr
          hintmask 00100000
          -10 397 -29 callsubr
        </CharString>
        <CharString name="Omega">
          -49 callsubr
        </CharString>
        <CharString name="Omicron">
          11 callgsubr
          hstem
          139 callsubr
          vstem
          -106 callgsubr
          endchar
        </CharString>
        <CharString name="Oogonek">
          920 -12 47 618 47 hstem
          139 callsubr
          vstem
          -32 callgsubr
          endchar
        </CharString>
        <CharString name="Oogonekacute">
          920 -12 47 618 47 109 callsubr
          463 160 hintmask 11001100
          -32 callgsubr
          hintmask 00110000
          -67 482 -105 callsubr
        </CharString>
        <CharString name="Orogate">
          920 68 160 211 42 210 160 vstem
          851 339 rmoveto
          195 -129 157 -241 9 vhcurveto
          181 -42 -181 vlineto
          -238 -8 -133 -154 -199 vvcurveto
          -196 133 -149 238 -8 vhcurveto
          -180 42 180 vlineto
          242 9 128 154 190 vvcurveto
          -160 15 rmoveto
          -104 -14 -62 -33 -55 vhcurveto
          -64 -39 -71 -34 -74 hhcurveto
          -57 -81 18 88 -52 hvcurveto
          -40 68 -2 94 51 vvcurveto
          93 11 68 45 60 vhcurveto
          34 26 60 44 89 hhcurveto
          72 67 -29 -55 41 hvcurveto
          48 -65 4 -86 -64 vvcurveto
          endchar
        </CharString>
        <CharString name="Oslash">
          84 callgsubr
          hstem
          68 149 518 149 vstem
          -65 callgsubr
          endchar
        </CharString>
        <CharString name="Oslash.dup">
          84 callgsubr
          hstem
          68 149 518 149 vstem
          -65 callgsubr
          endchar
        </CharString>
        <CharString name="Oslashacute">
          84 callgsubr
          33 -21 173 -20 hstemhm
          68 149 518 149 hintmask 11110011
          -65 callgsubr
          hintmask 00001100
          -95 496 -105 callsubr
        </CharString>
        <CharString name="Otilde">
          11 callgsubr
          31 125 callgsubr
          139 callsubr
          hintmask 11001100
          -106 callgsubr
          hintmask 00010000
          -27 469 rmoveto
          -30 30 rlineto
          hintmask 00100000
          -88 callsubr
          hintmask 00010000
          -96 callsubr
          hintmask 00100000
          30 -30 rlineto
          hintmask 00010000
          -87 callgsubr
          hintmask 00100000
          -97 callgsubr
        </CharString>
        <CharString name="P">
          -8 callgsubr
        </CharString>
        <CharString name="Phi">
          885 0 52 104 44 286 44 104 52 hstem
          68 154 146 136 158 154 vstem
          816 343 rmoveto
          113 -151 67 -161 6 vhcurveto
          105 75 callgsubr
          -105 vlineto
          -180 -13 -120 -74 -99 vvcurveto
          -99 120 -74 180 -13 vhcurveto
          -105 68 callsubr
          161 6 151 67 113 vvcurveto
          -448 -143 rmoveto
          -119 14 -27 55 74 vvcurveto
          75 29 54 117 14 vhcurveto
          294 -143 rmoveto
          -76 -29 -57 -129 -11 vhcurveto
          288 vlineto
          130 -11 28 -59 -74 vvcurveto
          endchar
        </CharString>
        <CharString name="Pi">
          153 callgsubr
          576 98 callsubr
          576 108 52 -860 -52 108 -576 -56 callsubr
          576 346 -576 -71 callgsubr
          endchar
        </CharString>
        <CharString name="Psi">
          953 0 52 446 47 89 52 hstem
          136 136 130 136 142 136 vstem
          884 524 rmoveto
          21 -20 0 -14 vhcurveto
          -72 hlineto
          -61 -36 -38 -107 -1 hvcurveto
          -26 -6 -65 -33 -44 vhcurveto
          -14 -18 -27 -30 -62 -13 rrcurveto
          430 75 callgsubr
          -429 vlineto
          -119 30 -10 104 -1 79 rrcurveto
          29 -7 98 -91 vhcurveto
          -71 hlineto
          -14 -21 0 -21 -13 10 -7 8 -1 hvcurveto
          15 -2 8 -1 10 -15 rrcurveto
          12 -19 5 -23 -23 vvcurveto
          2 -156 85 -91 179 -15 rrcurveto
          -106 68 callsubr
          71 6 83 22 50 46 rrcurveto
          66 62 8 81 25 vvcurveto
          27 1 28 12 24 vhcurveto
          11 21 9 2 18 2 rrcurveto
          8 2 9 8 11 vvcurveto
          endchar
        </CharString>
        <CharString name="Q">
          920 -194 160 20 47 83 42 495 47 hstemhm
          68 154 131 42 302 154 -35 42 hintmask 10000001
          858 -7 rmoveto
          7 0 21 -21 -18 -2 -16 -8 -1 vhcurveto
          -31 -4 -67 0 -16 hhcurveto
          -25 -27 0 50 -41 hvcurveto
          hintmask 11011010
          149 60 66 124 139 vvcurveto
          201 -137 160 -255 -251 -140 -157 -204 -197 137 -156 255 12 43 0 9 45 vhcurveto
          -97 27 25 -92 99 hhcurveto
          hintmask 00111101
          103 44 112 75 hvcurveto
          -161 346 rmoveto
          -54 0 -147 -104 -66 vhcurveto
          39 -29 -40 47 -65 hhcurveto
          -57 -49 -34 -51 -5 1 -8 1 -5 hvcurveto
          -114 55 -19 115 114 vvcurveto
          56 3 99 51 71 vhcurveto
          66 48 74 22 61 hhcurveto
          68 69 -26 -60 45 hvcurveto
          hintmask 01100110
          52 -70 4 -97 -61 vvcurveto
          -155 -292 rmoveto
          -14 -36 -38 0 -8 hhcurveto
          -30 -35 9 31 29 35 14 29 45 21 -28 -41 17 hvcurveto
          endchar
        </CharString>
        <CharString name="R">
          6 callgsubr
          hstem
          155 143 303 160 cntrmask 11100000
          -102 callsubr
          endchar
        </CharString>
        <CharString name="Racute">
          33 callsubr
          303 160 cntrmask 11100000
          -102 callsubr
          hintmask 11100000
          20 337 -105 callsubr
        </CharString>
        <CharString name="Rcaron">
          33 callsubr
          303 160 cntrmask 11100000
          -102 callsubr
          hintmask 11110000
          31 373 -65 callsubr
        </CharString>
        <CharString name="Rcedilla">
          6 callgsubr
          hstem
          155 143 303 160 cntrmask 11100000
          -102 callsubr
          -78 -636 rmoveto
          -100 callsubr
        </CharString>
        <CharString name="Rcommaaccent">
          33 callsubr
          303 160 cntrmask 11100000
          -102 callsubr
          hintmask 11100000
          -78 -636 rmoveto
          -100 callsubr
        </CharString>
        <CharString name="Rdblgrave">
          33 callsubr
          303 160 cntrmask 11100000
          -102 callsubr
          hintmask 11100000
          -18 275 -97 callsubr
        </CharString>
        <CharString name="Rdotaccent">
          67 callgsubr
          hintmask 11110100
          -102 callsubr
          hintmask 11101000
          -62 326 -103 callgsubr
        </CharString>
        <CharString name="Rdotbelow">
          67 callgsubr
          hintmask 11110100
          -102 callsubr
          hintmask 11101000
          -62 -619 -103 callgsubr
        </CharString>
        <CharString name="Rdotbelowmacron">
          67 callgsubr
          -102 callsubr
          -62 -619 rmoveto
          -35 callsubr
          -45 -36 -36 -44 -45 38 -35 42 45 94 callsubr
          hintmask 11100000
          139 871 -29 callsubr
        </CharString>
        <CharString name="Rho">
          -8 callgsubr
        </CharString>
        <CharString name="S">
          681 -14 60 callsubr
          hstem
          68 101 342 101 vstem
          612 202 rmoveto
          -103 callsubr
          endchar
        </CharString>
        <CharString name="S_S">
          1361 -14 60 callsubr
          hstem
          68 101 342 101 137 101 342 101 vstem
          612 202 rmoveto
          -103 callsubr
          681 hmoveto
          -103 callsubr
          endchar
        </CharString>
        <CharString name="Sacute">
          681 -14 60 callsubr
          62 -21 173 -20 hstemhm
          68 101 342 101 hintmask 11100110
          612 202 rmoveto
          -103 callsubr
          hintmask 00011000
          -108 634 -105 callsubr
        </CharString>
        <CharString name="Scaron">
          681 -14 60 callsubr
          52 -21 165 -20 hstemhm
          68 101 342 101 hintmask 11100110
          612 202 rmoveto
          -103 callsubr
          hintmask 00011000
          -97 670 -65 callsubr
        </CharString>
        <CharString name="Scedilla">
          681 -42 52 -24 52 -51 52 407 52 155 47 hstemhm
          68 101 342 101 hintmask 01011110
          612 202 rmoveto
          110 -85 83 -100 20 vhcurveto
          -152 31 rlineto
          -72 15 -34 44 44 vvcurveto
          44 31 60 107 23 67 -2 -40 53 vhcurveto
          56 -43 11 -62 4 -24 rrcurveto
          -19 3 1 -5 25 hhcurveto
          27 1 7 24 hvcurveto
          180 vlineto
          19 0 12 -22 -12 -1 -1 -23 -23 vhcurveto
          -31 -30 rlineto
          33 -46 -56 21 -80 hhcurveto
          -169 -70 -105 -97 -43 14 -42 34 -39 hvcurveto
          52 -59 63 -12 44 -9 123 -25 rcurveline
          86 -18 27 -54 -44 vvcurveto
          -31 -14 -84 -128 -48 -73 7 35 -56 vhcurveto
          -63 39 -4 61 -1 32 rrcurveto
          16 -1 -16 0 -11 hhcurveto
          -28 0 -8 -23 hvcurveto
          -180 88 callsubr
          vhcurveto
          hintmask 10000000
          12 1 1 23 23 hvcurveto
          hintmask 00100000
          30 29 39 -26 47 -13 42 -7 rlinecurve
          -91 vlineto
          3 callsubr
          hintmask 10000000
          50 -53 29 -55 vhcurveto
          hintmask 00100010
          29 vlineto
          160 11 56 111 93 vvcurveto
          endchar
        </CharString>
        <CharString name="Scircumflex">
          681 -14 60 callsubr
          52 -21 165 -20 hstemhm
          68 101 342 101 hintmask 11100110
          612 202 rmoveto
          -103 callsubr
          hintmask 00011000
          -97 553 -56 callgsubr
        </CharString>
        <CharString name="Sdotbelow">
          681 140 callsubr
          60 callsubr
          hstemhm
          68 101 91 161 90 101 hintmask 01111010
          612 202 rmoveto
          -103 callsubr
          hintmask 10000100
          -191 -322 -103 callgsubr
        </CharString>
        <CharString name="Sigma">
          885 0 71 563 52 hstem
          816 262 rmoveto
          -56 hlineto
          -174 -23 -108 -17 -140 hhcurveto
          -272 hlineto
          293 251 rlineto
          10 9 4 3 9 vvcurveto
          3 -1 6 -9 11 vhcurveto
          -237 271 rlineto
          212 hlineto
          143 103 -19 -172 25 hvcurveto
          56 hlineto
          -33 243 rlineto
          -680 hlineto
          -19 -16 0 -26 -13 1 -1 9 -10 hvcurveto
          298 -342 -294 -252 rlineto
          -10 -9 -4 -3 -9 vvcurveto
          -21 21 0 14 vhcurveto
          680 hlineto
          endchar
        </CharString>
        <CharString name="T">
          86 callsubr
          hstem
          351 149 vstem
          -88 callgsubr
          endchar
        </CharString>
        <CharString name="T_uni0303">
          86 callsubr
          58 125 callgsubr
          351 149 hintmask 11001000
          -88 callgsubr
          hintmask 00010000
          -121 393 rmoveto
          -30 30 rlineto
          hintmask 00100000
          -88 callsubr
          hintmask 00010000
          -96 callsubr
          hintmask 00100000
          30 -30 rlineto
          hintmask 00010000
          -87 callgsubr
          hintmask 00100000
          -97 callgsubr
        </CharString>
        <CharString name="T_uni0308">
          86 callsubr
          58 144 hstemhm
          197 145 9 149 11 145 hintmask 11001000
          -88 callgsubr
          hintmask 00110100
          -409 373 -84 callsubr
        </CharString>
        <CharString name="Tau">
          86 callsubr
          hstem
          351 149 vstem
          -88 callgsubr
          endchar
        </CharString>
        <CharString name="Tcaron">
          86 callsubr
          79 -21 165 -20 hstemhm
          351 149 hintmask 11001000
          -88 callgsubr
          hintmask 00110000
          -150 442 -65 callsubr
        </CharString>
        <CharString name="Tcedilla">
          852 -200 56 46 56 42 152 callsubr
          hstemhm
          351 149 -130 112 -28 136 hintmask 00111000
          807 430 rmoveto
          -23 243 rlineto
          -717 hlineto
          -23 -243 rlineto
          56 hlineto
          117 10 15 74 144 hhcurveto
          82 -569 -152 -52 hlineto
          hintmask 01000100
          2 28 82 1 61 hhcurveto
          -101 vlineto
          hintmask 10000010
          3 callsubr
          hintmask 01100100
          50 -53 29 -55 vhcurveto
          -1 45 rlineto
          62 81 -1 -2 28 hvcurveto
          52 vlineto
          hintmask 00111000
          -152 569 82 hlineto
          144 15 -74 -117 10 hvcurveto
          endchar
        </CharString>
        <CharString name="Tdotbelow">
          852 13 callgsubr
          569 52 hstemhm
          346 161 -156 149 hintmask 01101000
          -88 callgsubr
          hintmask 10010000
          -244 -550 -103 callgsubr
        </CharString>
        <CharString name="Theta">
          953 -14 44 250 128 250 42 hstemhm
          68 147 0 56 13 56 272 56 69 147 hintmask 10110001
          884 339 rmoveto
          196 -137 165 -271 -272 -136 -166 -195 -193 138 -160 270 270 138 160 193 vhcurveto
          -147 hmoveto
          -105 -20 -65 -41 -53 vhcurveto
          -50 -39 -71 -36 -90 hhcurveto
          -91 -69 37 46 -38 hvcurveto
          -42 53 -21 67 106 vvcurveto
          hintmask 01101111
          39 1 109 55 75 vhcurveto
          78 58 85 18 62 hhcurveto
          58 89 -16 -84 61 hvcurveto
          50 -71 3 -100 -48 vvcurveto
          -69 -93 rmoveto
          196 -56 -34 -272 34 -56 -196 56 34 272 -34 vlineto
          endchar
        </CharString>
        <CharString name="Thorn">
          769 0 52 126 52 284 52 68 52 hstem
          156 137 252 154 vstem
          699 372 rmoveto
          103 -83 91 -168 vhcurveto
          -155 68 107 52 hlineto
          -175 -3 -176 3 rlineto
          -52 107 -582 -107 -52 vlineto
          175 3 176 -3 rlineto
          52 -107 126 144 vlineto
          217 45 124 70 hvcurveto
          -154 1 rmoveto
          -143 -123 0 -24 vhcurveto
          -105 284 127 hlineto
          100 25 -79 -62 hvcurveto
          endchar
        </CharString>
        <CharString name="Tlinebelow">
          852 -149 58 91 152 callsubr
          hstemhm
          351 149 hintmask 01110000
          -88 callgsubr
          hintmask 10000000
          -104 -579 -29 callsubr
        </CharString>
        <CharString name="U">
          939 -14 84 callsubr
          413 66 hintmask 00100000
          891 59 callgsubr
          -141 -3 rlineto
          hintmask 00100000
          -141 3 rlineto
          -52 28 vlineto
          hintmask 11011000
          -89 callsubr
          hintmask 00110000
          409 108 52 vlineto
          hintmask 01000000
          -3 -38 -101 0 -43 hhcurveto
          hintmask 10111000
          -95 callgsubr
          endchar
        </CharString>
        <CharString name="U_uni032F">
          939 -192 153 callsubr
          12 84 callsubr
          413 66 hintmask 00001000
          2 callgsubr
          hintmask 00010000
          -141 -3 rlineto
          hintmask 00001000
          -141 3 rlineto
          -52 28 vlineto
          hintmask 00110110
          -89 callsubr
          hintmask 00001100
          409 108 52 vlineto
          hintmask 00010000
          -3 -38 -101 0 -43 hhcurveto
          hintmask 00101110
          -95 callgsubr
          hintmask 11000000
          -175 -847 -54 callsubr
        </CharString>
        <CharString name="Uacute">
          -15 callsubr
          76 -21 173 -20 -101 callgsubr
          hintmask 00011000
          -202 202 -105 callsubr
        </CharString>
        <CharString name="Ubreve">
          -15 callsubr
          55 124 callgsubr
          -101 callgsubr
          hintmask 00011000
          -175 294 -102 callgsubr
          endchar
        </CharString>
        <CharString name="Ucaron">
          -15 callsubr
          66 -21 165 -20 -101 callgsubr
          hintmask 00011000
          -191 238 -65 callsubr
        </CharString>
        <CharString name="Ucircumflex">
          -15 callsubr
          66 -21 165 -20 -101 callgsubr
          hintmask 00011000
          -191 121 -56 callgsubr
        </CharString>
        <CharString name="Udblgrave">
          -15 callsubr
          76 -21 200 -20 -101 callgsubr
          hintmask 00011000
          -206 140 -97 callsubr
        </CharString>
        <CharString name="Udieresis">
          -15 callsubr
          45 144 -40 callsubr
          -36 39 callsubr
          -10 66 hintmask 00100000
          891 59 callgsubr
          -141 -3 rlineto
          hintmask 00100000
          -141 3 rlineto
          -52 28 vlineto
          hintmask 11001001
          -89 callsubr
          hintmask 00101000
          409 108 52 vlineto
          hintmask 01000000
          -3 -38 -101 0 -43 hhcurveto
          hintmask 10101001
          -95 callgsubr
          hintmask 00010110
          -450 31 callgsubr
        </CharString>
        <CharString name="Udieresisacute">
          -15 callsubr
          45 144 87 -21 173 -82 callgsubr
          -66 233 -105 callsubr
        </CharString>
        <CharString name="Udieresiscaron">
          -15 callsubr
          45 144 77 -21 165 -82 callgsubr
          -55 269 -65 callsubr
        </CharString>
        <CharString name="Udieresisgrave">
          -15 callsubr
          45 144 87 -21 173 -82 callgsubr
          -147 188 -80 callsubr
        </CharString>
        <CharString name="Udotbelow">
          939 140 callsubr
          84 callsubr
          113 161 139 61 callsubr
          hintmask 01101010
          -89 callsubr
          hintmask 00011000
          409 108 52 vlineto
          hintmask 00100000
          -3 -38 -101 0 -43 hhcurveto
          hintmask 01011010
          -95 callgsubr
          hintmask 10000100
          -285 -754 -103 callgsubr
        </CharString>
        <CharString name="Ugrave">
          -15 callsubr
          76 -21 173 -20 -101 callgsubr
          hintmask 00011000
          -283 157 -80 callsubr
        </CharString>
        <CharString name="Uhookabove">
          -15 callsubr
          80 -21 193 -20 -101 callgsubr
          hintmask 00011000
          -247 240 -107 callgsubr
        </CharString>
        <CharString name="Uhorn">
          42 callsubr
          133 -20 121 callsubr
          411 66 -66 134 -61 134 hintmask 0000100010000000
          922 735 rmoveto
          43 -26 41 -41 -44 -23 -33 -33 vhcurveto
          hintmask 0001000100000000
          -32 21 -32 40 -3 vhcurveto
          hintmask 0001001000000000
          -16 -18 -24 -12 -28 -6 rrcurveto
          36 vlineto
          hintmask 0010000000000000
          -2 -10 -12 -2 -11 hhcurveto
          hintmask 0101011000000000
          -63 callsubr
          hintmask 0010000000000000
          -182 -4 rlineto
          hintmask 1001011010000000
          -55 callsubr
          endchar
        </CharString>
        <CharString name="Uhornacute">
          42 callsubr
          76 -21 78 -20 115 -79 callgsubr
          -295 101 -105 callsubr
        </CharString>
        <CharString name="Uhorndotbelow">
          938 140 callsubr
          71 callgsubr
          133 -20 121 callsubr
          85 161 165 66 -66 134 -61 134 hintmask 0000010000100000
          922 735 rmoveto
          43 -26 41 -41 -44 -23 -33 -33 vhcurveto
          hintmask 0000100001000000
          -32 21 -32 40 -3 vhcurveto
          hintmask 0000100010000000
          -16 -18 -24 -12 -28 -6 rrcurveto
          36 vlineto
          hintmask 0001000000000000
          -2 -10 -12 -2 -11 hhcurveto
          hintmask 0010101010000000
          -63 callsubr
          hintmask 0001000000000000
          -182 -4 rlineto
          hintmask 0100101010100000
          -55 callsubr
          hintmask 1000000100000000
          -372 -855 -103 callgsubr
        </CharString>
        <CharString name="Uhorngrave">
          42 callsubr
          76 -21 78 -20 115 -79 callgsubr
          -342 56 -80 callsubr
        </CharString>
        <CharString name="Uhornhookabove">
          42 callsubr
          80 -21 74 -20 139 -79 callgsubr
          -306 139 -107 callgsubr
        </CharString>
        <CharString name="Uhorntilde">
          42 callsubr
          45 82 -42 82 121 callsubr
          411 66 -66 134 -61 134 hintmask 0000000001000000
          922 735 rmoveto
          43 -26 41 -41 -44 -23 -33 -33 vhcurveto
          hintmask 0001000010000000
          -32 21 -32 40 -3 vhcurveto
          hintmask 0001000100000000
          -16 -18 -24 -12 -28 -6 rrcurveto
          36 vlineto
          hintmask 0010000000000000
          -2 -10 -12 -2 -11 hhcurveto
          hintmask 0101001100000000
          -63 callsubr
          hintmask 0010000000000000
          -182 -4 rlineto
          hintmask 1001001101000000
          -55 callsubr
          hintmask 0000010000000000
          -221 88 rmoveto
          -30 30 rlineto
          hintmask 0000100000000000
          -88 callsubr
          hintmask 0000010000000000
          -96 callsubr
          hintmask 0000100000000000
          30 -30 rlineto
          hintmask 0000010000000000
          -87 callgsubr
          hintmask 0000100000000000
          -97 callgsubr
        </CharString>
        <CharString name="Uhungarumlaut">
          -15 callsubr
          76 -21 200 -20 -101 callgsubr
          hintmask 00011000
          -352 241 -82 callsubr
        </CharString>
        <CharString name="Umacron">
          -15 callsubr
          65 130 callsubr
          413 66 hintmask 00100000
          891 59 callgsubr
          -141 -3 rlineto
          hintmask 00100000
          -141 3 rlineto
          -52 28 vlineto
          hintmask 11001100
          -89 callsubr
          hintmask 00101000
          409 108 52 vlineto
          hintmask 01000000
          -3 -38 -101 0 -43 hhcurveto
          hintmask 10101100
          -95 callgsubr
          hintmask 00010000
          -145 117 -29 callsubr
        </CharString>
        <CharString name="Uogonek">
          939 -212 85 113 84 callsubr
          413 61 callsubr
          hintmask 01101100
          -89 callsubr
          hintmask 00011000
          409 108 52 vlineto
          hintmask 00100000
          -3 -38 -101 0 -43 hhcurveto
          hintmask 10011100
          -44 -101 0 3 -38 hvcurveto
          -52 108 -403 vlineto
          -126 100 -107 196 -11 vhcurveto
          -25 -28 -19 -35 -30 vvcurveto
          40 callgsubr
          5 15 8 13 10 10 rrcurveto
          182 14 76 114 115 vvcurveto
          -58 callsubr
          endchar
        </CharString>
        <CharString name="Upsilon">
          953 0 52 476 52 0 120 hstemhm
          68 68 266 149 265 68 hintmask 00110000
          884 553 rmoveto
          73 -70 74 -99 -108 -91 -80 -150 -39 vhcurveto
          -1 hlineto
          121 -29 -83 109 -127 hhcurveto
          -100 -69 -74 -73 hvcurveto
          hintmask 11001100
          -25 17 0 16 15 15 0 19 3 vhcurveto
          16 2 3 17 85 hhcurveto
          30 60 0 -75 46 hvcurveto
          33 -52 9 -64 -45 vvcurveto
          -292 -135 -52 vlineto
          3 37 127 0 45 hhcurveto
          45 128 141 callgsubr
          -135 292 vlineto
          64 18 65 29 41 vhcurveto
          66 47 51 0 32 hhcurveto
          50 36 -5 -23 4 hvcurveto
          -24 3 9 0 21 hhcurveto
          16 17 0 25 hvcurveto
          endchar
        </CharString>
        <CharString name="Uring">
          -15 callsubr
          15 47 74 47 -40 callsubr
          62 64 134 64 89 66 hintmask 0010000000000000
          2 callgsubr
          hintmask 0100000000000000
          -141 -3 rlineto
          hintmask 0010000000000000
          -141 3 rlineto
          -52 28 vlineto
          hintmask 1100010010000000
          -89 callsubr
          hintmask 0010010000000000
          409 108 52 vlineto
          hintmask 0100000000000000
          -3 -38 -101 0 -43 hhcurveto
          hintmask 1010010010000000
          -95 callgsubr
          hintmask 0001101100000000
          -299 151 -59 callgsubr
        </CharString>
        <CharString name="Utilde">
          -15 callsubr
          45 82 -42 82 -101 callgsubr
          hintmask 00001000
          -162 189 -98 callgsubr
        </CharString>
        <CharString name="V">
          922 11 -21 644 52 hstem
          892 -27 callgsubr
          -3 -40 -54 0 -28 hhcurveto
          -135 94 callgsubr
          26 33 0 -9 27 hvcurveto
          -6 -13 -212 -454 -223 476 rlineto
          91 52 hlineto
          -3 -37 -98 0 -42 hhcurveto
          -165 3 rlineto
          -52 93 vlineto
          289 -617 rlineto
          -27 13 15 0 21 hhcurveto
          23 14 0 26 12 hvcurveto
          280 597 rlineto
          14 6 4 7 71 hhcurveto
          endchar
        </CharString>
        <CharString name="W">
          90 callsubr
          hstem
          -91 callgsubr
          endchar
        </CharString>
        <CharString name="Wacute">
          90 callsubr
          76 -21 173 -20 hstemhm
          hintmask 11000000
          -91 callgsubr
          hintmask 00110000
          -421 202 -105 callsubr
        </CharString>
        <CharString name="Wcircumflex">
          90 callsubr
          66 callgsubr
          hintmask 11000000
          -91 callgsubr
          hintmask 00110000
          -410 121 -56 callgsubr
        </CharString>
        <CharString name="Wdieresis">
          90 callsubr
          45 144 hstemhm
          402 39 callsubr
          hintmask 11000000
          -91 callgsubr
          hintmask 00111000
          -669 31 callgsubr
        </CharString>
        <CharString name="Wgrave">
          90 callsubr
          76 -21 173 -20 hstemhm
          hintmask 11000000
          -91 callgsubr
          hintmask 00110000
          -502 157 -80 callsubr
        </CharString>
        <CharString name="X">
          -50 callgsubr
        </CharString>
        <CharString name="Xi">
          817 0 118 95 -20 98 118 82 -21 85 118 hstem
          590 56 0 56 0 56 cntrmask 00000111
          758 470 rmoveto
          -10 203 rlineto
          -680 hlineto
          -10 -203 rlineto
          56 hlineto
          1 17 2 52 14 9 rrcurveto
          7 10 57 0 14 hhcurveto
          392 hlineto
          13 61 0 -8 8 hvcurveto
          13 -11 2 -47 1 -19 rrcurveto
          63 -257 rmoveto
          -56 hlineto
          -1 -24 -2 -51 -13 -11 rrcurveto
          -9 -9 -47 0 -31 hhcurveto
          -396 hlineto
          -7 -75 0 10 -6 hvcurveto
          -10 13 -3 23 -2 49 rrcurveto
          -56 hlineto
          10 -213 rlineto
          694 hlineto
          -109 250 rmoveto
          200 -56 -41 -364 41 -56 -200 56 41 364 -41 vlineto
          endchar
        </CharString>
        <CharString name="Y">
          35 callgsubr
          142 callgsubr
          hintmask 00100000
          897 59 callgsubr
          -3 -45 -43 0 -36 hhcurveto
          hintmask 00100000
          -136 94 callgsubr
          30 15 0 -9 27 hvcurveto
          -201 -272 -208 281 rlineto
          80 52 hlineto
          hintmask 01000000
          -3 -36 -106 0 -42 hhcurveto
          hintmask 10110000
          -53 -68 0 3 -51 hvcurveto
          -52 99 vlineto
          266 -360 rlineto
          -222 -108 -52 vlineto
          3 39 97 0 44 hhcurveto
          44 95 0 -3 39 hvcurveto
          52 -107 223 vlineto
          252 340 rlineto
          hintmask 01000000
          9 13 3 1 24 2 rrcurveto
          hintmask 00100000
          2 18 17 1 18 hhcurveto
          endchar
        </CharString>
        <CharString name="Yacute">
          35 callgsubr
          76 -21 173 -20 142 callgsubr
          -92 callsubr
          hintmask 00011000
          -248 202 -105 callsubr
        </CharString>
        <CharString name="Ycircumflex">
          35 callgsubr
          66 callgsubr
          389 143 -92 callsubr
          hintmask 00011000
          -237 121 -56 callgsubr
        </CharString>
        <CharString name="Ydieresis">
          35 callgsubr
          45 144 hstemhm
          232 145 12 143 14 145 -92 callsubr
          hintmask 00011010
          -496 31 callgsubr
        </CharString>
        <CharString name="Ydotbelow">
          922 13 callgsubr
          579 52 -49 52 hstemhm
          381 161 -153 143 hintmask 00010000
          897 -27 callgsubr
          hintmask 00100000
          -3 -45 -43 0 -36 hhcurveto
          hintmask 00010000
          -136 94 callgsubr
          30 15 0 -9 27 hvcurveto
          -201 -272 -208 281 rlineto
          80 52 hlineto
          hintmask 00100000
          -3 -36 -106 0 -42 hhcurveto
          hintmask 01010100
          -53 -68 0 3 -51 hvcurveto
          -52 99 vlineto
          266 -360 rlineto
          -222 -108 -52 vlineto
          3 39 97 0 44 hhcurveto
          44 95 0 -3 39 hvcurveto
          52 -107 223 vlineto
          252 340 rlineto
          hintmask 00100000
          9 13 3 1 24 2 rrcurveto
          hintmask 00010000
          2 18 17 1 18 hhcurveto
          hintmask 10001000
          -331 -754 -103 callgsubr
        </CharString>
        <CharString name="Ygrave">
          35 callgsubr
          76 -21 173 -20 142 callgsubr
          -92 callsubr
          hintmask 00011000
          -329 157 -80 callsubr
        </CharString>
        <CharString name="Yhookabove">
          35 callgsubr
          80 -21 193 -20 142 callgsubr
          -92 callsubr
          hintmask 00011000
          -293 240 -107 callgsubr
        </CharString>
        <CharString name="Ytilde">
          35 callgsubr
          45 82 -42 82 142 callgsubr
          -92 callsubr
          hintmask 00001000
          -208 189 -98 callgsubr
        </CharString>
        <CharString name="Z">
          87 callgsubr
          hstem
          -81 callgsubr
          endchar
        </CharString>
        <CharString name="Zacute">
          87 callgsubr
          76 -21 173 -20 hstemhm
          hintmask 11000000
          -81 callgsubr
          hintmask 00110000
          -129 836 -105 callsubr
        </CharString>
        <CharString name="Zcaron">
          87 callgsubr
          66 callgsubr
          hintmask 11000000
          -81 callgsubr
          hintmask 00110000
          -118 872 -65 callsubr
        </CharString>
        <CharString name="Zdotaccent">
          87 callgsubr
          59 160 hstemhm
          294 161 hintmask 11000000
          -81 callgsubr
          hintmask 00110000
          -212 825 -103 callgsubr
        </CharString>
        <CharString name="Zdotbelow">
          749 20 callgsubr
          57 577 52 hstemhm
          294 161 hintmask 01100000
          -81 callgsubr
          hintmask 10010000
          -212 -120 -103 callgsubr
        </CharString>
        <CharString name="Zeta">
          87 callgsubr
          hstem
          -81 callgsubr
          endchar
        </CharString>
        <CharString name="a">
          -54 callgsubr
          -1 callgsubr
          hintmask 01011100
          589 26 rmoveto
          26 -16 0 -14 -62 0 10 23 vhcurveto
          211 vlineto
          90 -72 69 -163 -49 -143 0 -99 -44 34 -24 33 40 28 29 38 32 -21 19 0 vhcurveto
          2 8 29 5 39 hhcurveto
          80 35 -44 -72 hvcurveto
          -29 vlineto
          -150 -1 -195 -33 -122 vvcurveto
          hintmask 10000000
          -85 96 -34 109 103 43 55 20 13 vhcurveto
          hintmask 01000000
          -30 11 -38 97 vhcurveto
          53 hlineto
          19 15 0 26 hvcurveto
          -214 111 rmoveto
          hintmask 10101100
          -102 -120 0 -4 -52 -47 31 48 70 93 43 130 3 vhcurveto
          endchar
        </CharString>
        <CharString name="aacute">
          -54 callgsubr
          71 -21 199 -20 -106 callsubr
          hintmask 00001100
          79 407 -94 callsubr
        </CharString>
        <CharString name="abreve">
          -54 callgsubr
          56 124 callgsubr
          -106 callsubr
          hintmask 00001100
          114 468 -102 callgsubr
          endchar
        </CharString>
        <CharString name="abreveacute">
          63 callsubr
          326 -20 -106 callsubr
          hintmask 00001100
          114 469 -102 callgsubr
          -69 130 -105 callsubr
        </CharString>
        <CharString name="abrevedotbelow">
          54 callgsubr
          56 69 118 -26 callgsubr
          114 468 -102 callgsubr
          hintmask 1000000010000000
          -110 -818 -103 callgsubr
        </CharString>
        <CharString name="abrevegrave">
          63 callsubr
          118 -20 -106 callsubr
          hintmask 00001100
          114 469 -102 callgsubr
          -66 85 -68 callgsubr
        </CharString>
        <CharString name="abrevehookabove">
          63 callsubr
          326 -20 -106 callsubr
          hintmask 00001100
          114 469 -102 callgsubr
          -72 144 -107 callgsubr
        </CharString>
        <CharString name="abrevetilde">
          63 callsubr
          173 135 callsubr
          hintmask 0101000110000000
          -84 callgsubr
          hintmask 1010000110000000
          -102 -120 0 -4 -52 -47 31 48 70 93 43 130 3 vhcurveto
          hintmask 0000101000000000
          114 469 -102 callgsubr
          13 147 rmoveto
          -30 30 rlineto
          hintmask 0000010000000000
          -88 callsubr
          hintmask 0000001000000000
          -96 callsubr
          hintmask 0000010000000000
          30 -30 rlineto
          hintmask 0000001000000000
          -87 callgsubr
          hintmask 0000010000000000
          -97 callgsubr
        </CharString>
        <CharString name="acaron">
          -54 callgsubr
          67 -21 207 -20 -106 callsubr
          hintmask 00001100
          100 456 -57 callgsubr
        </CharString>
        <CharString name="acircumflex">
          -54 callgsubr
          67 -21 207 -20 -106 callsubr
          hintmask 00001100
          100 81 callgsubr
          endchar
        </CharString>
        <CharString name="acircumflexacute">
          -54 callgsubr
          67 -21 373 -20 -106 callsubr
          hintmask 00001100
          98 295 -63 callgsubr
        </CharString>
        <CharString name="acircumflexdotbelow">
          54 callgsubr
          67 -21 207 -26 callgsubr
          100 81 callgsubr
          hintmask 1000000010000000
          -76 -621 -103 callgsubr
        </CharString>
        <CharString name="acircumflexgrave">
          -54 callgsubr
          67 -21 165 -20 -106 callsubr
          hintmask 00001100
          98 295 -61 callsubr
        </CharString>
        <CharString name="acircumflexhookabove">
          -54 callgsubr
          67 -21 373 -20 -106 callsubr
          hintmask 00001101
          75 callsubr
          79 309 -107 callgsubr
        </CharString>
        <CharString name="acircumflextilde">
          -54 callgsubr
          67 -21 220 135 callsubr
          hintmask 0101000110000000
          -84 callgsubr
          hintmask 1010000110000000
          -102 -120 0 -4 -52 -47 31 48 70 93 43 130 3 vhcurveto
          hintmask 0000101000000000
          75 callsubr
          45 312 rmoveto
          -30 30 rlineto
          hintmask 0000010000000000
          -88 callsubr
          hintmask 0000001000000000
          -96 callsubr
          hintmask 0000010000000000
          30 -30 rlineto
          hintmask 0000001000000000
          -87 callgsubr
          hintmask 0000010000000000
          -97 callgsubr
        </CharString>
        <CharString name="acute">
          613 526 114 callsubr
          hstem
          462 637 -94 callsubr
        </CharString>
        <CharString name="acute.cap">
          613 520 -21 173 -20 hstem
          470 594 -105 callsubr
        </CharString>
        <CharString name="acute.dup">
          613 526 114 callsubr
          hstem
          462 637 -94 callsubr
        </CharString>
        <CharString name="acute.ts1">
          612 527 114 callsubr
          hstem
          487 638 rmoveto
          34 -30 33 -35 -21 -17 -15 -16 -15 vhcurveto
          -104 -110 rlineto
          -3 -3 -7 -5 -5 vvcurveto
          -9 20 -20 10 -16 vhcurveto
          10 3 9 6 10 4 63 30 rcurveline
          48 23 61 17 1 49 rrcurveto
          endchar
        </CharString>
        <CharString name="adblgrave">
          -54 callgsubr
          71 -21 200 -20 -106 callsubr
          hintmask 00001100
          83 308 -97 callsubr
        </CharString>
        <CharString name="adieresis">
          -54 callgsubr
          78 144 hstemhm
          30 122 -59 22 callsubr
          -129 122 hintmask 0101010010000000
          -84 callgsubr
          hintmask 1010010010000000
          -102 -120 0 -4 -52 -47 31 48 70 93 43 130 3 vhcurveto
          hintmask 0000101100000000
          -137 375 -67 callsubr
        </CharString>
        <CharString name="adotbelow">
          54 callgsubr
          hstemhm
          30 122 66 161 -4 122 hintmask 00101101
          589 26 rmoveto
          26 -16 0 -14 -62 0 10 23 vhcurveto
          211 vlineto
          90 -72 69 -163 -49 -143 0 -99 -44 34 -24 33 40 28 29 38 32 -21 19 0 vhcurveto
          2 8 29 5 39 hhcurveto
          80 35 -44 -72 hvcurveto
          -29 vlineto
          -150 -1 -195 -33 -122 vvcurveto
          hintmask 01000000
          -85 96 -34 109 103 43 55 20 13 vhcurveto
          hintmask 00100000
          -30 11 -38 97 vhcurveto
          53 hlineto
          19 15 0 26 hvcurveto
          -214 111 rmoveto
          hintmask 01010101
          -102 -120 0 -4 -52 -47 31 48 70 93 43 130 3 vhcurveto
          hintmask 10000010
          4 -350 -103 callgsubr
        </CharString>
        <CharString name="ae">
          -61 callgsubr
        </CharString>
        <CharString name="ae.dup">
          -61 callgsubr
        </CharString>
        <CharString name="aeacute">
          885 -7 42 -42 47 169 42 -39 39 -2 39 67 42 -41 42 15 42 130 callgsubr
          41 10 callgsubr
          250 97 hintmask 0101010100011000
          850 -47 callgsubr
          hintmask 0000101100000000
          -60 -62 -12 -45 -57 hvcurveto
          57 -64 -95 0 -33 hhcurveto
          -54 -139 -1 -98 -44 34 -24 33 hvcurveto
          hintmask 0100110100111000
          40 28 29 38 32 -21 19 0 hvcurveto
          5 25 34 2 17 hhcurveto
          78 38 -41 -75 hvcurveto
          -48 vlineto
          -93 -4 -247 -10 -129 vvcurveto
          -113 168 0 37 46 111 4 59 54 vhcurveto
          -42 53 65 -21 79 hhcurveto
          154 42 104 18 hvcurveto
          -97 136 rmoveto
          hintmask 1001000100111000
          -250 hlineto
          31 1 5 131 130 hhcurveto
          108 5 -122 -40 1 hvcurveto
          -352 -126 rmoveto
          -56 -72 -34 -71 -55 -40 32 39 vhcurveto
          hintmask 0010000000000000
          82 140 17 79 4 vhcurveto
          1 -16 2 -21 12 -32 rrcurveto
          4 -9 0 -1 -5 vvcurveto
          hintmask 0000000011000000
          197 512 -94 callsubr
        </CharString>
        <CharString name="agrave">
          -54 callgsubr
          71 -21 199 -20 -106 callsubr
          hintmask 00001100
          2 320 -71 callsubr
        </CharString>
        <CharString name="ahookabove">
          -54 callgsubr
          74 -21 193 -20 -106 callsubr
          hintmask 00001100
          42 407 -107 callgsubr
        </CharString>
        <CharString name="amacron">
          -54 callgsubr
          121 58 -1 callgsubr
          hintmask 01010110
          589 26 rmoveto
          26 -16 0 -14 -62 0 10 23 vhcurveto
          211 vlineto
          90 -72 69 -163 -49 -143 0 -99 -44 34 -24 33 40 28 29 38 32 -21 19 0 vhcurveto
          2 8 29 5 39 hhcurveto
          80 35 -44 -72 hvcurveto
          -29 vlineto
          -150 -1 -195 -33 -122 vvcurveto
          hintmask 10000000
          -85 96 -34 109 103 43 55 20 13 vhcurveto
          hintmask 01000000
          -30 11 -38 97 vhcurveto
          53 hlineto
          19 15 0 26 hvcurveto
          -214 111 rmoveto
          hintmask 10100110
          -102 -120 0 -4 -52 -47 31 48 70 93 43 130 3 vhcurveto
          hintmask 00001000
          144 346 -29 callsubr
        </CharString>
        <CharString name="ampersand">
          953 -14 52 354 52 222 42 hstemhm
          51 135 -3 111 148 56 330 56 hintmask 01101100
          891 392 73 callgsubr
          -30 -51 0 -22 hhcurveto
          -37 -27 0 3 -54 hvcurveto
          -52 vlineto
          22 18 0 -8 23 hvcurveto
          -8 -12 -92 -140 -106 -91 -76 74 -69 80 -39 79 rrcurveto
          110 90 45 55 52 vvcurveto
          62 -42 75 -81 -87 -105 -63 -120 -89 32 -74 11 -26 vhcurveto
          -108 -85 rlineto
          hintmask 11010010
          -25 -20 -42 -33 -59 vvcurveto
          -94 98 -59 124 80 75 27 34 54 vhcurveto
          -19 38 81 -42 109 hhcurveto
          87 84 44 86 3 hvcurveto
          -56 hlineto
          -72 -4 -89 -6 -20 hhcurveto
          -51 -49 27 41 -49 hvcurveto
          81 70 57 77 74 101 4 5 16 22 3 1 rrcurveto
          12 10 61 0 0 vvcurveto
          -432 179 rmoveto
          -54 -59 -52 -58 -51 vhcurveto
          hintmask 10101100
          -24 63 -7 51 38 vvcurveto
          58 38 42 45 48 17 -61 -34 vhcurveto
          -8 -493 rmoveto
          -39 -70 -66 -1 -14 hhcurveto
          hintmask 00010000
          -78 -20 88 46 45 13 48 46 32 hvcurveto
          38 -70 69 -93 82 -56 rrcurveto
          endchar
        </CharString>
        <CharString name="anglearc">
          953 -137 -21 816 -20 hstem
          669 68 vstem
          884 34 rmoveto
          15 -10 14 -15 4 vhcurveto
          -138 40 rlineto
          10 46 6 48 49 vvcurveto
          49 -6 48 -10 46 vhcurveto
          138 40 rlineto
          15 4 10 14 15 vvcurveto
          23 -22 16 -21 -6 vhcurveto
          -139 -40 -24 67 -34 63 -45 56 rlinecurve
          8 -6 -10 5 -11 hhcurveto
          -18 -16 -15 -19 -8 3 -7 5 -6 hvcurveto
          39 -50 30 -55 21 -58 -543 -157 rcurveline
          -15 -4 -10 -14 -15 vvcurveto
          -15 10 -14 15 -4 vhcurveto
          543 -157 -21 -58 -30 -55 -39 -50 rlinecurve
          -5 -6 -3 -7 -8 vvcurveto
          -19 16 -15 18 11 10 5 8 6 vhcurveto
          45 56 34 63 24 67 139 -40 rcurveline
          21 -6 22 16 23 vvcurveto
          -215 216 rmoveto
          -42 -5 -42 -9 -40 vhcurveto
          -430 124 430 124 rlineto
          9 -40 5 -42 -42 vvcurveto
          endchar
        </CharString>
        <CharString name="angleleft">
          476 -228 -21 999 -20 21 -20 hstemhm
          hintmask 00100000
          407 -215 rmoveto
          4 vlineto
          -1 8 -4 7 -3 7 -182 415 rcurveline
          -3 7 -6 10 8 vvcurveto
          4 2 4 2 4 vhcurveto
          9 21 171 392 5 12 8 12 2 13 rlinecurve
          3 vlineto
          19 -15 16 -19 vhcurveto
          hintmask 11000000
          -6 -1 -23 -4 -6 -24 -8 -18 rlinecurve
          -183 -419 rlineto
          -5 -11 -7 -12 -12 vvcurveto
          -11 6 -10 5 -10 vhcurveto
          184 -420 8 -20 7 -26 26 -2 rlinecurve
          21 15 15 19 hvcurveto
          endchar
        </CharString>
        <CharString name="angleright">
          476 -228 -21 1000 -20 hstem
          340 252 rmoveto
          22 -23 36 -11 27 vhcurveto
          -86 196 -75 171 -8 19 -7 25 -24 3 rlinecurve
          -3 -4 0 -1 -3 hvcurveto
          -17 -2 -11 -15 -16 vvcurveto
          -18 17 -28 9 -20 vhcurveto
          48 -111 39 -88 41 -87 35 -88 rlinecurve
          4 -8 6 -10 -8 vvcurveto
          -8 -8 -14 -4 -10 vhcurveto
          -60 -127 -50 -131 -59 -127 rrcurveto
          -7 -15 -11 -17 -17 vvcurveto
          -18 16 -16 19 vhcurveto
          25 1 8 25 8 19 184 421 rcurveline
          5 11 7 12 12 vvcurveto
          endchar
        </CharString>
        <CharString name="aogonek">
          135 callgsubr
          hstem
          -9 callsubr
          vstem
          -38 callgsubr
          endchar
        </CharString>
        <CharString name="aogonekacute">
          135 callgsubr
          71 -21 199 -20 -1 callgsubr
          hintmask 11100110
          -38 callgsubr
          hintmask 00011000
          79 407 -94 callsubr
        </CharString>
        <CharString name="aring">
          -54 callgsubr
          69 47 74 47 128 callgsubr
          hintmask 0101001001000000
          -84 callgsubr
          hintmask 1010001001000000
          -102 -120 0 -4 -52 -47 31 48 70 93 43 130 3 vhcurveto
          hintmask 0000110110000000
          -10 378 -59 callgsubr
        </CharString>
        <CharString name="aringacute">
          -54 callgsubr
          69 47 74 47 83 47 78 -20 128 callgsubr
          hintmask 0101000010010000
          -84 callgsubr
          hintmask 1010000010010000
          -102 -120 0 -4 -52 -47 31 48 70 93 43 130 3 vhcurveto
          hintmask 0000111101100000
          -10 378 -87 callsubr
          -9 215 -105 callsubr
        </CharString>
        <CharString name="asciicircum">
          556 583 -21 123 59 hstem
          -5 566 vstem
          561 584 rmoveto
          -283 160 -283 -160 11 -22 271 123 272 -123 rlineto
          endchar
        </CharString>
        <CharString name="asciitilde">
          556 193 43 -25 43 -8 43 -25 43 hstemhm
          hintmask 10010000
          555 290 51 callsubr
          hintmask 01000000
          32 callgsubr
          hintmask 00100000
          20 10 20 11 17 14 rrcurveto
          endchar
        </CharString>
        <CharString name="asciitilde.low">
          556 0 43 -25 43 -8 43 -25 43 hstemhm
          0 555 hintmask 10010000
          555 97 51 callsubr
          hintmask 01001000
          32 callgsubr
          hintmask 00101000
          20 10 20 11 17 14 rrcurveto
          endchar
        </CharString>
        <CharString name="asterisk">
          613 327 -21 444 -20 hstem
          257 98 vstem
          533 441 rmoveto
          25 -11 7 -6 4 vhcurveto
          -154 51 137 44 rlineto
          17 5 17 12 26 vvcurveto
          26 -21 26 -27 -8 -6 -1 -10 -15 vhcurveto
          -126 -90 23 129 rlineto
          3 2 7 3 vvcurveto
          23 -22 19 -27 -27 -22 -19 -23 0 2 -13 1 -4 vhcurveto
          22 -125 -126 90 rlineto
          10 -15 -6 1 -8 hhcurveto
          -27 -21 -26 -26 -26 18 -12 16 -5 hvcurveto
          137 -44 -137 -44 rlineto
          -17 -5 -17 -12 -26 vvcurveto
          -26 21 -26 27 8 6 1 10 15 vhcurveto
          126 90 -23 -129 rlineto
          -3 -2 -7 -3 vvcurveto
          -23 22 -19 27 27 22 19 23 0 -2 13 -1 4 vhcurveto
          -22 125 126 -90 rlineto
          -10 15 6 -1 8 hhcurveto
          27 21 26 26 hvcurveto
          endchar
        </CharString>
        <CharString name="asterisk.math">
          612 50 -21 444 -20 hstem
          257 97 vstem
          532 165 rmoveto
          36 -33 6 -27 8 vhcurveto
          -36 13 -38 9 -35 14 35 14 38 9 36 13 rrcurveto
          27 8 33 6 36 vvcurveto
          26 -21 27 -27 -12 -10 -5 -7 -9 vhcurveto
          -24 -18 -99 -70 18 103 rlineto
          2 12 4 13 12 vvcurveto
          28 -24 15 -24 -24 -25 -15 -29 -12 4 -13 2 -12 vhcurveto
          6 -34 7 -34 5 -34 -99 70 rcurveline
          -24 18 rlineto
          7 -9 -10 5 -12 hhcurveto
          -27 -21 -27 -26 -36 33 -6 27 -8 hvcurveto
          36 -13 38 -9 35 -14 -35 -14 -38 -9 -36 -13 rrcurveto
          -27 -8 -33 -6 -36 vvcurveto
          -26 21 -27 27 12 10 5 7 9 vhcurveto
          24 18 99 70 -5 -34 -7 -34 -6 -34 rlinecurve
          -2 -12 -4 -13 -12 vvcurveto
          -29 25 -15 24 24 24 15 28 12 -4 13 -2 12 vhcurveto
          -18 103 99 -70 24 -18 rlineto
          -7 9 10 -5 12 hhcurveto
          27 21 27 26 hvcurveto
          endchar
        </CharString>
        <CharString name="at">
          953 -7 42 91 42 358 42 91 42 hstemhm
          68 56 107 122 246 122 -34 56 85 56 hintmask 1101101010000000
          884 80 rmoveto
          18 -16 0 -15 vhcurveto
          -26 hlineto
          -16 -2 0 -8 -20 hvcurveto
          -36 -98 -112 -19 -99 hhcurveto
          -253 -103 154 158 174 121 138 231 208 144 -115 -202 -33 0 -141 -75 -32 0 43 12 hvcurveto
          231 vlineto
          hintmask 1111110110000000
          27 -2 4 -32 vhcurveto
          -39 hlineto
          58 -43 -61 25 -70 hhcurveto
          -151 -92 -94 -127 -129 94 -92 149 52 47 14 31 40 hvcurveto
          -41 31 69 -4 30 hhcurveto
          126 15 157 63 194 -139 161 -269 -273 -135 -165 -189 -174 118 -180 294 151 131 33 29 84 hvcurveto
          28 9 1 1 4 4 rrcurveto
          4 4 1 4 3 vvcurveto
          -285 148 rmoveto
          -54 -39 -59 -6 -23 hhcurveto
          -69 -56 58 121 121 56 58 69 hvcurveto
          hintmask 0000001000000000
          23 59 -6 -54 39 hvcurveto
          endchar
        </CharString>
        <CharString name="atilde">
          -54 callgsubr
          89 82 -42 82 -106 callsubr
          hintmask 00000100
          127 406 rmoveto
          -30 30 rlineto
          hintmask 00001000
          -88 callsubr
          hintmask 00000100
          -96 callsubr
          hintmask 00001000
          30 -30 rlineto
          hintmask 00000100
          -87 callgsubr
          hintmask 00001000
          -97 callgsubr
        </CharString>
        <CharString name="b">
          681 -7 42 374 42 183 60 hstem
          103 callsubr
          276 135 vstem
          97 callgsubr
          289 vlineto
          -182 -93 callgsubr
          -595 56 vlineto
          18 callgsubr
        </CharString>
        <CharString name="backslash">
          575 750 -20 hstem
          510 -219 rmoveto
          6 -1 1 -5 13 vhcurveto
          -377 919 rlineto
          17 -7 -5 13 -21 hhcurveto
          -14 -16 -11 -20 -6 1 -1 5 -13 hvcurveto
          377 -919 rlineto
          -15 6 6 -15 21 hhcurveto
          14 16 11 20 hvcurveto
          endchar
        </CharString>
        <CharString name="baht">
          869 -52 52 0 52 284 42 256 52 0 52 hstemhm
          155 136 0 136 -26 52 39 154 -28 148 -120 154 hintmask 0000100101000000
          800 187 rmoveto
          83 -72 74 -140 15 vhcurveto
          106 18 72 59 77 vvcurveto
          94 -96 79 -168 vhcurveto
          -49 52 hlineto
          hintmask 0000001000000000
          14 -12 12 -14 vhcurveto
          hintmask 0000100100000000
          -15 -11 -12 -14 hvcurveto
          -52 -354 vlineto
          hintmask 0101010100000000
          -52 108 -582 -108 -52 354 vlineto
          hintmask 1000000100000000
          -52 vlineto
          hintmask 0000001000000000
          -14 11 -12 15 vhcurveto
          hintmask 1011000100100000
          14 12 12 14 hvcurveto
          52 82 vlineto
          171 94 85 102 hvcurveto
          -182 326 rmoveto
          -79 -58 -56 -98 vhcurveto
          -9 256 36 hlineto
          hintmask 0011001001000000
          103 26 -70 -51 hvcurveto
          -217 -135 rmoveto
          -110 256 hlineto
          hintmask 0111010110000000
          110 hlineto
          245 -445 rmoveto
          -82 -55 -55 -99 vhcurveto
          -39 284 49 hlineto
          119 25 -89 -58 hvcurveto
          -245 -137 rmoveto
          -110 284 110 hlineto
          endchar
        </CharString>
        <CharString name="bar">
          319 750 -20 hstem
          129 61 vstem
          190 -206 rmoveto
          26 callsubr
          endchar
        </CharString>
        <CharString name="bigcircle">
          686 0 68 550 68 hstem
          0 68 550 68 vstem
          -73 callgsubr
          endchar
        </CharString>
        <CharString name="blanksymbol">
          681 -7 42 374 42 -22 42 0 42 112 42 -33 60 140 callgsubr
          -14 116 174 135 hintmask 0100101000000000
          97 callgsubr
          131 vlineto
          118 89 rlineto
          6 5 4 8 8 vvcurveto
          hintmask 0000100100000000
          14 -11 12 -15 -5 -6 -2 -3 -4 vhcurveto
          hintmask 0001011000000000
          -87 -66 rlineto
          93 vlineto
          -182 -93 callgsubr
          -82 vlineto
          -56 -42 rlineto
          -6 -5 -4 -8 -8 vvcurveto
          -14 12 -12 14 vhcurveto
          hintmask 0010001000000000
          6 5 2 3 5 hvcurveto
          24 19 rlineto
          -448 56 vlineto
          hintmask 1100000110000000
          18 callgsubr
        </CharString>
        <CharString name="braceleft">
          80 callsubr
          -232 rmoveto
          13 -5 4 -12 1 vhcurveto
          -84 5 -37 35 -12 36 rrcurveto
          -3 10 0 8 17 vvcurveto
          237 vlineto
          -1 42 -32 51 -86 23 rrcurveto
          119 32 0 69 45 vvcurveto
          210 vlineto
          22 0 29 39 29 vhcurveto
          11 7 29 18 52 3 rrcurveto
          14 1 8 0 17 vvcurveto
          18 -9 0 -22 -142 -90 -50 -77 -1 vhcurveto
          -206 vlineto
          -62 0 -21 -33 -29 vhcurveto
          -23 -21 -35 -14 -41 -2 rrcurveto
          -14 -1 -8 0 -17 vvcurveto
          -13 5 -4 12 -1 vhcurveto
          90 -5 36 -45 9 -36 rrcurveto
          2 -8 0 -2 -37 vvcurveto
          -210 vlineto
          -128 166 -11 67 22 9 0 18 vhcurveto
          endchar
        </CharString>
        <CharString name="braceright">
          80 callsubr
          250 rmoveto
          13 -5 4 -12 1 vhcurveto
          -64 3 -52 26 -17 55 rrcurveto
          -3 8 0 2 39 vvcurveto
          210 vlineto
          123 -152 16 -82 -21 -10 0 -18 -13 5 -4 12 -1 vhcurveto
          81 -4 41 -33 12 -39 rrcurveto
          3 -10 0 -8 -17 vvcurveto
          -237 vlineto
          1 -42 31 -50 87 -24 rrcurveto
          -119 -32 0 -68 -46 vvcurveto
          -210 vlineto
          -23 0 -26 -37 -29 vhcurveto
          -10 -7 -31 -20 -54 -3 rrcurveto
          -14 -1 -8 0 -17 vvcurveto
          -18 10 0 21 150 83 54 73 1 vhcurveto
          206 vlineto
          65 0 17 34 31 vhcurveto
          11 11 33 22 53 3 rrcurveto
          14 1 8 0 17 vvcurveto
          endchar
        </CharString>
        <CharString name="bracketleft">
          340 -250 68 864 68 hstem
          135 68 vstem
          312 -250 rmoveto
          68 -109 864 109 68 -177 -1000 vlineto
          endchar
        </CharString>
        <CharString name="bracketright">
          340 -250 68 864 68 hstem
          136 68 vstem
          204 -250 rmoveto
          1000 -177 -68 109 -864 -109 -68 vlineto
          endchar
        </CharString>
        <CharString name="breve">
          613 511 124 callgsubr
          hstem
          497 698 -102 callgsubr
          endchar
        </CharString>
        <CharString name="breve.cap">
          613 499 124 callgsubr
          hstem
          497 686 -102 callgsubr
          endchar
        </CharString>
        <CharString name="breve.ts1">
          748 508 124 callgsubr
          hstem
          115 42 433 42 vstem
          632 695 rmoveto
          -42 hlineto
          -112 -168 -6 -55 -82 -128 19 99 vhcurveto
          -42 hlineto
          -123 134 -64 128 109 146 57 130 vhcurveto
          endchar
        </CharString>
        <CharString name="brokenbar">
          319 750 -20 hstem
          129 61 vstem
          190 341 rmoveto
          365 vlineto
          14 0 30 -30 -31 0 -29 -15 vhcurveto
          -365 vlineto
          -15 14 -11 17 16 14 11 15 vhcurveto
          -547 vmoveto
          365 vlineto
          15 -14 11 -16 -17 -14 -11 -15 vhcurveto
          -365 37 callsubr
          endchar
        </CharString>
        <CharString name="bullet">
          953 70 306 hstem
          323 306 68 callgsubr
          endchar
        </CharString>
        <CharString name="c">
          36 callgsubr
          hstem
          41 135 184 135 vstem
          -80 callgsubr
          endchar
        </CharString>
        <CharString name="cacute">
          36 callgsubr
          130 callgsubr
          41 135 184 135 hintmask 11100110
          -80 callgsubr
          hintmask 00011000
          -54 522 -94 callsubr
        </CharString>
        <CharString name="caron">
          613 85 callsubr
          483 686 -57 callgsubr
        </CharString>
        <CharString name="caron.cap">
          113 callgsubr
          165 -20 hstem
          481 630 -65 callsubr
        </CharString>
        <CharString name="caron.ts1">
          748 570 -21 171 -20 hstem
          606 669 rmoveto
          -23 51 -209 -82 -189 74 -21 8 -23 -51 233 -120 rlineto
          endchar
        </CharString>
        <CharString name="ccaron">
          36 callgsubr
          67 -21 207 -20 hstemhm
          41 135 184 135 hintmask 11100110
          -80 callgsubr
          hintmask 00011000
          -33 571 -57 callgsubr
        </CharString>
        <CharString name="ccedilla">
          36 callgsubr
          hstem
          41 135 16 135 33 135 vstem
          509 115 rmoveto
          18 -16 0 -12 -19 -3 0 -18 -7 vhcurveto
          -66 -28 -67 -9 -32 hhcurveto
          -149 0 143 43 60 3 122 134 7 56 -2 -4 0 -1 -3 -3 -3 hvcurveto
          -8 -12 -4 -15 -14 vvcurveto
          -40 31 -27 36 38 30 26 42 99 -145 0 -41 -192 -76 -120 -113 -108 69 -94 133 -22 vhcurveto
          -96 vlineto
          5 callsubr
          50 -53 29 -55 hvcurveto
          39 vlineto
          30 4 30 9 26 16 rrcurveto
          53 33 15 50 6 vvcurveto
          endchar
        </CharString>
        <CharString name="ccircumflex">
          36 callgsubr
          67 -21 207 -20 hstemhm
          41 135 184 135 hintmask 11100110
          -80 callgsubr
          hintmask 00011000
          -33 408 -70 callsubr
          endchar
        </CharString>
        <CharString name="cdotaccent">
          36 callgsubr
          70 160 hstemhm
          41 135 43 161 -20 135 hintmask 11101010
          -80 callgsubr
          hintmask 00010100
          -129 490 -103 callgsubr
        </CharString>
        <CharString name="cedilla">
          13 callsubr
        </CharString>
        <CharString name="cedilla.dup">
          13 callsubr
        </CharString>
        <CharString name="cent">
          36 callgsubr
          hstem
          41 135 97 52 35 135 vstem
          509 115 rmoveto
          18 -16 0 -12 -19 -3 0 -18 -7 vhcurveto
          -66 -28 -66 -9 -33 hhcurveto
          368 vlineto
          19 -1 32 -2 -3 vvcurveto
          0 -1 -3 -3 -3 vhcurveto
          -8 -12 -4 -15 -14 vvcurveto
          -40 31 -27 36 38 30 26 42 88 -116 10 -54 1 vhcurveto
          41 vlineto
          15 -11 11 -15 -14 -12 -11 -15 vhcurveto
          -42 vlineto
          -165 -14 -67 -112 -106 vvcurveto
          -116 79 -100 153 -12 vhcurveto
          -46 vlineto
          -14 12 -12 14 15 11 12 14 vhcurveto
          46 vlineto
          40 2 41 9 35 21 rrcurveto
          53 33 15 50 6 vvcurveto
          -236 -68 rmoveto
          -97 29 0 113 37 vvcurveto
          53 2 103 95 22 vhcurveto
          endchar
        </CharString>
        <CharString name="cent.oldstyle">
          544 -7 47 315 47 4 47 2 47 hstem
          41 135 80 52 52 135 vstem
          509 115 rmoveto
          18 -16 0 -12 -19 -3 0 -18 -7 vhcurveto
          -66 -28 -67 -9 -32 hhcurveto
          -22 -19 3 6 -16 hvcurveto
          82 357 rlineto
          14 -1 12 -1 -2 vvcurveto
          0 -1 -3 -3 -3 vhcurveto
          -8 -12 -4 -15 -14 vvcurveto
          -40 31 -27 36 38 30 26 42 72 -76 20 -58 5 vhcurveto
          9 38 rlineto
          16 4 -13 15 -16 hhcurveto
          -13 -10 -8 -12 -3 hvcurveto
          -11 -47 rlineto
          -191 -76 -120 -113 -97 56 -86 108 -32 hvcurveto
          -13 -53 rlineto
          -16 -3 12 -16 17 hhcurveto
          12 10 9 11 3 hvcurveto
          13 54 rlineto
          -2 15 17 -1 17 hhcurveto
          45 50 8 25 41 hvcurveto
          53 33 15 50 6 vvcurveto
          -212 292 rmoveto
          -76 -329 rlineto
          -45 45 0 74 29 vvcurveto
          58 3 114 118 9 vhcurveto
          endchar
        </CharString>
        <CharString name="centigrade">
          1157 345 69 0 69 0 69 hstem
          340 160 532 56 cntrmask 11100000
          1088 227 rmoveto
          13 -2 12 -22 vhcurveto
          -9 hlineto
          -12 -11 -4 -17 hvcurveto
          -7 vlineto
          -121 -11 -123 -64 -111 hhcurveto
          -75 -85 21 56 -56 hvcurveto
          -59 59 -12 90 79 vvcurveto
          61 6 68 31 55 vhcurveto
          46 80 92 36 88 4 rrcurveto
          23 hlineto
          114 88 -73 -111 30 hvcurveto
          -18 3 -3 -23 28 hhcurveto
          8 hlineto
          16 18 1 22 hvcurveto
          230 vlineto
          13 -4 13 -18 -14 -10 -12 -8 -10 vhcurveto
          -35 -31 rlineto
          -5 -5 -9 -10 -6 hhcurveto
          -2 hlineto
          -4 -10 8 4 -6 hvcurveto
          34 -54 -62 19 -64 hhcurveto
          -34 hlineto
          -24 -3 -25 -1 -24 -3 rrcurveto
          -171 -27 -157 -119 -203 vvcurveto
          -86 30 -86 59 -62 vhcurveto
          -91 87 128 -33 122 hhcurveto
          126 153 58 131 35 hvcurveto
          5 16 3 18 17 vvcurveto
          -816 324 rmoveto
          79 -58 58 -78 vhcurveto
          -5 -4 -1 -5 hhcurveto
          -79 -10 -43 -57 -69 vvcurveto
          -79 58 -58 78 82 54 63 74 vhcurveto
          -68 1 rmoveto
          -40 -24 -29 -44 -38 -25 22 37 -5 vhcurveto
          8 vlineto
          40 24 29 44 38 25 -22 -37 5 vhcurveto
          endchar
        </CharString>
        <CharString name="circumflex">
          613 85 callsubr
          483 523 -70 callsubr
          endchar
        </CharString>
        <CharString name="circumflex.cap">
          113 callgsubr
          165 -20 hstem
          481 513 -56 callgsubr
        </CharString>
        <CharString name="circumflex.dup">
          613 85 callsubr
          483 523 -70 callsubr
          endchar
        </CharString>
        <CharString name="colon">
          340 0 160 124 124 callsubr
          160 vstem
          250 364 -35 callgsubr
          -284 vmoveto
          19 callsubr
        </CharString>
        <CharString name="colonmonetary">
          60 callgsubr
          hstem
          68 160 233 52 245 58 vstem
          816 227 rmoveto
          24 -11 0 -17 -25 -2 -4 -25 -1 vhcurveto
          -104 -7 -105 -80 -132 hhcurveto
          -3 610 hlineto
          102 110 -63 -142 25 hvcurveto
          -20 3 7 0 23 hhcurveto
          29 4 1 30 hvcurveto
          215 vlineto
          19 0 12 -22 -9 -3 0 -10 -11 vhcurveto
          -66 -58 -41 29 -59 34 -92 5 rlinecurve
          38 vlineto
          14 -12 12 -14 -15 -11 -12 -14 vhcurveto
          -39 vlineto
          -253 -12 -140 -154 -190 vvcurveto
          -188 137 -156 256 -12 vhcurveto
          -39 vlineto
          -14 11 -12 15 14 12 12 14 vhcurveto
          38 vlineto
          186 8 117 115 118 vvcurveto
          -355 -185 rmoveto
          -80 10 -56 34 -32 35 rrcurveto
          -45 49 -20 69 104 vvcurveto
          44 2 110 61 67 vhcurveto
          50 55 68 19 52 7 rrcurveto
          endchar
        </CharString>
        <CharString name="comma">
          340 -173 -21 194 124 callsubr
          174 vstem
          264 33 rmoveto
          73 -39 54 -55 -51 -29 -39 -41 -41 28 -39 52 18 19 4 12 14 vhcurveto
          -4 -50 -20 -66 -69 -53 rrcurveto
          -6 -6 -6 -4 -9 vvcurveto
          -10 12 -12 10 18 108 86 141 vhcurveto
          endchar
        </CharString>
        <CharString name="copyleft">
          686 0 68 550 68 hstem
          0 68 550 68 vstem
          -73 callgsubr
          -103 hmoveto
          80 -62 65 -111 -42 -26 -15 -13 -18 vhcurveto
          -26 24 rlineto
          4 -5 -1 0 -4 hhcurveto
          -8 0 -5 -8 hvcurveto
          -87 vlineto
          -12 1 -1 12 9 3 0 9 1 vhcurveto
          57 10 45 26 41 hhcurveto
          19 42 -3 -31 29 hvcurveto
          25 -28 1 -44 -18 vvcurveto
          -42 -8 -28 -19 -20 vhcurveto
          -17 -15 -30 -17 -45 hhcurveto
          -53 -43 33 42 -3 hvcurveto
          10 -1 2 -10 -7 -4 0 -10 -49 50 -49 80 112 61 66 79 vhcurveto
          endchar
        </CharString>
        <CharString name="copyright">
          686 0 68 550 68 hstem
          0 68 550 68 vstem
          -73 callgsubr
          -143 -47 rmoveto
          10 -5 0 -7 -10 -1 -2 -10 vhcurveto
          -42 -3 -42 -33 -54 hhcurveto
          -45 -30 17 17 -15 hvcurveto
          -19 20 -8 28 42 vvcurveto
          18 1 44 25 28 vhcurveto
          31 29 42 3 19 hhcurveto
          41 45 -26 -57 10 hvcurveto
          -9 1 3 0 9 hhcurveto
          12 2 1 12 hvcurveto
          87 vlineto
          8 0 5 -9 -4 -1 0 -4 -5 vhcurveto
          -26 -24 rlineto
          13 -18 -26 15 -42 hhcurveto
          -111 -61 -65 -80 -79 60 -66 112 80 51 49 49 hvcurveto
          endchar
        </CharString>
        <CharString name="copyright.alt">
          840 -198 68 495 68 141 68 hstem
          0 68 704 68 vstem
          840 222 rmoveto
          258 -163 162 -257 -258 -162 -162 -258 -257 162 -163 258 257 163 163 257 vhcurveto
          -68 hmoveto
          -216 -136 -136 -216 -216 -136 136 216 216 136 136 216 216 136 -136 -216 vhcurveto
          -127 -75 rmoveto
          16 -7 0 -11 -16 -1 -3 -16 -1 vhcurveto
          -68 -5 -68 -51 -85 hhcurveto
          -71 -48 26 27 -26 hvcurveto
          -29 32 -13 45 67 vvcurveto
          29 2 71 39 43 vhcurveto
          50 46 68 5 30 hhcurveto
          66 71 -41 -92 16 hvcurveto
          -13 2 5 0 15 hhcurveto
          19 2 1 19 hvcurveto
          139 vlineto
          13 0 7 -14 -6 -2 0 -6 -7 vhcurveto
          -43 -38 rlineto
          20 -28 -42 24 -67 hhcurveto
          -177 -98 -103 -128 -127 96 -104 180 127 81 77 79 hvcurveto
          endchar
        </CharString>
        <CharString name="currency">
          953 -9 68 382 68 hstem
          218 68 381 68 vstem
          764 -38 rmoveto
          25 24 -25 24 -8 8 -74 75 rcurveline
          33 43 20 55 59 vvcurveto
          59 -20 55 -33 43 vhcurveto
          74 75 9 9 24 23 -25 24 rlinecurve
          -24 25 -24 -25 -8 -8 -75 -75 rcurveline
          34 -43 -55 20 -59 hhcurveto
          -59 -54 -20 -34 -44 hvcurveto
          -75 75 -9 9 -23 24 -24 -25 rlinecurve
          -25 -24 25 -24 8 -8 75 -75 rcurveline
          -33 -44 -20 -54 -59 vvcurveto
          -59 20 -54 33 -44 vhcurveto
          -75 -75 -9 -9 -24 -23 25 -24 rlinecurve
          24 -25 24 25 8 8 75 75 rcurveline
          -34 44 54 -20 59 hhcurveto
          59 55 20 34 43 hvcurveto
          75 -75 9 -9 23 -24 24 25 rlinecurve
          -97 288 rmoveto
          -105 -85 -86 -106 -105 -85 86 105 105 85 86 105 106 85 -86 -105 vhcurveto
          endchar
        </CharString>
        <CharString name="cwm">
          0 endchar
        </CharString>
        <CharString name="cwmascender">
          0 endchar
        </CharString>
        <CharString name="cwmcapital">
          0 endchar
        </CharString>
        <CharString name="d">
          681 -7 49 callsubr
          270 122 hintmask 00100101
          45 callgsubr
          hintmask 10011010
          -7 callsubr
          hintmask 01000001
          112 callgsubr
          hintmask 10000001
          -49 vlineto
          hintmask 01000000
          118 vmoveto
          hintmask 10010011
          -4 callsubr
          endchar
        </CharString>
        <CharString name="dagger">
          511 388 111 203 -20 hstemhm
          200 111 -32 111 hintmask 10010000
          447 443 rmoveto
          151 callsubr
          -33 -16 -9 -2 -13 -3 3 28 7 23 9 27 rrcurveto
          hintmask 11100000
          11 36 11 37 33 vvcurveto
          49 -37 10 -18 -22 -34 -13 -46 -33 11 -36 10 -32 vhcurveto
          10 -33 7 -23 3 -27 -10 2 -11 3 -19 9 rrcurveto
          12 -24 -29 14 -27 105 callsubr
          33 16 9 2 13 3 -3 -27 -10 -28 -7 -20 rrcurveto
          -21 -64 0 -15 -43 vvcurveto
          -129 10 -130 16 -128 vhcurveto
          2 -16 4 -28 3 -4 rrcurveto
          -7 3 8 0 9 hhcurveto
          hintmask 00010000
          11 10 0 11 3 hvcurveto
          hintmask 00100000
          2 12 30 208 211 vvcurveto
          46 0 12 -23 70 vhcurveto
          -7 21 -8 25 -3 23 10 -2 11 -3 19 -9 rrcurveto
          hintmask 10010000
          -12 24 29 -14 27 hhcurveto
          41 16 30 25 hvcurveto
          endchar
        </CharString>
        <CharString name="daggerdbl">
          511 -32 111 323 111 -92 110 171 -20 hstemhm
          200 111 hintmask 00100000
          447 476 rmoveto
          28 -19 27 -37 vhcurveto
          hintmask 01011000
          -18 -23 -6 -12 -24 hvcurveto
          -32 -15 -6 -2 -17 -4 3 18 1 8 13 33 rrcurveto
          13 34 10 31 28 vvcurveto
          44 -34 14 -21 -26 -30 -16 -42 -31 14 -36 10 -27 vhcurveto
          12 -33 1 -6 3 -19 -15 4 -6 1 -19 9 rrcurveto
          hintmask 00101000
          12 -24 -28 13 -28 hhcurveto
          -37 -19 -27 -28 -13 6 -42 51 13 16 0 24 49 hvcurveto
          20 10 5 1 16 4 -3 -18 -1 -8 -13 -33 rrcurveto
          -13 -34 -10 -31 -28 vvcurveto
          -44 34 -14 21 26 30 16 42 vhcurveto
          hintmask 01001000
          31 -14 36 -10 27 vhcurveto
          -12 33 -1 6 -3 19 15 -4 6 -1 19 -9 rrcurveto
          hintmask 10101000
          -21 42 17 -4 20 hhcurveto
          51 6 42 13 hvcurveto
          -453 vmoveto
          151 callsubr
          -28 -13 -12 -4 -14 -4 3 20 1 6 16 44 rrcurveto
          14 36 6 25 21 vvcurveto
          44 -34 14 -21 -26 -30 -16 -42 -28 11 -31 11 -30 vhcurveto
          14 -37 1 -7 3 -19 -13 3 -11 4 -15 8 rrcurveto
          12 -26 -28 13 -26 105 callsubr
          22 10 16 7 16 4 -3 -20 -1 -6 -16 -44 rrcurveto
          -14 -36 -6 -25 -21 vvcurveto
          -44 34 -14 21 26 30 16 42 28 -11 31 -11 30 vhcurveto
          -14 37 -1 7 -3 19 18 -5 15 -7 23 -10 rrcurveto
          -9 18 24 -9 21 hhcurveto
          41 16 30 25 hvcurveto
          endchar
        </CharString>
        <CharString name="dblbracketleft">
          493 -249 68 864 68 hstem
          135 68 84 68 vstem
          465 -249 rmoveto
          68 -110 864 110 68 -330 -1000 vlineto
          152 68 rmoveto
          -84 864 84 hlineto
          endchar
        </CharString>
        <CharString name="dblbracketright">
          493 -249 68 864 68 hstem
          137 68 84 68 vstem
          357 -249 rmoveto
          1000 -329 -68 109 -864 -109 -68 vlineto
          261 68 rmoveto
          -84 864 84 hlineto
          endchar
        </CharString>
        <CharString name="dblgrave.ts1">
          612 535 -21 198 -20 hstem
          259 546 rmoveto
          28 callsubr
          204 hmoveto
          28 callsubr
          endchar
        </CharString>
        <CharString name="dblverticalbar">
          523 750 -20 hstem
          129 61 143 61 vstem
          190 -206 rmoveto
          26 callsubr
          204 hmoveto
          26 callsubr
          endchar
        </CharString>
        <CharString name="dcaron">
          134 callsubr
          123 120 -60 138 callgsubr
          hintmask 0010001010000000
          45 callgsubr
          hintmask 1001010100000000
          -7 callsubr
          hintmask 0100000010000000
          112 callgsubr
          hintmask 1000000010000000
          -49 vlineto
          hintmask 0100000000000000
          118 vmoveto
          hintmask 1001001110000000
          -4 callsubr
          298 252 150 callgsubr
          hintmask 0000100000000000
          -31 21 -29 39 14 14 3 9 10 vhcurveto
          -3 -37 -15 -50 -51 -40 rrcurveto
          -5 -4 -4 -3 -7 vvcurveto
          -7 9 -9 7 14 81 64 106 vhcurveto
          endchar
        </CharString>
        <CharString name="dcroat">
          134 callsubr
          66 52 65 138 callgsubr
          hintmask 0010101010000000
          634 69 callsubr
          426 66 52 -66 125 vlineto
          hintmask 1001110100000000
          -182 -93 callgsubr
          -26 -180 -52 180 -109 vlineto
          37 -54 -52 6 -37 hhcurveto
          -169 -99 -100 -129 -131 97 -98 159 hvcurveto
          hintmask 0100000010000000
          112 callgsubr
          hintmask 1000000010000000
          -49 vlineto
          hintmask 0100000000000000
          118 vmoveto
          hintmask 1001000110000000
          -4 callsubr
          endchar
        </CharString>
        <CharString name="ddotbelow">
          681 64 callgsubr
          49 callsubr
          84 161 25 122 hintmask 0001001001000000
          45 callgsubr
          hintmask 0100110100000000
          -7 callsubr
          hintmask 0010000001000000
          112 callgsubr
          hintmask 0100000001000000
          -49 vlineto
          hintmask 0010000000000000
          118 vmoveto
          hintmask 0100100101000000
          -4 callsubr
          hintmask 1000000010000000
          -25 -467 -103 callgsubr
        </CharString>
        <CharString name="degree">
          459 346 68 204 68 hstem
          60 68 204 68 vstem
          400 516 rmoveto
          94 -76 76 -94 -94 -76 -76 -94 -94 76 -76 94 94 76 76 94 vhcurveto
          -68 hmoveto
          -56 -46 -46 -56 -57 -45 46 56 56 45 46 57 56 46 -46 -56 vhcurveto
          endchar
        </CharString>
        <CharString name="diameter">
          953 -144 68 652 68 hstem
          82 68 652 68 vstem
          884 624 rmoveto
          19 -15 15 -19 -9 -9 -4 -6 -6 vhcurveto
          -96 -96 rlineto
          57 -69 -88 35 -97 hhcurveto
          -218 -176 -176 -218 -97 35 -88 57 -69 hvcurveto
          -96 -96 rlineto
          -6 -6 -4 -9 -9 113 callsubr
          9 9 4 6 6 vhcurveto
          96 96 rlineto
          -57 69 88 -35 97 hhcurveto
          218 176 176 218 97 -35 88 -57 69 hvcurveto
          96 96 rlineto
          6 6 4 9 9 vvcurveto
          -82 -374 rmoveto
          -180 -146 -146 -180 -78 -71 27 46 -56 vhcurveto
          458 458 rlineto
          46 -56 27 -71 -78 vvcurveto
          -121 253 rmoveto
          -458 -458 rlineto
          -46 56 -27 71 78 vvcurveto
          180 146 146 180 78 71 -27 -46 56 vhcurveto
          endchar
        </CharString>
        <CharString name="died">
          612 334 81 -80 81 -72 62 hstemhm
          245 121 -120 121 -115 105 -93 83 cntrmask 11100000
          hintmask 11100010
          565 384 rmoveto
          17 -6 15 -18 -14 -18 -2 -2 -14 vhcurveto
          -4 -49 -50 -2 -49 hhcurveto
          56 8 55 9 55 vhcurveto
          hintmask 11101000
          1 5 2 4 5 vvcurveto
          18 -16 4 -13 vhcurveto
          -72 hlineto
          -11 -1 -11 -8 -13 vvcurveto
          -15 8 -19 1 -16 vhcurveto
          hintmask 11100010
          7 -43 4 -44 -43 vvcurveto
          -62 -62 4 5 -61 hvcurveto
          -3 -3 1 -3 hhcurveto
          -19 -4 -15 -16 hvcurveto
          -18 vlineto
          -17 3 -16 22 20 22 4 1 20 vhcurveto
          3 43 44 2 43 hhcurveto
          hintmask 11100100
          -88 -5 -89 -7 -88 vhcurveto
          hintmask 11101000
          -6 -66 rlineto
          hintmask 11110000
          -5 -1 -4 -5 vvcurveto
          -16 12 -7 14 vhcurveto
          66 hlineto
          14 12 4 13 3 hvcurveto
          5 vlineto
          hintmask 11100100
          36 -6 36 -3 36 vhcurveto
          hintmask 11100010
          -5 79 -5 80 79 vvcurveto
          143 -6 39 -3 rlineto
          4 5 -1 4 hhcurveto
          13 9 11 13 hvcurveto
          7 vlineto
          6 1 6 7 vvcurveto
          endchar
        </CharString>
        <CharString name="dieresis">
          613 533 144 hstem
          101 22 callsubr
          vstem
          -42 callgsubr
          endchar
        </CharString>
        <CharString name="dieresis.cap">
          613 489 144 hstem
          77 39 callsubr
          vstem
          -3 callsubr
          endchar
        </CharString>
        <CharString name="dieresis.dup">
          613 533 144 hstem
          101 22 callsubr
          vstem
          -42 callgsubr
          endchar
        </CharString>
        <CharString name="dieresis.ts1">
          612 548 148 hstem
          113 147 91 147 vstem
          498 622 rmoveto
          36 -28 38 -45 -3 -4 0 -1 -3 vhcurveto
          -41 -4 -23 -36 -33 vvcurveto
          -36 27 -38 46 45 29 38 36 vhcurveto
          -238 hmoveto
          36 -26 38 -49 vhcurveto
          -7 hlineto
          -38 -7 -27 -29 -37 vvcurveto
          -35 26 -40 49 vhcurveto
          7 hlineto
          43 8 22 31 35 vvcurveto
          endchar
        </CharString>
        <CharString name="discount">
          612 22 -21 21 186 336 186 0 20 1 -20 hstemhm
          123 186 -7 186 hintmask 00001000
          543 717 rmoveto
          18 -15 16 -18 vhcurveto
          hintmask 10010000
          -7 -1 -19 -3 -8 -19 -9 -15 rlinecurve
          -377 -631 rlineto
          -8 -14 -14 -17 -16 vvcurveto
          -18 15 -16 19 vhcurveto
          1 hlineto
          22 1 9 20 10 17 72 120 rcurveline
          307 515 rlineto
          8 13 12 14 16 vvcurveto
          -234 -79 rmoveto
          hintmask 01100100
          -44 -33 -43 -50 -7 vhcurveto
          -8 hlineto
          99 callgsubr
          179 -522 rmoveto
          -44 -33 -43 -50 -7 vhcurveto
          -8 hlineto
          hintmask 01000010
          99 callgsubr
          endchar
        </CharString>
        <CharString name="divide">
          953 -90 160 146 68 146 160 hstem
          396 160 cntrmask 11100000
          884 250 19 callgsubr
          -328 260 -35 callgsubr
          -520 vmoveto
          19 callsubr
        </CharString>
        <CharString name="divorced">
          612 -92 -21 142 82 198 82 0 82 -82 83 140 -20 21 -20 hstemhm
          -246 82 428 82 428 82 cntrmask 0000000111000000
          hintmask 0000100111000000
          214 252 rmoveto
          117 -79 105 -146 vhcurveto
          hintmask 0101001111000000
          -6 -7 0 -1 -6 hvcurveto
          -109 -10 -107 -66 -147 vvcurveto
          -142 113 -79 122 115 110 73 150 vhcurveto
          642 hmoveto
          139 -107 82 -133 vhcurveto
          -12 hlineto
          -55 -6 -55 -16 -39 -42 rrcurveto
          -39 -42 -20 -59 -58 vvcurveto
          -121 84 -100 144 145 87 99 124 vhcurveto
          -490 -339 rmoveto
          8 -1 8 -1 6 vhcurveto
          -10 126 -8 127 127 vvcurveto
          89 6 92 13 88 vhcurveto
          3 1 3 3 vvcurveto
          18 -14 4 -14 vhcurveto
          -64 hlineto
          hintmask 1110010111000000
          -5 -4 0 -1 -4 hvcurveto
          -11 -5 -13 -9 -8 2 -10 1 -7 hvcurveto
          9 -71 7 -72 -71 vvcurveto
          -44 vlineto
          -123 -6 -125 -11 -123 vhcurveto
          -1 -7 -2 -9 -9 vvcurveto
          -22 14 -4 15 vhcurveto
          63 hlineto
          24 6 10 16 hvcurveto
          408 343 rmoveto
          -7 0 -6 -1 -7 vhcurveto
          -67 -6 -32 -58 -110 hhcurveto
          -45 -50 7 32 -33 hvcurveto
          -27 27 -9 37 37 vvcurveto
          101 73 39 82 40 44 -4 -27 32 vhcurveto
          30 -25 12 -40 -39 vvcurveto
          -623 -5 rmoveto
          -98 -72 -42 -93 -40 -45 8 29 -29 vhcurveto
          -24 24 -7 32 -4 33 rrcurveto
          -1 5 0 6 6 vvcurveto
          80 47 57 103 78 87 -30 -110 vhcurveto
          endchar
        </CharString>
        <CharString name="dlinebelow">
          681 -149 58 84 49 callsubr
          270 122 hintmask 0001001010000000
          45 callgsubr
          hintmask 0100110100000000
          -7 callsubr
          hintmask 0010000010000000
          112 callgsubr
          hintmask 0100000010000000
          -49 vlineto
          hintmask 0010000000000000
          118 vmoveto
          hintmask 0100100110000000
          -4 callsubr
          hintmask 1000000000000000
          115 -496 -29 callsubr
        </CharString>
        <CharString name="dollar">
          613 -35 -21 178 135 193 135 165 -20 hstem
          68 86 126 52 126 86 cntrmask 00001110
          544 211 rmoveto
          66 -37 125 -175 29 vhcurveto
          217 vlineto
          85 -7 37 -30 16 -26 rrcurveto
          -47 -7 -14 -33 -27 vvcurveto
          -45 36 -23 31 24 44 15 56 99 -74 73 -138 7 vhcurveto
          50 -52 -50 vlineto
          -154 -11 -58 -103 -89 vvcurveto
          -66 33 -47 32 -30 vhcurveto
          51 -45 52 -10 44 -9 rrcurveto
          -244 vlineto
          -55 5 -56 17 -29 54 rrcurveto
          32 3 31 24 41 vvcurveto
          39 -28 28 -39 -34 -34 -21 -50 -80 49 -101 163 -11 vhcurveto
          -50 52 50 vlineto
          168 15 44 121 81 vvcurveto
          -264 231 rmoveto
          -90 16 -36 45 42 vvcurveto
          53 44 43 82 7 vhcurveto
          178 -486 rmoveto
          -59 -45 -49 -81 -8 vhcurveto
          233 vlineto
          72 -11 54 -45 -61 vvcurveto
          endchar
        </CharString>
        <CharString name="dollar.oldstyle">
          748 -34 -21 50 53 -47 53 -50 53 206 53 135 -20 68 53 92 53 -49 53 50 -20 hstemhm
          68 136 -68 135 -130 85 45 52 101 52 0 135 -68 135 -135 136 -86 85 hintmask 000000010100000100000000
          679 525 rmoveto
          97 -75 47 -75 18 vhcurveto
          -17 4 -14 3 -22 3 rrcurveto
          54 vlineto
          hintmask 001010101110011000000000
          -52 -50 hlineto
          -33 -35 4 -5 -33 hvcurveto
          51 -52 -58 vlineto
          -97 -11 -106 -76 -107 vvcurveto
          -96 83 -59 85 -28 vhcurveto
          11 -4 12 -4 12 -1 rrcurveto
          -253 vlineto
          hintmask 000000000000100000000000
          -48 4 -52 25 -30 40 rrcurveto
          hintmask 000000000010000000000000
          41 4 22 30 34 vvcurveto
          hintmask 000000000001000000000000
          39 -29 29 -39 vhcurveto
          hintmask 000000000010000000000000
          -46 -22 -37 -35 hvcurveto
          hintmask 101000000000110000000000
          -104 76 -53 82 -20 vhcurveto
          15 -4 15 -4 15 -1 rrcurveto
          -56 52 vlineto
          hintmask 110000000000011000000000
          50 101 -50 52 vlineto
          hintmask 000100000000000100000000
          59 vlineto
          hintmask 000000010000001000100000
          102 10 100 88 109 vvcurveto
          116 -111 66 -91 25 vhcurveto
          226 vlineto
          47 -5 48 -15 32 -37 rrcurveto
          hintmask 000000000000000010000000
          -34 -8 -26 -21 -39 vvcurveto
          hintmask 000001000000000100000000
          -39 29 -29 39 vhcurveto
          hintmask 000110101000011001000000
          46 22 36 38 hvcurveto
          -255 -97 rmoveto
          -101 22 rlineto
          198 101 vlineto
          -153 -188 rmoveto
          -15 2 -14 6 -15 5 rrcurveto
          -38 16 -35 20 39 vvcurveto
          4 vlineto
          8 57 61 19 48 13 rrcurveto
          322 -480 rmoveto
          -60 -73 -35 -44 -9 vhcurveto
          206 vlineto
          hintmask 010000000000011000100000
          46 -9 63 -31 8 -58 rrcurveto
          -169 -117 rmoveto
          -101 248 hlineto
          101 -22 rlineto
          endchar
        </CharString>
        <CharString name="dong">
          681 -52 52 hstem
          602 35 rmoveto
          49 vlineto
          -56 -6 0 37 hvcurveto
          405 62 49 -62 119 vlineto
          -173 -8 rlineto
          -49 vlineto
          56 6 0 -37 hvcurveto
          -25 -171 -49 171 -104 vlineto
          35 -51 -49 6 -35 hhcurveto
          -161 -94 -95 -122 -125 92 -93 151 69 48 28 19 25 hvcurveto
          -47 vlineto
          178 -54 rmoveto
          14 -11 12 -15 vhcurveto
          -511 hlineto
          -14 -12 -12 -14 -14 12 -12 14 hvcurveto
          511 hlineto
          15 11 12 14 hvcurveto
          -178 166 rmoveto
          -63 -45 -56 -9 -32 hhcurveto
          -124 0 118 57 60 0 120 136 44 44 -18 -41 33 hvcurveto
          endchar
        </CharString>
        <CharString name="dotaccent">
          340 525 77 callgsubr
          605 -103 callgsubr
        </CharString>
        <CharString name="dotaccent.alt">
          340 485 77 callgsubr
          565 -103 callgsubr
        </CharString>
        <CharString name="dotaccent.cap">
          340 489 77 callgsubr
          569 -103 callgsubr
        </CharString>
        <CharString name="dotlessi">
          4 callsubr
          142 callsubr
          hintmask 10110000
          -2 callsubr
          hintmask 11010000
          -86 callsubr
          endchar
        </CharString>
        <CharString name="dotlessj">
          55 callgsubr
          hstemhm
          -59 116 -116 135 95 116 hintmask 11101000
          287 -59 callsubr
          hintmask 10011000
          -30 callsubr
          endchar
        </CharString>
        <CharString name="e">
          -17 callgsubr
          hstem
          34 135 259 98 vstem
          -105 callgsubr
          endchar
        </CharString>
        <CharString name="eacute">
          -17 callgsubr
          71 -21 199 -20 17 callgsubr
          hintmask 11100110
          -105 callgsubr
          hintmask 00011000
          8 386 -94 callsubr
        </CharString>
        <CharString name="ebreve">
          -17 callgsubr
          56 124 callgsubr
          17 callgsubr
          hintmask 11100110
          -105 callgsubr
          hintmask 00011000
          43 447 -102 callgsubr
          endchar
        </CharString>
        <CharString name="ecaron">
          -17 callgsubr
          67 -21 207 -20 17 callgsubr
          hintmask 11100110
          -105 callgsubr
          hintmask 00011000
          29 435 -57 callgsubr
        </CharString>
        <CharString name="ecircumflex">
          -17 callgsubr
          67 -21 207 -20 17 callgsubr
          hintmask 11100110
          -105 callgsubr
          hintmask 00011000
          29 272 -70 callsubr
          endchar
        </CharString>
        <CharString name="ecircumflexacute">
          -17 callgsubr
          67 -21 373 -20 17 callgsubr
          hintmask 11100110
          -105 callgsubr
          hintmask 00011000
          27 274 -63 callgsubr
        </CharString>
        <CharString name="ecircumflexdotbelow">
          561 64 callgsubr
          1 callsubr
          67 -21 207 -20 117 callsubr
          31 161 67 98 hintmask 0111111010000000
          -105 callgsubr
          29 272 -70 callsubr
          hintmask 1000000100000000
          -76 -621 -103 callgsubr
        </CharString>
        <CharString name="ecircumflexgrave">
          -17 callgsubr
          67 -21 165 -20 17 callgsubr
          hintmask 11100110
          -105 callgsubr
          hintmask 00011000
          27 274 -61 callsubr
        </CharString>
        <CharString name="ecircumflexhookabove">
          -17 callgsubr
          67 -21 373 -20 17 callgsubr
          hintmask 11100110
          -105 callgsubr
          hintmask 00011000
          27 274 -98 callsubr
          79 309 -107 callgsubr
        </CharString>
        <CharString name="ecircumflextilde">
          -17 callgsubr
          67 -21 220 82 -42 82 17 callgsubr
          hintmask 11100011
          -105 callgsubr
          hintmask 00010100
          27 274 -98 callsubr
          45 312 rmoveto
          -30 30 rlineto
          hintmask 00001000
          -88 callsubr
          hintmask 00000100
          -96 callsubr
          hintmask 00001000
          30 -30 rlineto
          hintmask 00000100
          -87 callgsubr
          hintmask 00001000
          -97 callgsubr
        </CharString>
        <CharString name="edblgrave">
          -17 callgsubr
          71 -21 200 -20 17 callgsubr
          hintmask 11100110
          -105 callgsubr
          hintmask 00011000
          12 287 -97 callsubr
        </CharString>
        <CharString name="edieresis">
          -17 callgsubr
          78 144 117 callsubr
          -94 22 callsubr
          -58 98 hintmask 11101001
          -105 callgsubr
          hintmask 00010110
          -208 354 -67 callsubr
        </CharString>
</ttFont>
